<?xml version="1.0" encoding="UTF-8"?>
<svg xmlns="http://www.w3.org/2000/svg" width="758" height="49" viewBox="0 0 758 49" fill="none">
  <rect width="758" height="49" fill="#1766B0"></rect>
  <path d="M24.133 34L16.733 16.5H23.083L29.108 31.275H25.333L31.533 16.5H37.333L29.933 34H24.133ZM46.851 34.4C45.4343 34.4 44.1176 34.175 42.901 33.725C41.701 33.275 40.6593 32.6417 39.776 31.825C38.8926 30.9917 38.201 30.0167 37.701 28.9C37.2176 27.7833 36.976 26.5667 36.976 25.25C36.976 23.9167 37.2176 22.7 37.701 21.6C38.201 20.4833 38.8926 19.5167 39.776 18.7C40.6593 17.8667 41.701 17.225 42.901 16.775C44.1176 16.325 45.4343 16.1 46.851 16.1C48.2843 16.1 49.601 16.325 50.801 16.775C52.001 17.225 53.0426 17.8667 53.926 18.7C54.8093 19.5167 55.4926 20.4833 55.976 21.6C56.476 22.7 56.726 23.9167 56.726 25.25C56.726 26.5667 56.476 27.7833 55.976 28.9C55.4926 30.0167 54.8093 30.9917 53.926 31.825C53.0426 32.6417 52.001 33.275 50.801 33.725C49.601 34.175 48.2843 34.4 46.851 34.4ZM46.851 29.625C47.401 29.625 47.9093 29.525 48.376 29.325C48.8593 29.125 49.276 28.8417 49.626 28.475C49.9926 28.0917 50.276 27.6333 50.476 27.1C50.676 26.55 50.776 25.9333 50.776 25.25C50.776 24.5667 50.676 23.9583 50.476 23.425C50.276 22.875 49.9926 22.4167 49.626 22.05C49.276 21.6667 48.8593 21.375 48.376 21.175C47.9093 20.975 47.401 20.875 46.851 20.875C46.301 20.875 45.7843 20.975 45.301 21.175C44.8343 21.375 44.4176 21.6667 44.051 22.05C43.701 22.4167 43.426 22.875 43.226 23.425C43.026 23.9583 42.926 24.5667 42.926 25.25C42.926 25.9333 43.026 26.55 43.226 27.1C43.426 27.6333 43.701 28.0917 44.051 28.475C44.4176 28.8417 44.8343 29.125 45.301 29.325C45.7843 29.525 46.301 29.625 46.851 29.625ZM58.8674 34V16.5H64.7674V34H58.8674ZM76.6576 34.4C75.2576 34.4 73.9576 34.1833 72.7576 33.75C71.5743 33.3 70.541 32.6667 69.6576 31.85C68.791 31.0333 68.116 30.0667 67.6326 28.95C67.1493 27.8333 66.9076 26.6 66.9076 25.25C66.9076 23.9 67.1493 22.6667 67.6326 21.55C68.116 20.4333 68.791 19.4667 69.6576 18.65C70.541 17.8333 71.5743 17.2083 72.7576 16.775C73.9576 16.325 75.2576 16.1 76.6576 16.1C78.3743 16.1 79.891 16.4 81.2076 17C82.541 17.6 83.641 18.4667 84.5076 19.6L80.7826 22.925C80.266 22.275 79.691 21.775 79.0576 21.425C78.441 21.0583 77.741 20.875 76.9576 20.875C76.341 20.875 75.7826 20.975 75.2826 21.175C74.7826 21.375 74.3493 21.6667 73.9826 22.05C73.6326 22.4333 73.3576 22.9 73.1576 23.45C72.9576 23.9833 72.8576 24.5833 72.8576 25.25C72.8576 25.9167 72.9576 26.525 73.1576 27.075C73.3576 27.6083 73.6326 28.0667 73.9826 28.45C74.3493 28.8333 74.7826 29.125 75.2826 29.325C75.7826 29.525 76.341 29.625 76.9576 29.625C77.741 29.625 78.441 29.45 79.0576 29.1C79.691 28.7333 80.266 28.225 80.7826 27.575L84.5076 30.9C83.641 32.0167 82.541 32.8833 81.2076 33.5C79.891 34.1 78.3743 34.4 76.6576 34.4ZM86.2111 34V16.5H92.1111V34H86.2111ZM102.446 34V16.5H107.296L114.296 27.925H111.746L118.546 16.5H123.396L123.446 34H118.071L118.021 24.6H118.871L114.221 32.425H111.621L106.771 24.6H107.821V34H102.446ZM131.699 23H139.499V27.25H131.699V23ZM132.099 29.55H140.849V34H126.299V16.5H140.524V20.95H132.099V29.55ZM149.645 34.4C148.179 34.4 146.762 34.2333 145.395 33.9C144.029 33.5667 142.904 33.1333 142.02 32.6L143.92 28.3C144.754 28.7833 145.679 29.175 146.695 29.475C147.729 29.7583 148.729 29.9 149.695 29.9C150.262 29.9 150.704 29.8667 151.02 29.8C151.354 29.7167 151.595 29.6083 151.745 29.475C151.895 29.325 151.97 29.15 151.97 28.95C151.97 28.6333 151.795 28.3833 151.445 28.2C151.095 28.0167 150.629 27.8667 150.045 27.75C149.479 27.6167 148.854 27.4833 148.17 27.35C147.487 27.2 146.795 27.0083 146.095 26.775C145.412 26.5417 144.779 26.2333 144.195 25.85C143.629 25.4667 143.17 24.9667 142.82 24.35C142.47 23.7167 142.295 22.9333 142.295 22C142.295 20.9167 142.595 19.9333 143.195 19.05C143.812 18.15 144.72 17.4333 145.92 16.9C147.137 16.3667 148.645 16.1 150.445 16.1C151.629 16.1 152.795 16.225 153.945 16.475C155.095 16.725 156.129 17.1083 157.045 17.625L155.27 21.9C154.404 21.4667 153.562 21.1417 152.745 20.925C151.945 20.7083 151.162 20.6 150.395 20.6C149.829 20.6 149.379 20.65 149.045 20.75C148.712 20.85 148.47 20.9833 148.32 21.15C148.187 21.3167 148.12 21.5 148.12 21.7C148.12 22 148.295 22.2417 148.645 22.425C148.995 22.5917 149.454 22.7333 150.02 22.85C150.604 22.9667 151.237 23.0917 151.92 23.225C152.62 23.3583 153.312 23.5417 153.995 23.775C154.679 24.0083 155.304 24.3167 155.87 24.7C156.454 25.0833 156.92 25.5833 157.27 26.2C157.62 26.8167 157.795 27.5833 157.795 28.5C157.795 29.5667 157.487 30.55 156.87 31.45C156.27 32.3333 155.37 33.05 154.17 33.6C152.97 34.1333 151.462 34.4 149.645 34.4ZM165.146 34L172.796 16.5H178.596L186.246 34H180.146L174.496 19.3H176.796L171.146 34H165.146ZM169.696 30.95L171.196 26.7H179.246L180.746 30.95H169.696ZM190.109 34V21.075H184.984V16.5H201.134V21.075H196.009V34H190.109ZM206.71 34V21.075H201.585V16.5H217.735V21.075H212.61V34H206.71ZM219.268 34V16.5H227.693C229.326 16.5 230.734 16.7667 231.918 17.3C233.118 17.8333 234.043 18.6 234.693 19.6C235.343 20.5833 235.668 21.75 235.668 23.1C235.668 24.45 235.343 25.6167 234.693 26.6C234.043 27.5667 233.118 28.3083 231.918 28.825C230.734 29.3417 229.326 29.6 227.693 29.6H222.543L225.168 27.175V34H219.268ZM229.743 34L225.443 27.625H231.693L236.043 34H229.743ZM225.168 27.825L222.543 25.15H227.318C228.134 25.15 228.734 24.9667 229.118 24.6C229.518 24.2333 229.718 23.7333 229.718 23.1C229.718 22.4667 229.518 21.9667 229.118 21.6C228.734 21.2333 228.134 21.05 227.318 21.05H222.543L225.168 18.375V27.825ZM235.996 34L243.646 16.5H249.446L257.096 34H250.996L245.346 19.3H247.646L241.996 34H235.996ZM240.546 30.95L242.046 26.7H250.096L251.596 30.95H240.546ZM266.843 34.4C265.443 34.4 264.143 34.1833 262.943 33.75C261.76 33.3 260.726 32.6667 259.843 31.85C258.976 31.0333 258.301 30.0667 257.818 28.95C257.335 27.8333 257.093 26.6 257.093 25.25C257.093 23.9 257.335 22.6667 257.818 21.55C258.301 20.4333 258.976 19.4667 259.843 18.65C260.726 17.8333 261.76 17.2083 262.943 16.775C264.143 16.325 265.443 16.1 266.843 16.1C268.56 16.1 270.076 16.4 271.393 17C272.726 17.6 273.826 18.4667 274.693 19.6L270.968 22.925C270.451 22.275 269.876 21.775 269.243 21.425C268.626 21.0583 267.926 20.875 267.143 20.875C266.526 20.875 265.968 20.975 265.468 21.175C264.968 21.375 264.535 21.6667 264.168 22.05C263.818 22.4333 263.543 22.9 263.343 23.45C263.143 23.9833 263.043 24.5833 263.043 25.25C263.043 25.9167 263.143 26.525 263.343 27.075C263.543 27.6083 263.818 28.0667 264.168 28.45C264.535 28.8333 264.968 29.125 265.468 29.325C265.968 29.525 266.526 29.625 267.143 29.625C267.926 29.625 268.626 29.45 269.243 29.1C269.876 28.7333 270.451 28.225 270.968 27.575L274.693 30.9C273.826 32.0167 272.726 32.8833 271.393 33.5C270.076 34.1 268.56 34.4 266.843 34.4ZM280.075 34V21.075H274.95V16.5H291.1V21.075H285.975V34H280.075ZM292.632 34V16.5H298.532V34H292.632ZM310.547 34.4C309.131 34.4 307.814 34.175 306.597 33.725C305.397 33.275 304.356 32.6417 303.472 31.825C302.589 30.9917 301.897 30.0167 301.397 28.9C300.914 27.7833 300.672 26.5667 300.672 25.25C300.672 23.9167 300.914 22.7 301.397 21.6C301.897 20.4833 302.589 19.5167 303.472 18.7C304.356 17.8667 305.397 17.225 306.597 16.775C307.814 16.325 309.131 16.1 310.547 16.1C311.981 16.1 313.297 16.325 314.497 16.775C315.697 17.225 316.739 17.8667 317.622 18.7C318.506 19.5167 319.189 20.4833 319.672 21.6C320.172 22.7 320.422 23.9167 320.422 25.25C320.422 26.5667 320.172 27.7833 319.672 28.9C319.189 30.0167 318.506 30.9917 317.622 31.825C316.739 32.6417 315.697 33.275 314.497 33.725C313.297 34.175 311.981 34.4 310.547 34.4ZM310.547 29.625C311.097 29.625 311.606 29.525 312.072 29.325C312.556 29.125 312.972 28.8417 313.322 28.475C313.689 28.0917 313.972 27.6333 314.172 27.1C314.372 26.55 314.472 25.9333 314.472 25.25C314.472 24.5667 314.372 23.9583 314.172 23.425C313.972 22.875 313.689 22.4167 313.322 22.05C312.972 21.6667 312.556 21.375 312.072 21.175C311.606 20.975 311.097 20.875 310.547 20.875C309.997 20.875 309.481 20.975 308.997 21.175C308.531 21.375 308.114 21.6667 307.747 22.05C307.397 22.4167 307.122 22.875 306.922 23.425C306.722 23.9583 306.622 24.5667 306.622 25.25C306.622 25.9333 306.722 26.55 306.922 27.1C307.122 27.6333 307.397 28.0917 307.747 28.475C308.114 28.8417 308.531 29.125 308.997 29.325C309.481 29.525 309.997 29.625 310.547 29.625ZM322.564 34V16.5H327.414L336.314 27.15H334.064V16.5H339.814V34H334.964L326.064 23.35H328.314V34H322.564ZM350.152 34V16.5H358.577C360.21 16.5 361.618 16.7667 362.802 17.3C364.002 17.8333 364.927 18.6 365.577 19.6C366.227 20.5833 366.552 21.75 366.552 23.1C366.552 24.45 366.227 25.6167 365.577 26.6C364.927 27.5833 364.002 28.35 362.802 28.9C361.618 29.4333 360.21 29.7 358.577 29.7H353.427L356.052 27.175V34H350.152ZM356.052 27.825L353.427 25.15H358.202C359.018 25.15 359.618 24.9667 360.002 24.6C360.402 24.2333 360.602 23.7333 360.602 23.1C360.602 22.4667 360.402 21.9667 360.002 21.6C359.618 21.2333 359.018 21.05 358.202 21.05H353.427L356.052 18.375V27.825ZM368.487 34V16.5H376.912C378.545 16.5 379.953 16.7667 381.137 17.3C382.337 17.8333 383.262 18.6 383.912 19.6C384.562 20.5833 384.887 21.75 384.887 23.1C384.887 24.45 384.562 25.6167 383.912 26.6C383.262 27.5667 382.337 28.3083 381.137 28.825C379.953 29.3417 378.545 29.6 376.912 29.6H371.762L374.387 27.175V34H368.487ZM378.962 34L374.662 27.625H380.912L385.262 34H378.962ZM374.387 27.825L371.762 25.15H376.537C377.353 25.15 377.953 24.9667 378.337 24.6C378.737 24.2333 378.937 23.7333 378.937 23.1C378.937 22.4667 378.737 21.9667 378.337 21.6C377.953 21.2333 377.353 21.05 376.537 21.05H371.762L374.387 18.375V27.825ZM392.514 23H400.314V27.25H392.514V23ZM392.914 29.55H401.664V34H387.114V16.5H401.339V20.95H392.914V29.55ZM391.614 15.075L394.914 11.075H400.289L395.364 15.075H391.614ZM409.436 23.95H417.136V28.4H409.436V23.95ZM409.836 34H403.936V16.5H418.161V20.95H409.836V34ZM425.425 23H433.225V27.25H425.425V23ZM425.825 29.55H434.575V34H420.025V16.5H434.25V20.95H425.825V29.55ZM424.525 15.075L427.825 11.075H433.2L428.275 15.075H424.525ZM436.846 34V16.5H445.271C446.904 16.5 448.313 16.7667 449.496 17.3C450.696 17.8333 451.621 18.6 452.271 19.6C452.921 20.5833 453.246 21.75 453.246 23.1C453.246 24.45 452.921 25.6167 452.271 26.6C451.621 27.5667 450.696 28.3083 449.496 28.825C448.313 29.3417 446.904 29.6 445.271 29.6H440.121L442.746 27.175V34H436.846ZM447.321 34L443.021 27.625H449.271L453.621 34H447.321ZM442.746 27.825L440.121 25.15H444.896C445.713 25.15 446.313 24.9667 446.696 24.6C447.096 24.2333 447.296 23.7333 447.296 23.1C447.296 22.4667 447.096 21.9667 446.696 21.6C446.313 21.2333 445.713 21.05 444.896 21.05H440.121L442.746 18.375V27.825ZM460.874 23H468.674V27.25H460.874V23ZM461.274 29.55H470.024V34H455.474V16.5H469.699V20.95H461.274V29.55ZM459.974 15.075L463.274 11.075H468.649L463.724 15.075H459.974ZM478.82 34.4C477.353 34.4 475.937 34.2333 474.57 33.9C473.203 33.5667 472.078 33.1333 471.195 32.6L473.095 28.3C473.928 28.7833 474.853 29.175 475.87 29.475C476.903 29.7583 477.903 29.9 478.87 29.9C479.437 29.9 479.878 29.8667 480.195 29.8C480.528 29.7167 480.77 29.6083 480.92 29.475C481.07 29.325 481.145 29.15 481.145 28.95C481.145 28.6333 480.97 28.3833 480.62 28.2C480.27 28.0167 479.803 27.8667 479.22 27.75C478.653 27.6167 478.028 27.4833 477.345 27.35C476.662 27.2 475.97 27.0083 475.27 26.775C474.587 26.5417 473.953 26.2333 473.37 25.85C472.803 25.4667 472.345 24.9667 471.995 24.35C471.645 23.7167 471.47 22.9333 471.47 22C471.47 20.9167 471.77 19.9333 472.37 19.05C472.987 18.15 473.895 17.4333 475.095 16.9C476.312 16.3667 477.82 16.1 479.62 16.1C480.803 16.1 481.97 16.225 483.12 16.475C484.27 16.725 485.303 17.1083 486.22 17.625L484.445 21.9C483.578 21.4667 482.737 21.1417 481.92 20.925C481.12 20.7083 480.337 20.6 479.57 20.6C479.003 20.6 478.553 20.65 478.22 20.75C477.887 20.85 477.645 20.9833 477.495 21.15C477.362 21.3167 477.295 21.5 477.295 21.7C477.295 22 477.47 22.2417 477.82 22.425C478.17 22.5917 478.628 22.7333 479.195 22.85C479.778 22.9667 480.412 23.0917 481.095 23.225C481.795 23.3583 482.487 23.5417 483.17 23.775C483.853 24.0083 484.478 24.3167 485.045 24.7C485.628 25.0833 486.095 25.5833 486.445 26.2C486.795 26.8167 486.97 27.5833 486.97 28.5C486.97 29.5667 486.662 30.55 486.045 31.45C485.445 32.3333 484.545 33.05 483.345 33.6C482.145 34.1333 480.637 34.4 478.82 34.4ZM496.221 34V16.5H504.846C506.796 16.5 508.513 16.8583 509.996 17.575C511.479 18.275 512.638 19.275 513.471 20.575C514.304 21.875 514.721 23.425 514.721 25.225C514.721 27.0417 514.304 28.6083 513.471 29.925C512.638 31.225 511.479 32.2333 509.996 32.95C508.513 33.65 506.796 34 504.846 34H496.221ZM502.121 29.4H504.596C505.429 29.4 506.154 29.2417 506.771 28.925C507.404 28.6083 507.896 28.1417 508.246 27.525C508.596 26.8917 508.771 26.125 508.771 25.225C508.771 24.3417 508.596 23.5917 508.246 22.975C507.896 22.3583 507.404 21.8917 506.771 21.575C506.154 21.2583 505.429 21.1 504.596 21.1H502.121V29.4ZM525.25 34.4C522.567 34.4 520.475 33.675 518.975 32.225C517.475 30.775 516.725 28.7417 516.725 26.125V16.5H522.625V25.95C522.625 27.2833 522.867 28.2333 523.35 28.8C523.834 29.35 524.484 29.625 525.3 29.625C526.134 29.625 526.784 29.35 527.25 28.8C527.734 28.2333 527.975 27.2833 527.975 25.95V16.5H533.775V26.125C533.775 28.7417 533.025 30.775 531.525 32.225C530.025 33.675 527.934 34.4 525.25 34.4ZM543.975 34V16.5H552.4C554.033 16.5 555.441 16.7667 556.625 17.3C557.825 17.8333 558.75 18.6 559.4 19.6C560.05 20.5833 560.375 21.75 560.375 23.1C560.375 24.45 560.05 25.6167 559.4 26.6C558.75 27.5833 557.825 28.35 556.625 28.9C555.441 29.4333 554.033 29.7 552.4 29.7H547.25L549.875 27.175V34H543.975ZM549.875 27.825L547.25 25.15H552.025C552.841 25.15 553.441 24.9667 553.825 24.6C554.225 24.2333 554.425 23.7333 554.425 23.1C554.425 22.4667 554.225 21.9667 553.825 21.6C553.441 21.2333 552.841 21.05 552.025 21.05H547.25L549.875 18.375V27.825ZM559.531 34L567.181 16.5H572.981L580.631 34H574.531L568.881 19.3H571.181L565.531 34H559.531ZM564.081 30.95L565.581 26.7H573.631L575.131 30.95H564.081ZM581.572 34V16.5H589.997C591.631 16.5 593.039 16.7667 594.222 17.3C595.422 17.8333 596.347 18.6 596.997 19.6C597.647 20.5833 597.972 21.75 597.972 23.1C597.972 24.45 597.647 25.6167 596.997 26.6C596.347 27.5667 595.422 28.3083 594.222 28.825C593.039 29.3417 591.631 29.6 589.997 29.6H584.847L587.472 27.175V34H581.572ZM592.047 34L587.747 27.625H593.997L598.347 34H592.047ZM587.472 27.825L584.847 25.15H589.622C590.439 25.15 591.039 24.9667 591.422 24.6C591.822 24.2333 592.022 23.7333 592.022 23.1C592.022 22.4667 591.822 21.9667 591.422 21.6C591.039 21.2333 590.439 21.05 589.622 21.05H584.847L587.472 18.375V27.825ZM609.25 34.4C607.85 34.4 606.55 34.1833 605.35 33.75C604.167 33.3 603.134 32.6667 602.25 31.85C601.384 31.0333 600.709 30.0667 600.225 28.95C599.742 27.8333 599.5 26.6 599.5 25.25C599.5 23.9 599.742 22.6667 600.225 21.55C600.709 20.4333 601.384 19.4667 602.25 18.65C603.134 17.8333 604.167 17.2083 605.35 16.775C606.55 16.325 607.85 16.1 609.25 16.1C610.967 16.1 612.484 16.4 613.8 17C615.134 17.6 616.234 18.4667 617.1 19.6L613.375 22.925C612.859 22.275 612.284 21.775 611.65 21.425C611.034 21.0583 610.334 20.875 609.55 20.875C608.934 20.875 608.375 20.975 607.875 21.175C607.375 21.375 606.942 21.6667 606.575 22.05C606.225 22.4333 605.95 22.9 605.75 23.45C605.55 23.9833 605.45 24.5833 605.45 25.25C605.45 25.9167 605.55 26.525 605.75 27.075C605.95 27.6083 606.225 28.0667 606.575 28.45C606.942 28.8333 607.375 29.125 607.875 29.325C608.375 29.525 608.934 29.625 609.55 29.625C610.334 29.625 611.034 29.45 611.65 29.1C612.284 28.7333 612.859 28.225 613.375 27.575L617.1 30.9C616.234 32.0167 615.134 32.8833 613.8 33.5C612.484 34.1 610.967 34.4 609.25 34.4ZM624.399 34L632.049 16.5H637.849L645.499 34H639.399L633.749 19.3H636.049L630.399 34H624.399ZM628.949 30.95L630.449 26.7H638.499L639.999 30.95H628.949ZM652.966 34.4C651.499 34.4 650.082 34.2333 648.716 33.9C647.349 33.5667 646.224 33.1333 645.341 32.6L647.241 28.3C648.074 28.7833 648.999 29.175 650.016 29.475C651.049 29.7583 652.049 29.9 653.016 29.9C653.582 29.9 654.024 29.8667 654.341 29.8C654.674 29.7167 654.916 29.6083 655.066 29.475C655.216 29.325 655.291 29.15 655.291 28.95C655.291 28.6333 655.116 28.3833 654.766 28.2C654.416 28.0167 653.949 27.8667 653.366 27.75C652.799 27.6167 652.174 27.4833 651.491 27.35C650.807 27.2 650.116 27.0083 649.416 26.775C648.732 26.5417 648.099 26.2333 647.516 25.85C646.949 25.4667 646.491 24.9667 646.141 24.35C645.791 23.7167 645.616 22.9333 645.616 22C645.616 20.9167 645.916 19.9333 646.516 19.05C647.132 18.15 648.041 17.4333 649.241 16.9C650.457 16.3667 651.966 16.1 653.766 16.1C654.949 16.1 656.116 16.225 657.266 16.475C658.416 16.725 659.449 17.1083 660.366 17.625L658.591 21.9C657.724 21.4667 656.882 21.1417 656.066 20.925C655.266 20.7083 654.482 20.6 653.716 20.6C653.149 20.6 652.699 20.65 652.366 20.75C652.032 20.85 651.791 20.9833 651.641 21.15C651.507 21.3167 651.441 21.5 651.441 21.7C651.441 22 651.616 22.2417 651.966 22.425C652.316 22.5917 652.774 22.7333 653.341 22.85C653.924 22.9667 654.557 23.0917 655.241 23.225C655.941 23.3583 656.632 23.5417 657.316 23.775C657.999 24.0083 658.624 24.3167 659.191 24.7C659.774 25.0833 660.241 25.5833 660.591 26.2C660.941 26.8167 661.116 27.5833 661.116 28.5C661.116 29.5667 660.807 30.55 660.191 31.45C659.591 32.3333 658.691 33.05 657.491 33.6C656.291 34.1333 654.782 34.4 652.966 34.4ZM666.427 34V21.075H661.302V16.5H677.452V21.075H672.327V34H666.427ZM684.385 23H692.185V27.25H684.385V23ZM684.785 29.55H693.535V34H678.985V16.5H693.21V20.95H684.785V29.55ZM683.485 15.075L686.785 11.075H692.16L687.235 15.075H683.485ZM695.806 34V16.5H704.231C705.864 16.5 707.273 16.7667 708.456 17.3C709.656 17.8333 710.581 18.6 711.231 19.6C711.881 20.5833 712.206 21.75 712.206 23.1C712.206 24.45 711.881 25.6167 711.231 26.6C710.581 27.5667 709.656 28.3083 708.456 28.825C707.273 29.3417 705.864 29.6 704.231 29.6H699.081L701.706 27.175V34H695.806ZM706.281 34L701.981 27.625H708.231L712.581 34H706.281ZM701.706 27.825L699.081 25.15H703.856C704.673 25.15 705.273 24.9667 705.656 24.6C706.056 24.2333 706.256 23.7333 706.256 23.1C706.256 22.4667 706.056 21.9667 705.656 21.6C705.273 21.2333 704.673 21.05 703.856 21.05H699.081L701.706 18.375V27.825ZM714.434 34V16.5H720.334V34H714.434ZM721.549 34L729.349 23.1L729.324 27.225L721.774 16.5H728.399L732.799 23L729.974 23.025L734.274 16.5H740.624L733.074 27V22.9L740.999 34H734.249L729.849 27.2L732.574 27.175L728.274 34H721.549Z" fill="white"></path>
</svg>
