<svg width="65" height="65" viewBox="0 0 65 65" fill="none" xmlns="http://www.w3.org/2000/svg">
<path fill-rule="evenodd" clip-rule="evenodd" d="M17.3409 8.87002C21.0548 9.6552 24.1428 7.76873 27.1256 4.94292C30.0384 2.18339 33.2836 2.33675 36.7172 5.27895C39.368 7.54949 42.0821 8.46921 45.5878 8.21454C50.2449 7.87569 52.6304 9.86303 53.2981 14.4958C53.7842 17.8689 55.3072 20.2531 57.9608 22.3015C62.1342 25.5212 62.6671 27.9701 60.0583 32.5412C58.3285 35.571 57.9813 38.4611 58.7671 41.8372C59.8224 46.3776 58.31 49.0718 53.9268 50.6163C50.6568 51.768 48.506 53.6787 46.9724 56.8335C44.906 61.0873 42.0893 62.0783 37.6667 60.5171C34.5595 59.4201 31.7091 59.4054 28.5709 60.6815C23.4683 62.7568 20.9823 61.7976 18.2665 56.9716C16.8719 54.4937 14.9957 53.0578 12.3383 52.1796C6.44141 50.2298 5.20342 48.1292 6.24819 41.8954C6.67753 39.3363 6.22391 37.222 4.81741 35.0352C1.39652 29.7168 1.69496 27.2116 6.49582 23.2615C9.05616 21.1546 9.66517 18.5079 10.0893 15.5417C10.6786 11.4162 12.9644 9.25634 17.3409 8.87002Z" fill="#7C9ED9"/>
<path d="M38.9323 43.386L27.5391 44.5835C27.4966 44.5879 27.4402 44.5617 27.3699 44.5047C27.2973 44.4265 27.2142 44.3495 27.1204 44.2735C27.0244 44.1764 26.939 44.0781 26.8642 43.9787C26.8106 43.8771 26.7815 43.805 26.7771 43.7626C26.7659 43.6565 26.8011 43.4812 26.8827 43.2367C26.9855 42.9899 27.0726 42.7984 27.1441 42.6622L28.0455 40.83C28.6464 39.6085 29.0553 38.3964 29.2721 37.1938C29.5102 35.989 29.5589 34.7183 29.4185 33.3816C29.2735 32.0026 28.9404 30.772 28.4191 29.6899C27.9168 28.5843 27.3017 27.4263 26.5738 26.2157L26.5052 25.869C26.4383 25.2325 26.7337 24.8797 27.3914 24.8106L33.6609 24.1516C33.9579 24.1204 34.1611 24.217 34.2705 24.4415C34.3989 24.6425 34.4731 24.8385 34.4932 25.0294L35.2425 32.1582C35.3361 33.0493 35.5146 33.9314 35.778 34.8047C36.0604 35.6545 36.3841 36.4892 36.7491 37.3089C37.1353 38.1263 37.5629 38.9287 38.0318 39.716C38.5006 40.5033 38.9779 41.2683 39.4635 42.0109L39.4802 42.17C39.5114 42.4671 39.4617 42.7083 39.331 42.8936C39.2216 43.0767 39.0887 43.2408 38.9323 43.386Z" fill="#F9F3DE"/>
</svg>
