<svg width="65" height="65" viewBox="0 0 65 65" fill="none" xmlns="http://www.w3.org/2000/svg">
<path fill-rule="evenodd" clip-rule="evenodd" d="M17.3409 8.87197C21.0548 9.65715 24.1428 7.77068 27.1256 4.94487C30.0384 2.18535 33.2836 2.3387 36.7172 5.2809C39.368 7.55144 42.0821 8.47117 45.5878 8.2165C50.2449 7.87764 52.6304 9.86498 53.2981 14.4977C53.7842 17.8709 55.3072 20.255 57.9608 22.3034C62.1342 25.5232 62.6671 27.9721 60.0583 32.5432C58.3285 35.5729 57.9814 38.4631 58.7671 41.8391C59.8224 46.3795 58.31 49.0737 53.9268 50.6183C50.6568 51.7699 48.506 53.6807 46.9725 56.8355C44.906 61.0893 42.0893 62.0803 37.6667 60.5191C34.5595 59.4221 31.7091 59.4073 28.5709 60.6835C23.4683 62.7588 20.9823 61.7995 18.2665 56.9736C16.8719 54.4957 14.9957 53.0598 12.3383 52.1816C6.44141 50.2317 5.20342 48.1311 6.24819 41.8973C6.67753 39.3382 6.22391 37.224 4.81741 35.0371C1.39652 29.7188 1.69496 27.2136 6.49582 23.2635C9.05616 21.1566 9.66517 18.5099 10.0893 15.5437C10.6786 11.4182 12.9644 9.25829 17.3409 8.87197Z" fill="#7C9ED9"/>
<path d="M41.9428 40.2078C41.9606 40.7851 41.8516 41.2792 41.6159 41.6901C41.378 42.0797 41.1005 42.3985 40.7833 42.6463C40.4639 42.873 40.1602 43.0443 39.8721 43.1604C39.6052 43.2743 39.4505 43.3334 39.4081 43.3379L29.0014 44.4317C28.1103 44.5253 27.3773 44.3879 26.8023 44.0193C26.2462 43.6273 25.8086 43.137 25.4893 42.5485C25.1701 41.9599 24.9312 41.3201 24.7727 40.6289C24.6355 39.9354 24.5379 39.3129 24.4799 38.7612C24.3394 37.4246 24.439 36.3309 24.7786 35.48C25.1182 34.6292 25.6241 33.9325 26.2964 33.3899C26.9877 32.8239 27.7985 32.374 28.7287 32.0403C29.6779 31.6831 30.6929 31.3405 31.7739 31.0124C31.8778 30.98 32.024 30.9432 32.2128 30.9019C32.4227 30.8584 32.5796 30.8204 32.6834 30.7881C33.1301 30.548 33.4769 30.2756 33.7237 29.9708C33.9705 29.666 34.0683 29.2696 34.017 28.7817C33.9568 28.2088 33.6693 27.8207 33.1546 27.6174C32.6376 27.3929 32.1139 27.3085 31.5835 27.3643L31.138 27.4111C30.9046 27.4356 30.6958 27.4897 30.5115 27.5735C30.3485 27.655 30.2826 27.8442 30.3138 28.1412L31.1158 29.9554L31.1258 30.0508C31.0923 30.1402 31.0281 30.2434 30.9332 30.3607C30.8595 30.4757 30.8014 30.5354 30.7589 30.5399L25.6988 31.0717C25.4018 31.1029 25.1997 31.0169 25.0925 30.8137C25.0066 30.6082 24.9536 30.41 24.9335 30.219L24.8265 29.2006C24.7908 28.8612 24.8121 28.4514 24.8903 27.9712C24.9875 27.4676 25.1093 26.9936 25.2557 26.5492C25.402 26.1048 25.5657 25.723 25.7466 25.4037C25.9276 25.0843 26.0817 24.918 26.209 24.9046L35.0244 23.978C35.5973 23.9178 36.179 23.9425 36.7697 24.052C37.3794 24.1381 37.9321 24.2945 38.4278 24.5213C38.9236 24.748 39.3401 25.0367 39.6772 25.3874C40.0356 25.7359 40.2488 26.1317 40.3169 26.5751L40.7584 30.7759C40.7629 30.8184 40.74 30.9066 40.6897 31.0406C40.6372 31.1533 40.592 31.2332 40.554 31.2801C40.2044 31.8316 39.7258 32.2788 39.1183 32.6215C38.5086 32.943 37.8402 33.217 37.1133 33.4436C36.4053 33.6467 35.6845 33.8297 34.9508 33.9926C34.2384 34.1533 33.5941 34.3497 33.0178 34.5819C32.4394 34.7928 31.9748 35.0669 31.6241 35.4041C31.2947 35.739 31.1589 36.1823 31.2169 36.7339C31.2481 37.0309 31.3681 37.2543 31.5769 37.404C31.7857 37.5536 32.023 37.6681 32.2887 37.7474C32.5757 37.8245 32.8699 37.8687 33.1714 37.8799C33.4919 37.8677 33.7688 37.8493 34.0022 37.8248C34.1295 37.8114 34.2769 37.7852 34.4444 37.7461C34.6309 37.6836 34.8045 37.601 34.9653 37.4983C35.1474 37.3934 35.2859 37.2823 35.3808 37.165C35.4947 37.0244 35.5416 36.8585 35.5216 36.6676C35.5015 36.4766 35.4061 36.2829 35.2352 36.0863C35.0622 35.8686 34.9254 35.6899 34.825 35.5503C34.825 35.5503 34.8322 35.5174 34.8467 35.4515C34.8803 35.3621 34.9992 35.1673 35.2036 34.867L40.7093 34.2883C41.0063 34.2571 41.1989 34.3548 41.2871 34.5815C41.373 34.787 41.4261 34.9852 41.4461 35.1761L41.5264 35.9399C41.5554 36.2157 41.5944 36.587 41.6435 37.0538C41.7115 37.4971 41.7712 37.9628 41.8225 38.4507C41.8604 38.8114 41.8855 39.152 41.8977 39.4725C41.9289 39.7695 41.9439 40.0146 41.9428 40.2078Z" fill="#F9F3DE"/>
</svg>
