<svg width="65" height="65" viewBox="0 0 65 65" fill="none" xmlns="http://www.w3.org/2000/svg">
<path fill-rule="evenodd" clip-rule="evenodd" d="M17.3409 8.87197C21.0548 9.65715 24.1428 7.77068 27.1256 4.94487C30.0384 2.18535 33.2836 2.3387 36.7172 5.2809C39.368 7.55144 42.0821 8.47117 45.5878 8.2165C50.2449 7.87764 52.6304 9.86498 53.2981 14.4977C53.7842 17.8709 55.3072 20.255 57.9608 22.3034C62.1342 25.5232 62.6671 27.9721 60.0583 32.5432C58.3285 35.5729 57.9814 38.4631 58.7671 41.8391C59.8224 46.3795 58.31 49.0737 53.9268 50.6183C50.6568 51.7699 48.506 53.6807 46.9725 56.8355C44.906 61.0893 42.0893 62.0803 37.6667 60.5191C34.5595 59.4221 31.7091 59.4073 28.5709 60.6835C23.4683 62.7588 20.9823 61.7995 18.2665 56.9736C16.8719 54.4957 14.9957 53.0598 12.3383 52.1816C6.44141 50.2317 5.20342 48.1311 6.24819 41.8973C6.67753 39.3382 6.22391 37.224 4.81741 35.0371C1.39652 29.7188 1.69496 27.2136 6.49582 23.2635C9.05616 21.1566 9.66517 18.5099 10.0893 15.5437C10.6786 11.4182 12.9644 9.25829 17.3409 8.87197Z" fill="#7C9ED9"/>
<path d="M31.4143 38.4838C31.966 38.4258 32.421 38.3673 32.7794 38.3081C33.1569 38.2256 33.4461 38.1201 33.6471 37.9917C33.8671 37.8399 34.0095 37.664 34.0743 37.4642C34.1369 37.2431 34.1492 36.9522 34.1113 36.5915C34.0779 36.2733 33.9741 35.8981 33.7999 35.4659C33.4672 35.1577 33.0882 34.9186 32.6628 34.7488C32.2586 34.5768 31.8019 34.5176 31.2927 34.5711L31.4099 34.4622L26.6999 34.9573C26.4877 34.9796 26.2828 34.9689 26.0852 34.9253C25.8853 34.8606 25.7709 34.6902 25.7419 34.4144L25.5144 32.2504C25.4899 32.017 25.5167 31.864 25.5949 31.7914C25.6709 31.6976 25.7702 31.6228 25.8931 31.567L30.5077 31.082C30.855 30.9168 31.1939 30.7739 31.5244 30.6534C31.874 30.5094 32.1788 30.3486 32.439 30.1711C32.6992 29.9936 32.9031 29.7899 33.0505 29.5599C33.1979 29.3299 33.2527 29.0345 33.2148 28.6739L33.1947 28.4829C33.1702 28.2495 33.1278 28.0502 33.0675 27.8849C33.0284 27.7174 32.8833 27.5611 32.6321 27.4159C32.545 27.4036 32.3954 27.4086 32.1832 27.4309C31.99 27.4297 31.8616 27.4325 31.798 27.4392C31.7343 27.4459 31.5964 27.4604 31.3842 27.4827C31.1698 27.4838 30.9141 27.4999 30.6171 27.5311C30.3201 27.5623 30.0666 27.5997 29.8566 27.6432C29.6679 27.6845 29.353 27.7498 28.9119 27.839L28.9354 28.0618L29.4226 29.3298L29.4326 29.4253C29.3991 29.5146 29.3349 29.6179 29.2399 29.7352C29.1662 29.8502 29.1081 29.9099 29.0657 29.9143L23.7828 30.4696C23.4858 30.5008 23.2837 30.4148 23.1765 30.2116C23.0906 30.0061 23.0376 29.8079 23.0175 29.6169L22.8235 27.7711C22.7923 27.4741 22.8671 27.1659 23.0481 26.8466C23.229 26.5272 23.4345 26.2375 23.6646 25.9773C23.9159 25.715 24.161 25.4962 24.4 25.3209C24.639 25.1456 24.8115 25.0524 24.9176 25.0412L36.3109 23.8438L38.2018 24.3851C38.5814 24.7313 38.8839 25.1607 39.1094 25.6733C39.3327 26.1646 39.4666 26.6225 39.5112 27.0468C39.6182 28.0652 39.4975 28.9574 39.149 29.7233C38.8217 30.487 38.1683 31.21 37.1889 31.8921C37.9504 32.1981 38.6086 32.6438 39.1635 33.229C39.7396 33.812 40.2236 34.4368 40.6154 35.1035C41.0072 35.7702 41.3131 36.4352 41.533 37.0985C41.7506 37.7406 41.8828 38.2844 41.9297 38.73C41.9631 39.0482 41.9524 39.4569 41.8977 39.9561C41.8618 40.4317 41.7412 40.9163 41.5356 41.4099C41.3301 41.9034 41.0118 42.3444 40.5807 42.7329C40.1686 43.098 39.6019 43.3184 38.8805 43.3943L26.4371 44.7021C26.3946 44.7066 26.2606 44.6563 26.0351 44.5513C25.8285 44.4229 25.5857 44.2553 25.3066 44.0487C25.0252 43.8209 24.75 43.5495 24.4809 43.2346C24.2331 42.9174 24.0562 42.5606 23.9501 42.1642C23.8553 41.8738 23.7649 41.4221 23.679 40.8091C23.5931 40.196 23.5234 39.6349 23.4699 39.1257L23.3762 38.2346L23.296 37.4708C23.2759 37.2799 23.2865 37.075 23.3279 36.8561C23.367 36.6161 23.5351 36.4804 23.8321 36.4492L29.4333 35.8605C29.4757 35.856 29.5555 35.9013 29.6728 35.9962C29.79 36.0911 29.881 36.2425 29.9457 36.4502C29.8765 36.6076 29.7586 36.813 29.5922 37.0665C29.4448 37.2965 29.3811 37.507 29.4012 37.6979C29.4212 37.8889 29.491 38.0424 29.6105 38.1586C29.7489 38.2513 29.9074 38.3311 30.0861 38.3982C30.286 38.463 30.473 38.5077 30.6472 38.5322C30.8404 38.5334 31.0006 38.5273 31.1279 38.5139L31.4143 38.4838Z" fill="#F9F3DE"/>
</svg>
