<svg height="638pt" preserveAspectRatio="xMidYMid meet" viewBox="0 0 638 638" width="638pt" xmlns="http://www.w3.org/2000/svg"><g transform="matrix(.1 0 0 -.1 0 638)"><path d="m0 3190v-3190h3190 3190v3190 3190h-3190-3190zm1470 2700c0-13 7-20 20-20 11 0 20-7 20-15s7-15 15-15 15-9 15-20c0-16 7-20 35-20 24 0 35-5 35-15 0-8 7-15 15-15 9 0 18-6 21-14s19-18 35-21c16-4 29-13 29-21s9-14 20-14 20-7 20-15 7-15 15-15 15-9 15-20c0-16 7-20 35-20 24 0 35-5 35-15 0-8 6-15 14-15 7 0 16-9 19-20s12-20 21-20c13 0 16 11 16 50 0 38 4 50 15 50 8 0 15-7 15-15s9-15 20-15c16 0 20-7 20-35 0-24 5-35 15-35 8 0 15-8 15-19 0-25 17-37 63-45 23-4 37-13 37-21s9-15 20-15c13 0 20-7 20-20 0-11 7-20 15-20 10 0 15-10 15-31 0-22 5-32 20-36 14-4 20-14 20-34 0-19 5-29 15-29s15-11 15-35c0-23 5-35 14-35 15 0 26-42 26-101 0-28 4-39 15-39 13 0 15-77 15-635v-635h35c28 0 35-4 35-20s7-20 35-20c24 0 35-5 35-15 0-8 6-15 14-15s16-7 20-15c5-13 56-15 379-15 284 0 376 3 386 13 11 10 13 9 7-3-5-9-2-8 7 3 13 16 57 17 651 17 559 0 636 2 636 15 0 8 7 15 15 15s15 9 15 20 7 20 15 20 15 6 15 14c0 7 9 16 20 19s20 12 20 21 7 16 15 16 15 6 15 14c0 9 16 15 46 19 26 2 50 11 55 18 5 9 33 13 91 14h83l3-32c3-29 7-33 34-33 21 0 31-6 35-20 4-15 14-20 39-20 24 0 34-5 34-15s10-15 29-15c20 0 30-6 34-20 3-11 12-20 21-20s16-7 16-15 7-15 15-15 15-7 15-15-7-15-15-15c-10 0-15-11-15-35s5-35 15-35c8 0 15-9 15-20s6-20 14-20c15 0 26-30 26-72 0-18 5-28 15-28s15-10 15-29c0-31-18-41-72-41-25 0-28-4-28-35 0-24 5-35 15-35 8 0 15-7 15-15s-7-15-15-15c-12 0-15-18-15-105v-105h-37-38v-82c0-56-4-83-12-85-9-3-13-26-13-66 0-76-8-107-26-107-11 0-14-17-14-70 0-55-3-70-15-70-8 0-17-14-21-35-3-20-12-35-20-35-10 0-14-14-14-50s-4-50-14-50c-8 0-17-15-20-35-4-21-13-35-21-35-11 0-15-13-15-50 0-35-4-50-13-50-10 0-16-25-20-98-8-130 2-282 18-282 7 0 15-19 18-47 3-27 11-50 21-55 11-6 16-23 16-58 0-38 4-50 15-50 12 0 15-19 15-115 0-90-3-115-13-115-11 0-15-41-21-192-3-112-10-194-16-196-13-5-13-62 0-62 6 0 10-16 10-35s-4-35-10-35c-5 0-10-24-10-52 0-29-3-77-6-105-6-50-8-53-35-53-24 0-29-5-35-35-3-20-12-35-20-35-10 0-14-14-14-50 0-38-4-50-15-50-8 0-15 7-15 15 0 12-14 15-70 15-52 0-72 4-76 14-3 8-19 18-35 21-27 6-29 10-29 56v49h49 49l4 80c2 58 7 83 18 90 21 13 22 276 2 289-8 5-16 38-19 84-4 55-10 77-19 77s-14 11-14 29c0 20-6 30-20 34-11 3-20 12-20 21s-7 16-15 16c-9 0-15 9-15 21 0 17-4 20-22 15-13-3-29-6-35-6-9 0-13-16-13-45 0-32-4-45-14-45-15 0-26-42-26-102 0-22-7-46-15-54-12-13-15-50-15-210 0-166-2-194-15-194-8 0-15-6-15-13s-9-20-20-30c-11-9-20-26-20-37s-7-20-15-20c-11 0-15-12-15-50v-50h-65c-51 0-65 3-65 15 0 8-7 15-16 15-19 0-64 40-64 58 0 6-6 12-14 12-13 0-29 48-19 62 2 5 17 8 33 8 23 0 30 5 35 30 4 16 13 30 21 30 11 0 14 18 14 86 0 77 2 86 20 91 17 5 20 14 20 59 0 41 4 54 15 54 13 0 15 24 15 155s-2 155-15 155c-10 0-15 10-15 30 0 23-4 30-20 30s-20 7-20 35c0 24-5 35-15 35-8 0-15 6-15 14 0 7-9 16-20 19s-20 12-20 21-7 16-15 16-15 7-15 15-7 15-15 15-15 9-15 20c0 13-7 20-20 20s-20 7-20 20c0 11-7 20-15 20-10 0-15 10-15 30s5 30 15 30c8 0 15-7 15-15s7-15 15-15c11 0 15 12 15 50s-4 50-15 50c-8 0-15 7-15 16s-9 18-20 21-20 9-20 14-7 9-15 9-15-7-15-15-7-15-15-15-15 9-15 20-7 20-15 20-15 7-15 15-9 15-20 15c-17 0-20 7-20 50 0 32-5 52-14 57-8 5-16 27-18 53l-3 45-100 3c-76 2-102 0-110-11-6-9-40-17-88-21-56-6-77-12-77-22 0-11-18-14-85-14s-87-3-91-15c-5-11-23-15-79-15-91 0-135-9-135-26 0-8-7-14-15-14s-15 7-15 15-6 15-14 15c-19 0-29-49-20-94 5-29 3-36-10-36-12 0-16-9-16-35v-35h50 50v-40c0-29 4-40 15-40s15-12 15-45 4-45 15-45c8 0 15-9 15-20s-4-20-10-20c-5 0-10-7-10-15s4-15 9-15 13-40 17-90c5-66 10-90 20-90 11 0 14-27 14-135 0-113 2-135 15-135 10 0 15-10 15-27 0-43 11-73 26-73 9 0 14-12 14-35 0-24 5-35 15-35s15-11 15-35c0-23 5-35 14-35 16 0 27-47 19-79-3-11-12-21-19-21-8 0-14-9-14-20s-7-20-15-20c-10 0-15-10-15-30 0-17-7-33-17-38-12-7-18-27-21-71-4-60-5-61-33-61-19 0-29 5-29 15s-11 15-35 15-35 5-35 15c0 8-14 17-35 21-20 3-35 12-35 20s-6 14-14 14c-15 0-26 30-26 73 0 20 5 27 20 27 11 0 20 7 20 15s6 15 14 15c10 0 15 24 18 102 2 67 8 103 16 106 14 4 16 32 3 32-5 0-12 18-16 40-4 25-12 40-21 40s-14 12-14 35c0 24-5 35-14 35-8 0-17 14-21 30-4 17-13 30-21 30s-14 9-14 20-7 20-15 20c-10 0-15 10-15 31 0 22-5 32-20 36-11 3-20 14-20 24 0 11-7 19-15 19-10 0-15 10-15 30 0 27-3 30-34 30-33 0-33-1-39-50-3-28-13-57-22-66-8-9-15-33-15-55 0-27-4-39-14-39-11 0-15-39-19-203-2-111-4-224-4-251 0-26-4-51-10-55-5-3-12-14-16-23-3-10-13-18-22-18-8 0-15-7-15-15s-9-15-20-15-20-7-20-15-7-15-15-15c-12 0-15-13-15-56v-57l-46 6c-26 2-50 10-54 17s-28 15-54 17c-30 4-46 10-46 19 0 8-9 14-20 14-34 0-22 27 15 34 21 4 35 13 35 21 0 10 11 15 35 15h35v85c0 69 3 85 15 85 10 0 15 10 15 28 0 44 11 72 28 72 13 0 14 14 9 102-4 57-11 104-16 106-6 2-13 26-17 53-4 29-12 49-19 49-8 0-14 22-17 66-2 39-9 69-17 73-8 5-15 36-18 75-4 46-10 66-19 66-11 0-14 20-14 85 0 66-3 85-14 85-10 0-16 20-21 68-4 37-12 70-18 74-7 4-13 42-15 88-3 60-8 80-18 80-9 0-14 12-14 35 0 28-4 35-20 35-13 0-20 7-20 18 0 15-9 18-61 17-47 0-62 4-70 17-7 13-23 18-54 18-33 0-45 4-45 15 0 8-8 15-18 15s-25 9-35 20c-9 11-26 20-37 20-16 0-20 7-20 30 0 20-5 30-15 30-9 0-18 6-21 14s-19 18-34 21c-21 5-30 14-35 35-3 15-13 31-21 34s-14 12-14 21c0 8-6 15-12 15-22 0-58 47-58 74 0 16-5 26-15 26-11 0-15 11-15 35 0 22-6 38-14 41-10 4-17 28-21 70-5 44-12 64-21 64s-14 12-14 35c0 24-5 35-15 35s-16 16-21 50c-4 32-11 50-20 50-8 0-14 9-14 20s-6 20-14 20c-9 0-16 18-20 50-5 34-11 50-21 50-11 0-15 13-15 50 0 38-4 50-15 50s-15 12-15 50c0 35-5 52-16 58-14 8-17 36-21 191-4 158-2 182 11 187 22 9 21 64-1 64-15 0-16 19-9 222 4 146 10 225 18 229 7 5 13 62 16 158 4 119 8 151 18 151 9 0 14 12 14 35 0 24-5 35-15 35-11 0-15 12-15 50s4 50 15 50c10 0 15 10 15 34 0 32-1 34-47 39-27 3-50 11-55 21-6 11-23 16-58 16-38 0-50 4-50 15 0 12-14 15-65 15s-65-3-65-15c0-10-11-15-35-15-32 0-35 2-35 30 0 26 4 30 28 30 42 0 72 11 72 26 0 8 9 14 20 14s20 7 20 15c0 11-12 15-50 15s-50-4-50-15c0-10-10-15-32-15-49 0-78-10-78-27 0-10-9-13-32-11-29 3-33 7-36 36-3 27 0 32 17 32 14 0 21 6 21 20 0 11 7 20 15 20s15 7 15 15 9 15 20 15c16 0 20 7 20 35 0 33-2 35-35 35-24 0-35 5-35 15 0 8 7 15 15 15s15 9 15 20c0 16 7 20 35 20 24 0 35 5 35 14 0 8 13 17 29 21 16 3 32 13 35 21s19 14 36 14c20 0 30 5 30 15 0 11 11 15 35 15 22 0 38 6 41 14s19 18 35 21c16 4 29 13 29 21s9 14 20 14 20 7 20 15 14 17 35 21c20 3 35 12 35 20 0 9 12 14 35 14 28 0 35 4 35 20 0 11 7 20 15 20 11 0 15 12 15 50s-4 50-15 50c-8 0-15 7-15 15s-9 15-20 15-20 7-20 15-14 17-35 21c-20 3-35 12-35 20s-7 14-15 14-15 6-15 14c0 7-9 16-20 19s-20 12-20 21-7 16-15 16c-11 0-15 11-15 36 0 34 1 36 28 29 15-3 31-13 35-21s17-14 27-14c11 0 20-7 20-15 0-11 12-15 50-15 28 0 50 3 50 8-1 24-14 52-26 52-8 0-14 9-14 20s-6 20-14 20-17 15-20 35c-4 19-11 35-16 35-17 0-11 28 8 33 34 9 42 7 42-13zm2580-3990c0-13-7-20-20-20s-20 7-20 20 7 20 20 20 20-7 20-20z"/><path d="m1470 5270c0-5-7-10-15-10-9 0-19-8-22-17-4-10-12-22-19-28-16-13-6-65 12-65 8 0 14-10 14-21 0-20 4-21 47-16 26 3 49 10 51 16s19 13 38 17c33 6 34 7 34 55 0 37-4 49-15 49-9 0-18 7-21 15-11 27-34 17-34-15 0-24-4-30-21-30-18 0-20 4-14 30s4 30-14 30c-12 0-21-4-21-10z"/><path d="m4840 3580c0-11 6-20 14-20s16-7 20-15c3-8 12-15 21-15 8 0 15-7 15-15s6-15 14-15c7 0 16-9 19-20s12-20 21-20 16-7 16-15 7-15 15-15 15-9 15-20 6-20 14-20 16-7 20-15c3-8 12-15 21-15 11 0 15 12 15 50 0 36-4 50-14 50-8 0-17 15-20 35-4 21-13 35-21 35s-15 9-15 20c0 16-7 20-30 20-20 0-30 5-30 15 0 12-13 15-55 15-48 0-55-2-55-20z"/><path d="m3880 2175c0-8 7-15 15-15s15 7 15 15-7 15-15 15-15-7-15-15z"/><path d="m3920 2076c0-8 7-16 15-20 8-3 15-12 15-21 0-8 7-15 15-15 10 0 15 11 15 35 0 32-2 35-30 35-19 0-30-5-30-14z"/><path d="m2950 1816c0-30 4-36 21-36s20 5 17 32c-2 22-9 34-20 36-15 3-18-4-18-32z"/><path d="m3060 1830c0-5 5-10 10-10 6 0 10 5 10 10 0 6-4 10-10 10-5 0-10-4-10-10z"/><path d="m4120 1795c0-8 7-15 15-15s15-7 15-15 9-15 20-15 20 7 20 15-9 15-20 15-20 7-20 15-7 15-15 15-15-7-15-15z"/><path d="m4220 1695c0-8 9-15 20-15s20 7 20 15-9 15-20 15-20-7-20-15z"/><path d="m4290 1660c0-5 7-10 15-10s15 5 15 10c0 6-7 10-15 10s-15-4-15-10z"/><path d="m4330 1610c0-32 14-40 24-14 10 27 7 44-9 44-10 0-15-10-15-30z"/></g></svg>