<svg fill="none" height="19" viewBox="0 0 25 19" width="25" xmlns="http://www.w3.org/2000/svg"><path d="m20.4688 2.23438c2.5781 3.82812 3.8671 8.12502 3.3984 13.08592 0 0 0 .0391-.0391.0391-1.7187 1.289-3.6719 2.2656-5.7422 2.8906-.039.0391-.039 0-.0781 0-.4297-.625-.8203-1.25-1.1719-1.9141 0-.039 0-.039 0-.0781l.0391-.039c.625-.2344 1.2109-.5079 1.7969-.8594 0 0 .039 0 .039-.0391s0-.0391-.039-.0781c-.1172-.0781-.2344-.1563-.3516-.2734-.0391 0-.0391 0-.0781 0-3.711 1.7187-7.7734 1.7187-11.52345 0-.03906 0-.07813 0-.07813 0-.11718.1171-.23437.1953-.35156.2734-.03906.039-.03906.039-.03906.0781s0 .0391.03906.0391c.54688.3515 1.17188.625 1.79688.8594 0 0 0 .039.03906.039v.0781c-.35156.6641-.74219 1.2891-1.17188 1.9141-.03906 0-.07812.0391-.07812 0-2.07031-.625-4.02344-1.6016-5.74219-2.8906-.03906 0-.03906-.0391-.03906-.0391-.390625-4.2969.42969-8.6328 3.39844-13.08592h.03906c1.48437-.70313 3.04687-1.17188 4.64844-1.445318.03906-.039062.07812 0 .07812 0 .23438.390628.42969.820318.58594 1.210938 1.75785-.27344 3.51565-.27344 5.27345 0 .1562-.39062.3516-.82031.5859-1.210938 0 0 .0391-.039062.0781 0 1.6016.273438 3.1641.742188 4.6485 1.445318zm-11.79692 10.46872c1.13281 0 2.07032-1.0547 2.07032-2.3047 0-1.28902-.89845-2.30465-2.07032-2.30465-1.13282 0-2.07032 1.01563-2.07032 2.30465 0 1.25.9375 2.3047 2.07032 2.3047zm7.61722 0c1.1718 0 2.0703-1.0547 2.0703-2.3047.039-1.28902-.8985-2.30465-2.0703-2.30465-1.1329 0-2.0313 1.01563-2.0313 2.30465 0 1.25.8984 2.3047 2.0313 2.3047z" fill="#fff"/></svg>