<svg fill="none" height="19" viewBox="0 0 18 19" width="18" xmlns="http://www.w3.org/2000/svg"><path d="m9 5.00781c2.4609 0 4.4922 2.03125 4.4922 4.49219 0 2.5-2.0313 4.4922-4.4922 4.4922-2.5 0-4.49219-1.9922-4.49219-4.4922 0-2.46094 1.99219-4.49219 4.49219-4.49219zm0 7.42189c1.6016 0 2.8906-1.2891 2.8906-2.9297 0-1.60156-1.289-2.89062-2.8906-2.89062-1.64062 0-2.92969 1.28906-2.92969 2.89062 0 1.6406 1.32813 2.9297 2.92969 2.9297zm5.7031-7.57814c0-.58594-.4687-1.05468-1.0547-1.05468-.5859 0-1.0546.46874-1.0546 1.05468s.4687 1.05469 1.0546 1.05469c.586 0 1.0547-.46875 1.0547-1.05469zm2.9688 1.05469c.0781 1.44531.0781 5.78125 0 7.22655-.0781 1.4063-.3907 2.6172-1.4063 3.6719-1.0156 1.0156-2.2656 1.3281-3.6718 1.4062-1.4454.0782-5.7813.0782-7.22661 0-1.40625-.0781-2.61719-.3906-3.67188-1.4062-1.015622-1.0547-1.328122-2.2656-1.406248-3.6719-.078124-1.4453-.078124-5.78124 0-7.22655.078126-1.40625.390626-2.65625 1.406248-3.67187 1.05469-1.01563 2.26563-1.32813 3.67188-1.406255 1.44531-.078125 5.78121-.078125 7.22661 0 1.4062.078125 2.6562.390625 3.6718 1.406255 1.0156 1.01562 1.3282 2.26562 1.4063 3.67187zm-1.875 8.74995c.4687-1.1328.3515-3.8671.3515-5.1562 0-1.25.1172-3.98438-.3515-5.15625-.3125-.74219-.8985-1.36719-1.6407-1.64063-1.1718-.46874-3.9062-.35156-5.1562-.35156-1.28906 0-4.02344-.11718-5.15625.35156-.78125.3125-1.36719.89844-1.67969 1.64063-.46875 1.17187-.35156 3.90625-.35156 5.15625 0 1.2891-.11719 4.0234.35156 5.1562.3125.7813.89844 1.3672 1.67969 1.6797 1.13281.4688 3.86719.3516 5.15625.3516 1.25 0 3.9844.1172 5.1562-.3516.7422-.3125 1.3672-.8984 1.6407-1.6797z" fill="#fff"/></svg>