<svg fill="none" height="20" viewBox="0 0 26 20" width="26" xmlns="http://www.w3.org/2000/svg"><path d="m25.9636 11.1749c-.0494-.7559-.1192-1.3562-.2131-1.8351-.1023-.519-.3138-.97816-.6205-1.35404.1778-.26894.2744-.5907.2564-.92367-.0302-.55744-.0658-1.064-.1055-1.50554-.0404-.44514-.0953-.84963-.1631-1.20475-.0148-.12197-.045-.23953-.0893-.35013-.1439-.64555-.3501-1.14565-.6272-1.52322-.1577-.2143-.3434-.39851-.5525-.55103l-1.6915-1.329581c-.0199-.015954-.0398-.031877-.0601-.047185l-.0055-.004373.0001.0004c-.3102-.233121-.6738-.39488-1.0778-.4762211-.3294-.06591086-.6991-.0856531-1.1004-.0589192-.2197.0146605-.4555.0435815-.7009.0859923l-1.0039.173678-.9135.158032c-1.0505.181747-1.8736.363495-2.516.555653-.7485.224344-1.3398.533234-1.7999.941174-.0585-.06453-.1236-.1236-.1947-.17612-.262-.19339-.5874-.28526-.921-.26299-.0517.00345-.1036.00967-.1556.01863l-1.81951.3152-1.84131.31902c-.38665.06702-.74115.28354-.98532.60189-.10266.13385-.18232.28107-.23704.43525-.0939.22244-.13531.45414-.12393.67959l-.02661.17821-.11175-.40095c-.17557-.62997-.75937-1.02701-1.41307-.98333-.05185.00345-.10405.0097-.15664.01882l-1.84131.31933-1.84125.31945c-.448802.07789-.850501.3565-1.088992.75526-.2359943.39464-.2861218.86337-.1367872 1.27328.0089095.03216.0189902.06397.0301812.09536l4.105868 11.49273c.08364.234.22567.4299.40518.5784l-.00145.0002.0247.019c.01183.0093.02373.0186.03591.0276l1.58639 1.2209c.27434.3045.68104.4716 1.11748.4415.05179-.0035.10389-.0099.1563-.0191l.71486-.1255 2.1013-.3687.7147-.1253c.6292-.1102 1.1443-.608 1.2777-1.2341l.388-1.8229c.0529.0455.108.0882.1642.1293l1.7095 1.3455c.0035.0027.0052.0055.0086.0082l.0018.0028v-.0002c.0925.0756.2032.1444.3121.2054.546.3065 1.2263.4345 2.0194.3799.1438-.0099.2946-.0261.4472-.0478.6864-.0981 1.6109-.2487 2.7476-.4479 1.1191-.1959 1.995-.3881 2.6776-.5876.8757-.2559 1.545-.6132 2.0459-1.0926.5658-.5415.9166-1.2332 1.0432-2.0562.0905-.5915.1052-1.3045.0448-2.1806zm-14.1101-8.11489-.0215.00376-.0289.13536-.1625.76358-.1625.76358-2.34219 11.00281-.71486.1251-1.60769.2818-.49354.0866-.25474.0446-.46008.0807-3.75859-10.5185-.34734-.97215-.00229-.0215-.03085-.08214 1.84121-.31982 1.84131-.3197.06345.22755.19573.70216.1957.70204 1.48687 5.33446.48623-3.25722.27-1.80839.22385-1.49941.12242-.82025c-.00268.00046-.00515.00077-.0074.00093-.02238.00151-.02488-.01232-.00805-.04192.01859-.03231.0271-.05566.02556-.07004l1.84129-.31942 1.8196-.31557.0046.0429zm10.832 8.77039c-.0737.4787-.2637.8644-.5704 1.158-.307.2936-.7703.5311-1.3908.7122-.6204.1812-1.4581.3643-2.5121.5486-1.1264.1971-2.0265.3437-2.7004.4399-.1173.0167-.2301.0288-.3384.0362-.0755.0052-.1482.0074-.2193.0081-.3024.0027-.565-.0353-.788-.1144-.0814-.0288-.1581-.0624-.2289-.1021-.2881-.1615-.5094-.4466-.664-.8542-.0302-.0798-.0579-.1643-.083-.2534-.014-.0497-.0275-.1003-.0399-.1528-.1079-.4563-.197-1.0811-.2676-1.8728-.0267-.3006-.0509-.6246-.0724-.9736l.1083-.0191.0024.0215.1707-.0101.7482-.0448.1944-.0116.8252-.0493.948-.0567.1615-.0097c.0035.0451.0072.0879.0108.1309.0359.4231.079.747.13.9693.038.1673.0966.2961.1746.3886.0363.043.0764.0788.1214.1057.1162.0694.2727.0974.4693.084.0428-.003.0875-.0079.1341-.0147.2008-.0293.4531-.07.7561-.1216.0906-.0155.1851-.0318.2848-.0493.1651-.0287.3129-.0563.4437-.0828.004-.0007.0077-.0016.0117-.0024.1275-.0258.2387-.0506.3331-.0741.1934-.0482.3419-.1034.4456-.1653.1037-.0617.1688-.1385.1958-.2305.0155-.0536.0232-.1169.0245-.1877.0009-.0507-.0009-.1049-.0074-.1646-.0119-.2452-.0331-.4417-.0635-.5892-.0307-.1475-.1096-.26462-.2366-.3516-.1273-.087-.3181-.15199-.5728-.19483-.2549-.04284-.6194-.08094-1.0937-.11504-.9602-.07155-1.7153-.15538-2.2657-.25101-.0193-.00333-.039-.00666-.0577-.01004-.2809-.05052-.5248-.11874-.7322-.20448-.2025-.08365-.3704-.18397-.5029-.30122-.18-.15908-.3157-.36276-.4091-.60903-.0459-.12092-.0824-.25129-.1073-.39325-.0761-.43088-.1374-.99913-.1837-1.7049-.0002-.00173-.0002-.00339-.0003-.00514-.046-.66546-.0467-1.22225-.0017-1.67047.0064-.06379.0138-.12542.022-.1848.0295-.21264.0819-.40563.1548-.58103.0907-.21849.2139-.4092.3721-.56992.0584-.05935.1245-.11559.1951-.17001.2744-.21131.6394-.38619 1.0983-.52381.5772-.17275 1.3566-.34427 2.3387-.51438.7654-.13256 1.4044-.24322 1.9173-.33205.1949-.03375.3768-.05624.5454-.06748.2748-.01838.5147-.00702.7196.03397.045.00906.0884.02021.1307.03281.2692.07998.486.23105.6501.45395.036.04912.07.10552.103.16567.1016.18504.1889.42171.2614.71119.0279.11128.0539.22912.0775.35582l.0217-.00378.0046.04284c.0643.32367.1156.69662.1539 1.11885.0381.42263.0721.90769.1019 1.45512l-.1083.01885-1.2067.13179-.1457.01589-1.4389.16278c-.0096-.16792-.0201-.32216-.0314-.46575-.0275-.34905-.0599-.62757-.0976-.83248-.0533-.28887-.1377-.48906-.2524-.60013-.1034-.09979-.2392-.14377-.4078-.13243-.019.00129-.0384.00326-.0582.00591-.1957.0268-.4597.0689-.7919.12649-.289.05014-.5191.09761-.6908.14177-.1717.04445-.3016.10349-.3892.17673-.0879.07364-.1407.16299-.1587.26777-.0183.10521-.0253.24461-.0211.41853.0133.25983.0356.46714.0671.62169.0312.15495.107.27615.2268.36451.1199.08837.2958.15264.5284.19201.2303.03951.551.07407.9614.10339.0033.00022.0063.00049.0097.00071.255.01826.4964.03736.7247.05735.5241.04583.9777.09625 1.3612.15122.1488.02129.2877.04324.4154.06591.1198.02129.2331.04525.3406.07158.4305.10555.7623.25151.9944.43812.042.03379.0811.06998.1187.10756.2085.20838.3494.47578.4238.801.0048.02128.0106.04179.0149.06354.0813.41502.1448.96753.1899 1.65787.0526.76177.0423 1.38157-.0308 1.85967z" fill="#fff"/></svg>