<svg fill="none" height="16" viewBox="0 0 23 16" width="23" xmlns="http://www.w3.org/2000/svg"><path d="m21.6953 2.95508c.4688 1.64062.4688 5.15625.4688 5.15625s0 3.47657-.4688 5.15627c-.2344.9375-.9765 1.6406-1.875 1.875-1.6797.4297-8.3203.4297-8.3203.4297s-6.67969 0-8.35938-.4297c-.89843-.2344-1.64062-.9375-1.875-1.875-.468745-1.6797-.468745-5.15627-.468745-5.15627s0-3.51563.468745-5.15625c.23438-.9375.97657-1.67969 1.875-1.91406 1.67969-.468754 8.35938-.468754 8.35938-.468754s6.6406 0 8.3203.468754c.8985.23437 1.6406.97656 1.875 1.91406zm-12.3828 8.32032 5.5469-3.16407-5.5469-3.16406z" fill="#fff"/></svg>