<?xml version="1.0" encoding="UTF-8"?>
<svg xmlns="http://www.w3.org/2000/svg" width="703" height="29" viewBox="0 0 703 29" fill="none">
  <path d="M4.46928 28L0.577281 7.56H5.44928L7.80128 21.392L15.1093 7.56H20.4013L9.17328 28H4.46928ZM28.4539 28.28C26.8486 28.28 25.4019 27.972 24.1139 27.356C22.8259 26.7213 21.7526 25.8813 20.8939 24.836C20.0539 23.772 19.4472 22.5493 19.0739 21.168C18.7192 19.7867 18.6726 18.3307 18.9339 16.8C19.1579 15.456 19.6059 14.2053 20.2779 13.048C20.9686 11.872 21.8086 10.864 22.7979 10.024C23.8059 9.16533 24.9446 8.49333 26.2139 8.008C27.4832 7.52267 28.8179 7.28 30.2179 7.28C31.8046 7.28 33.2326 7.59733 34.5019 8.232C35.7899 8.848 36.8632 9.688 37.7219 10.752C38.5806 11.7973 39.1872 13.0107 39.5419 14.392C39.9152 15.7733 39.9712 17.2293 39.7099 18.76C39.4859 20.104 39.0379 21.364 38.3659 22.54C37.7126 23.6973 36.8912 24.7053 35.9019 25.564C34.9312 26.404 33.8112 27.0667 32.5419 27.552C31.2726 28.0373 29.9099 28.28 28.4539 28.28ZM28.8459 23.464C29.6299 23.464 30.3486 23.3333 31.0019 23.072C31.6739 22.8107 32.2712 22.4467 32.7939 21.98C33.3166 21.5133 33.7459 20.972 34.0819 20.356C34.4179 19.7213 34.6512 19.04 34.7819 18.312C34.9312 17.4907 34.9126 16.7067 34.7259 15.96C34.5579 15.1947 34.2499 14.532 33.8019 13.972C33.3539 13.3933 32.7846 12.936 32.0939 12.6C31.4219 12.2453 30.6472 12.068 29.7699 12.068C28.9859 12.068 28.2579 12.208 27.5859 12.488C26.9326 12.7493 26.3446 13.1133 25.8219 13.58C25.3179 14.028 24.8886 14.5693 24.5339 15.204C24.1979 15.8387 23.9646 16.52 23.8339 17.248C23.6846 18.0693 23.6939 18.8533 23.8619 19.6C24.0486 20.3467 24.3659 21.0093 24.8139 21.588C25.2619 22.148 25.8219 22.6053 26.4939 22.96C27.1846 23.296 27.9686 23.464 28.8459 23.464ZM44.3328 7.56H49.2048L45.6208 28H40.7208L44.3328 7.56ZM59.8752 28.28C58.1392 28.2987 56.6085 27.9907 55.2832 27.356C53.9765 26.7213 52.9032 25.872 52.0632 24.808C51.2232 23.7253 50.6445 22.484 50.3272 21.084C50.0098 19.684 49.9818 18.2093 50.2432 16.66C50.4672 15.316 50.9058 14.0747 51.5592 12.936C52.2312 11.7973 53.0618 10.808 54.0512 9.968C55.0592 9.128 56.1978 8.47467 57.4672 8.008C58.7365 7.52267 60.0898 7.28 61.5272 7.28C62.6098 7.28 63.6272 7.42933 64.5792 7.728C65.5312 8.008 66.3898 8.40933 67.1552 8.932C67.9205 9.436 68.5925 10.0427 69.1712 10.752C69.7498 11.4427 70.2165 12.208 70.5712 13.048L65.8112 15.344C65.4752 14.392 64.9152 13.608 64.1312 12.992C63.3658 12.376 62.3672 12.068 61.1352 12.068C60.3698 12.068 59.6512 12.1987 58.9792 12.46C58.3258 12.7027 57.7378 13.0573 57.2152 13.524C56.6925 13.972 56.2538 14.5133 55.8992 15.148C55.5445 15.7827 55.3018 16.4733 55.1712 17.22C55.0218 18.0413 55.0312 18.8347 55.1992 19.6C55.3672 20.3467 55.6752 21.0093 56.1232 21.588C56.5712 22.148 57.1312 22.6053 57.8032 22.96C58.4938 23.296 59.2872 23.464 60.1832 23.464C61.1538 23.464 62.0312 23.212 62.8152 22.708C63.6178 22.1853 64.3085 21.4573 64.8872 20.524L69.2272 23.24C68.7232 23.9867 68.1632 24.668 67.5472 25.284C66.9312 25.9 66.2405 26.432 65.4752 26.88C64.7098 27.3093 63.8605 27.6547 62.9272 27.916C62.0125 28.1587 60.9952 28.28 59.8752 28.28ZM73.946 7.56H78.818L75.234 28H70.334L73.946 7.56ZM88.2722 7.56H92.4162L96.8682 14.952L104.148 7.56H108.544L104.96 28H100.172L102.384 15.372L95.8882 21.98L91.7442 15.12L89.4762 28H84.6882L88.2722 7.56ZM111.651 7.56H126.043L125.231 12.068H115.739L115.151 15.512H124.643L123.831 20.048H114.339L113.751 23.492H123.243L122.459 28H108.067L111.651 7.56ZM133.467 28.308C132.422 28.308 131.451 28.196 130.555 27.972C129.659 27.748 128.847 27.44 128.119 27.048C127.391 26.656 126.738 26.208 126.159 25.704C125.599 25.1813 125.123 24.6213 124.731 24.024L129.239 20.748C129.706 21.7 130.331 22.428 131.115 22.932C131.899 23.436 132.842 23.688 133.943 23.688C134.69 23.688 135.315 23.5293 135.819 23.212C136.342 22.876 136.65 22.456 136.743 21.952C136.799 21.5787 136.734 21.2613 136.547 21C136.36 20.7387 136.08 20.5147 135.707 20.328C135.352 20.1227 134.932 19.936 134.447 19.768C133.962 19.6 133.448 19.432 132.907 19.264C132.198 19.04 131.479 18.7787 130.751 18.48C130.042 18.1813 129.416 17.7893 128.875 17.304C128.334 16.8187 127.932 16.212 127.671 15.484C127.41 14.756 127.372 13.8413 127.559 12.74C127.708 11.9 128.016 11.144 128.483 10.472C128.968 9.8 129.566 9.23067 130.275 8.764C130.984 8.27867 131.778 7.90533 132.655 7.644C133.551 7.38267 134.475 7.252 135.427 7.252C136.435 7.252 137.34 7.336 138.143 7.504C138.946 7.672 139.664 7.91467 140.299 8.232C140.952 8.54933 141.54 8.94133 142.063 9.408C142.586 9.856 143.071 10.3693 143.519 10.948L139.235 13.832C138.918 13.2347 138.414 12.7027 137.723 12.236C137.032 11.7507 136.155 11.508 135.091 11.508C134.288 11.508 133.663 11.6573 133.215 11.956C132.767 12.2547 132.496 12.6467 132.403 13.132C132.347 13.4493 132.403 13.72 132.571 13.944C132.758 14.1493 133.019 14.3453 133.355 14.532C133.71 14.7 134.12 14.8587 134.587 15.008C135.054 15.1573 135.548 15.316 136.071 15.484C136.799 15.708 137.536 15.9787 138.283 16.296C139.03 16.6133 139.683 17.0427 140.243 17.584C140.822 18.1067 141.251 18.7693 141.531 19.572C141.811 20.356 141.848 21.3453 141.643 22.54C141.494 23.324 141.195 24.0707 140.747 24.78C140.318 25.4707 139.748 26.0773 139.039 26.6C138.348 27.1227 137.527 27.5427 136.575 27.86C135.642 28.1587 134.606 28.308 133.467 28.308ZM152.885 7.56H161.033C162.004 7.56 162.947 7.76533 163.861 8.176C164.776 8.568 165.56 9.128 166.213 9.856C166.867 10.584 167.352 11.4613 167.669 12.488C167.987 13.5147 168.033 14.6533 167.809 15.904C167.641 16.968 167.324 17.948 166.857 18.844C166.391 19.7213 165.784 20.4867 165.037 21.14C164.309 21.7933 163.451 22.3067 162.461 22.68C161.472 23.0347 160.361 23.212 159.129 23.212H155.041L154.201 28H149.301L152.885 7.56ZM157.001 11.984L155.825 18.648H159.325C160.371 18.648 161.201 18.3493 161.817 17.752C162.433 17.1547 162.835 16.3613 163.021 15.372C163.096 14.9053 163.077 14.4667 162.965 14.056C162.872 13.6453 162.695 13.2907 162.433 12.992C162.191 12.6747 161.883 12.432 161.509 12.264C161.136 12.0773 160.716 11.984 160.249 11.984H157.001ZM171.671 7.56H186.063L185.251 12.068H175.759L175.171 15.512H184.663L183.851 20.048H174.359L173.771 23.492H183.263L182.479 28H168.087L171.671 7.56ZM188.925 7.56H197.353C198.473 7.56 199.499 7.756 200.433 8.148C201.366 8.52133 202.15 9.06267 202.785 9.772C203.419 10.4627 203.867 11.2933 204.129 12.264C204.409 13.216 204.446 14.2707 204.241 15.428C204.035 16.604 203.503 17.696 202.645 18.704C201.786 19.6933 200.647 20.4587 199.229 21L202.841 28H197.381L194.413 21.728H191.333L190.241 28H185.341L188.925 7.56ZM193.041 11.928L192.089 17.388H195.421C196.429 17.388 197.259 17.1827 197.913 16.772C198.585 16.3427 198.995 15.708 199.145 14.868C199.219 14.4573 199.219 14.0747 199.145 13.72C199.07 13.3653 198.911 13.0573 198.669 12.796C198.445 12.5347 198.127 12.3293 197.717 12.18C197.325 12.012 196.839 11.928 196.261 11.928H193.041ZM212.518 28.308C211.472 28.308 210.502 28.196 209.606 27.972C208.71 27.748 207.898 27.44 207.17 27.048C206.442 26.656 205.788 26.208 205.21 25.704C204.65 25.1813 204.174 24.6213 203.782 24.024L208.29 20.748C208.756 21.7 209.382 22.428 210.166 22.932C210.95 23.436 211.892 23.688 212.994 23.688C213.74 23.688 214.366 23.5293 214.87 23.212C215.392 22.876 215.7 22.456 215.794 21.952C215.85 21.5787 215.784 21.2613 215.598 21C215.411 20.7387 215.131 20.5147 214.758 20.328C214.403 20.1227 213.983 19.936 213.498 19.768C213.012 19.6 212.499 19.432 211.958 19.264C211.248 19.04 210.53 18.7787 209.802 18.48C209.092 18.1813 208.467 17.7893 207.926 17.304C207.384 16.8187 206.983 16.212 206.722 15.484C206.46 14.756 206.423 13.8413 206.61 12.74C206.759 11.9 207.067 11.144 207.534 10.472C208.019 9.8 208.616 9.23067 209.326 8.764C210.035 8.27867 210.828 7.90533 211.706 7.644C212.602 7.38267 213.526 7.252 214.478 7.252C215.486 7.252 216.391 7.336 217.194 7.504C217.996 7.672 218.715 7.91467 219.35 8.232C220.003 8.54933 220.591 8.94133 221.114 9.408C221.636 9.856 222.122 10.3693 222.57 10.948L218.286 13.832C217.968 13.2347 217.464 12.7027 216.774 12.236C216.083 11.7507 215.206 11.508 214.142 11.508C213.339 11.508 212.714 11.6573 212.266 11.956C211.818 12.2547 211.547 12.6467 211.454 13.132C211.398 13.4493 211.454 13.72 211.622 13.944C211.808 14.1493 212.07 14.3453 212.406 14.532C212.76 14.7 213.171 14.8587 213.638 15.008C214.104 15.1573 214.599 15.316 215.122 15.484C215.85 15.708 216.587 15.9787 217.334 16.296C218.08 16.6133 218.734 17.0427 219.294 17.584C219.872 18.1067 220.302 18.7693 220.582 19.572C220.862 20.356 220.899 21.3453 220.694 22.54C220.544 23.324 220.246 24.0707 219.798 24.78C219.368 25.4707 218.799 26.0773 218.09 26.6C217.399 27.1227 216.578 27.5427 215.626 27.86C214.692 28.1587 213.656 28.308 212.518 28.308ZM232.411 28.28C230.806 28.28 229.359 27.972 228.071 27.356C226.783 26.7213 225.71 25.8813 224.851 24.836C224.011 23.772 223.404 22.5493 223.031 21.168C222.676 19.7867 222.63 18.3307 222.891 16.8C223.115 15.456 223.563 14.2053 224.235 13.048C224.926 11.872 225.766 10.864 226.755 10.024C227.763 9.16533 228.902 8.49333 230.171 8.008C231.44 7.52267 232.775 7.28 234.175 7.28C235.762 7.28 237.19 7.59733 238.459 8.232C239.747 8.848 240.82 9.688 241.679 10.752C242.538 11.7973 243.144 13.0107 243.499 14.392C243.872 15.7733 243.928 17.2293 243.667 18.76C243.443 20.104 242.995 21.364 242.323 22.54C241.67 23.6973 240.848 24.7053 239.859 25.564C238.888 26.404 237.768 27.0667 236.499 27.552C235.23 28.0373 233.867 28.28 232.411 28.28ZM232.803 23.464C233.587 23.464 234.306 23.3333 234.959 23.072C235.631 22.8107 236.228 22.4467 236.751 21.98C237.274 21.5133 237.703 20.972 238.039 20.356C238.375 19.7213 238.608 19.04 238.739 18.312C238.888 17.4907 238.87 16.7067 238.683 15.96C238.515 15.1947 238.207 14.532 237.759 13.972C237.311 13.3933 236.742 12.936 236.051 12.6C235.379 12.2453 234.604 12.068 233.727 12.068C232.943 12.068 232.215 12.208 231.543 12.488C230.89 12.7493 230.302 13.1133 229.779 13.58C229.275 14.028 228.846 14.5693 228.491 15.204C228.155 15.8387 227.922 16.52 227.791 17.248C227.642 18.0693 227.651 18.8533 227.819 19.6C228.006 20.3467 228.323 21.0093 228.771 21.588C229.219 22.148 229.779 22.6053 230.451 22.96C231.142 23.296 231.926 23.464 232.803 23.464ZM248.206 7.56H253.022L259.154 20.244L261.394 7.56H266.21L262.626 28H257.95L251.678 15.12L249.41 28H244.622L248.206 7.56ZM269.315 7.56H274.131L280.263 20.244L282.503 7.56H287.319L283.735 28H279.059L272.787 15.12L270.519 28H265.731L269.315 7.56ZM296.727 7.56H301.431L305.323 28H300.619L300.059 24.808H292.303L290.623 28H285.498L296.727 7.56ZM294.571 20.552H299.331L298.183 13.72L294.571 20.552ZM316.083 28.28C314.459 28.28 312.994 27.972 311.687 27.356C310.399 26.7213 309.326 25.8813 308.467 24.836C307.627 23.772 307.03 22.5493 306.675 21.168C306.339 19.7867 306.302 18.3307 306.563 16.8C306.787 15.4933 307.226 14.2613 307.879 13.104C308.551 11.9467 309.382 10.9387 310.371 10.08C311.379 9.20267 312.527 8.52133 313.815 8.036C315.103 7.532 316.485 7.28 317.959 7.28C319.023 7.28 320.022 7.42 320.955 7.7C321.889 7.96133 322.729 8.33467 323.475 8.82C324.241 9.30533 324.903 9.884 325.463 10.556C326.042 11.2093 326.518 11.9187 326.891 12.684L322.131 14.98C321.758 14.0093 321.189 13.2533 320.423 12.712C319.658 12.1707 318.697 11.9 317.539 11.9C316.699 11.9 315.934 12.0493 315.243 12.348C314.553 12.628 313.937 13.0107 313.395 13.496C312.873 13.9813 312.434 14.5507 312.079 15.204C311.743 15.8387 311.51 16.5107 311.379 17.22C311.23 18.06 311.239 18.8627 311.407 19.628C311.575 20.3933 311.883 21.0747 312.331 21.672C312.798 22.2507 313.377 22.7173 314.067 23.072C314.777 23.4267 315.589 23.604 316.503 23.604C317.661 23.604 318.631 23.3427 319.415 22.82C320.199 22.2787 320.825 21.5693 321.291 20.692H315.635L316.447 16.156H327.451L327.031 18.536C326.77 20.0107 326.322 21.3453 325.687 22.54C325.053 23.7347 324.259 24.7613 323.307 25.62C322.374 26.46 321.291 27.1133 320.059 27.58C318.827 28.0467 317.502 28.28 316.083 28.28ZM331.495 7.56H345.887L345.075 12.068H335.583L334.995 15.512H344.487L343.675 20.048H334.183L333.595 23.492H343.087L342.303 28H327.911L331.495 7.56ZM353.311 28.308C352.265 28.308 351.295 28.196 350.399 27.972C349.503 27.748 348.691 27.44 347.963 27.048C347.235 26.656 346.581 26.208 346.003 25.704C345.443 25.1813 344.967 24.6213 344.575 24.024L349.083 20.748C349.549 21.7 350.175 22.428 350.959 22.932C351.743 23.436 352.685 23.688 353.787 23.688C354.533 23.688 355.159 23.5293 355.663 23.212C356.185 22.876 356.493 22.456 356.587 21.952C356.643 21.5787 356.577 21.2613 356.391 21C356.204 20.7387 355.924 20.5147 355.551 20.328C355.196 20.1227 354.776 19.936 354.291 19.768C353.805 19.6 353.292 19.432 352.751 19.264C352.041 19.04 351.323 18.7787 350.595 18.48C349.885 18.1813 349.26 17.7893 348.719 17.304C348.177 16.8187 347.776 16.212 347.515 15.484C347.253 14.756 347.216 13.8413 347.403 12.74C347.552 11.9 347.86 11.144 348.327 10.472C348.812 9.8 349.409 9.23067 350.119 8.764C350.828 8.27867 351.621 7.90533 352.499 7.644C353.395 7.38267 354.319 7.252 355.271 7.252C356.279 7.252 357.184 7.336 357.987 7.504C358.789 7.672 359.508 7.91467 360.143 8.232C360.796 8.54933 361.384 8.94133 361.907 9.408C362.429 9.856 362.915 10.3693 363.363 10.948L359.079 13.832C358.761 13.2347 358.257 12.7027 357.567 12.236C356.876 11.7507 355.999 11.508 354.935 11.508C354.132 11.508 353.507 11.6573 353.059 11.956C352.611 12.2547 352.34 12.6467 352.247 13.132C352.191 13.4493 352.247 13.72 352.415 13.944C352.601 14.1493 352.863 14.3453 353.199 14.532C353.553 14.7 353.964 14.8587 354.431 15.008C354.897 15.1573 355.392 15.316 355.915 15.484C356.643 15.708 357.38 15.9787 358.127 16.296C358.873 16.6133 359.527 17.0427 360.087 17.584C360.665 18.1067 361.095 18.7693 361.375 19.572C361.655 20.356 361.692 21.3453 361.487 22.54C361.337 23.324 361.039 24.0707 360.591 24.78C360.161 25.4707 359.592 26.0773 358.883 26.6C358.192 27.1227 357.371 27.5427 356.419 27.86C355.485 28.1587 354.449 28.308 353.311 28.308ZM377.209 28.308C376.164 28.308 375.193 28.196 374.297 27.972C373.401 27.748 372.589 27.44 371.861 27.048C371.133 26.656 370.48 26.208 369.901 25.704C369.341 25.1813 368.865 24.6213 368.473 24.024L372.981 20.748C373.448 21.7 374.073 22.428 374.857 22.932C375.641 23.436 376.584 23.688 377.685 23.688C378.432 23.688 379.057 23.5293 379.561 23.212C380.084 22.876 380.392 22.456 380.485 21.952C380.541 21.5787 380.476 21.2613 380.289 21C380.103 20.7387 379.823 20.5147 379.449 20.328C379.095 20.1227 378.675 19.936 378.189 19.768C377.704 19.6 377.191 19.432 376.649 19.264C375.94 19.04 375.221 18.7787 374.493 18.48C373.784 18.1813 373.159 17.7893 372.617 17.304C372.076 16.8187 371.675 16.212 371.413 15.484C371.152 14.756 371.115 13.8413 371.301 12.74C371.451 11.9 371.759 11.144 372.225 10.472C372.711 9.8 373.308 9.23067 374.017 8.764C374.727 8.27867 375.52 7.90533 376.397 7.644C377.293 7.38267 378.217 7.252 379.169 7.252C380.177 7.252 381.083 7.336 381.885 7.504C382.688 7.672 383.407 7.91467 384.041 8.232C384.695 8.54933 385.283 8.94133 385.805 9.408C386.328 9.856 386.813 10.3693 387.261 10.948L382.977 13.832C382.66 13.2347 382.156 12.7027 381.465 12.236C380.775 11.7507 379.897 11.508 378.833 11.508C378.031 11.508 377.405 11.6573 376.957 11.956C376.509 12.2547 376.239 12.6467 376.145 13.132C376.089 13.4493 376.145 13.72 376.313 13.944C376.5 14.1493 376.761 14.3453 377.097 14.532C377.452 14.7 377.863 14.8587 378.329 15.008C378.796 15.1573 379.291 15.316 379.813 15.484C380.541 15.708 381.279 15.9787 382.025 16.296C382.772 16.6133 383.425 17.0427 383.985 17.584C384.564 18.1067 384.993 18.7693 385.273 19.572C385.553 20.356 385.591 21.3453 385.385 22.54C385.236 23.324 384.937 24.0707 384.489 24.78C384.06 25.4707 383.491 26.0773 382.781 26.6C382.091 27.1227 381.269 27.5427 380.317 27.86C379.384 28.1587 378.348 28.308 377.209 28.308ZM390.284 7.56H404.676L403.864 12.068H394.372L393.784 15.512H403.276L402.464 20.048H392.972L392.384 23.492H401.876L401.092 28H386.7L390.284 7.56ZM414.852 28.28C413.116 28.2987 411.585 27.9907 410.26 27.356C408.953 26.7213 407.88 25.872 407.04 24.808C406.2 23.7253 405.621 22.484 405.304 21.084C404.986 19.684 404.958 18.2093 405.22 16.66C405.444 15.316 405.882 14.0747 406.536 12.936C407.208 11.7973 408.038 10.808 409.028 9.968C410.036 9.128 411.174 8.47467 412.444 8.008C413.713 7.52267 415.066 7.28 416.504 7.28C417.586 7.28 418.604 7.42933 419.556 7.728C420.508 8.008 421.366 8.40933 422.132 8.932C422.897 9.436 423.569 10.0427 424.148 10.752C424.726 11.4427 425.193 12.208 425.548 13.048L420.788 15.344C420.452 14.392 419.892 13.608 419.108 12.992C418.342 12.376 417.344 12.068 416.112 12.068C415.346 12.068 414.628 12.1987 413.956 12.46C413.302 12.7027 412.714 13.0573 412.192 13.524C411.669 13.972 411.23 14.5133 410.876 15.148C410.521 15.7827 410.278 16.4733 410.148 17.22C409.998 18.0413 410.008 18.8347 410.176 19.6C410.344 20.3467 410.652 21.0093 411.1 21.588C411.548 22.148 412.108 22.6053 412.78 22.96C413.47 23.296 414.264 23.464 415.16 23.464C416.13 23.464 417.008 23.212 417.792 22.708C418.594 22.1853 419.285 21.4573 419.864 20.524L424.204 23.24C423.7 23.9867 423.14 24.668 422.524 25.284C421.908 25.9 421.217 26.432 420.452 26.88C419.686 27.3093 418.837 27.6547 417.904 27.916C416.989 28.1587 415.972 28.28 414.852 28.28ZM435.766 28.28C434.161 28.28 432.714 27.972 431.426 27.356C430.138 26.7213 429.065 25.8813 428.206 24.836C427.366 23.772 426.76 22.5493 426.386 21.168C426.032 19.7867 425.985 18.3307 426.246 16.8C426.47 15.456 426.918 14.2053 427.59 13.048C428.281 11.872 429.121 10.864 430.11 10.024C431.118 9.16533 432.257 8.49333 433.526 8.008C434.796 7.52267 436.13 7.28 437.53 7.28C439.117 7.28 440.545 7.59733 441.814 8.232C443.102 8.848 444.176 9.688 445.034 10.752C445.893 11.7973 446.5 13.0107 446.854 14.392C447.228 15.7733 447.284 17.2293 447.022 18.76C446.798 20.104 446.35 21.364 445.678 22.54C445.025 23.6973 444.204 24.7053 443.214 25.564C442.244 26.404 441.124 27.0667 439.854 27.552C438.585 28.0373 437.222 28.28 435.766 28.28ZM436.158 23.464C436.942 23.464 437.661 23.3333 438.314 23.072C438.986 22.8107 439.584 22.4467 440.106 21.98C440.629 21.5133 441.058 20.972 441.394 20.356C441.73 19.7213 441.964 19.04 442.094 18.312C442.244 17.4907 442.225 16.7067 442.038 15.96C441.87 15.1947 441.562 14.532 441.114 13.972C440.666 13.3933 440.097 12.936 439.406 12.6C438.734 12.2453 437.96 12.068 437.082 12.068C436.298 12.068 435.57 12.208 434.898 12.488C434.245 12.7493 433.657 13.1133 433.134 13.58C432.63 14.028 432.201 14.5693 431.846 15.204C431.51 15.8387 431.277 16.52 431.146 17.248C430.997 18.0693 431.006 18.8533 431.174 19.6C431.361 20.3467 431.678 21.0093 432.126 21.588C432.574 22.148 433.134 22.6053 433.806 22.96C434.497 23.296 435.281 23.464 436.158 23.464ZM451.561 7.56H456.377L462.509 20.244L464.749 7.56H469.565L465.981 28H461.305L455.033 15.12L452.765 28H447.977L451.561 7.56ZM472.671 7.56H479.783C481.295 7.56 482.657 7.84933 483.871 8.428C485.103 8.988 486.12 9.76267 486.923 10.752C487.744 11.7227 488.323 12.852 488.659 14.14C488.995 15.428 489.041 16.7907 488.799 18.228C488.575 19.516 488.155 20.7573 487.539 21.952C486.923 23.128 486.139 24.164 485.187 25.06C484.235 25.956 483.124 26.6747 481.855 27.216C480.585 27.7387 479.176 28 477.627 28H469.087L472.671 7.56ZM476.731 12.012L474.743 23.492H477.823C478.569 23.492 479.279 23.3333 479.951 23.016C480.623 22.6987 481.22 22.288 481.743 21.784C482.284 21.2613 482.732 20.6733 483.087 20.02C483.441 19.348 483.675 18.6573 483.787 17.948C483.917 17.1267 483.908 16.3613 483.759 15.652C483.628 14.924 483.357 14.2893 482.947 13.748C482.555 13.2067 482.032 12.7867 481.379 12.488C480.744 12.1707 479.988 12.012 479.111 12.012H476.731ZM498.441 7.56H503.145L507.037 28H502.333L501.773 24.808H494.017L492.337 28H487.213L498.441 7.56ZM496.285 20.552H501.045L499.897 13.72L496.285 20.552ZM512.376 7.56H517.248L513.664 28H508.764L512.376 7.56ZM520.44 7.56H528.868C529.988 7.56 531.015 7.756 531.948 8.148C532.881 8.52133 533.665 9.06267 534.3 9.772C534.935 10.4627 535.383 11.2933 535.644 12.264C535.924 13.216 535.961 14.2707 535.756 15.428C535.551 16.604 535.019 17.696 534.16 18.704C533.301 19.6933 532.163 20.4587 530.744 21L534.356 28H528.896L525.928 21.728H522.848L521.756 28H516.856L520.44 7.56ZM524.556 11.928L523.604 17.388H526.936C527.944 17.388 528.775 17.1827 529.428 16.772C530.1 16.3427 530.511 15.708 530.66 14.868C530.735 14.4573 530.735 14.0747 530.66 13.72C530.585 13.3653 530.427 13.0573 530.184 12.796C529.96 12.5347 529.643 12.3293 529.232 12.18C528.84 12.012 528.355 11.928 527.776 11.928H524.556ZM539.499 7.56H553.891L553.079 12.068H543.587L542.999 15.512H552.491L551.679 20.048H542.187L541.599 23.492H551.091L550.307 28H535.915L539.499 7.56ZM563.096 7.56H571.244C572.215 7.56 573.158 7.76533 574.072 8.176C574.987 8.568 575.771 9.128 576.424 9.856C577.078 10.584 577.563 11.4613 577.88 12.488C578.198 13.5147 578.244 14.6533 578.02 15.904C577.852 16.968 577.535 17.948 577.068 18.844C576.602 19.7213 575.995 20.4867 575.248 21.14C574.52 21.7933 573.662 22.3067 572.672 22.68C571.683 23.0347 570.572 23.212 569.34 23.212H565.252L564.412 28H559.512L563.096 7.56ZM567.212 11.984L566.036 18.648H569.536C570.582 18.648 571.412 18.3493 572.028 17.752C572.644 17.1547 573.046 16.3613 573.232 15.372C573.307 14.9053 573.288 14.4667 573.176 14.056C573.083 13.6453 572.906 13.2907 572.644 12.992C572.402 12.6747 572.094 12.432 571.72 12.264C571.347 12.0773 570.927 11.984 570.46 11.984H567.212ZM581.882 7.56H590.31C591.43 7.56 592.456 7.756 593.39 8.148C594.323 8.52133 595.107 9.06267 595.742 9.772C596.376 10.4627 596.824 11.2933 597.086 12.264C597.366 13.216 597.403 14.2707 597.198 15.428C596.992 16.604 596.46 17.696 595.602 18.704C594.743 19.6933 593.604 20.4587 592.186 21L595.798 28H590.338L587.37 21.728H584.29L583.198 28H578.298L581.882 7.56ZM585.998 11.928L585.046 17.388H588.378C589.386 17.388 590.216 17.1827 590.87 16.772C591.542 16.3427 591.952 15.708 592.102 14.868C592.176 14.4573 592.176 14.0747 592.102 13.72C592.027 13.3653 591.868 13.0573 591.626 12.796C591.402 12.5347 591.084 12.3293 590.674 12.18C590.282 12.012 589.796 11.928 589.218 11.928H585.998ZM600.94 7.56H615.332L614.52 12.068H605.028L604.44 15.512H613.932L613.12 20.048H603.628L603.04 23.492H612.532L611.748 28H597.356L600.94 7.56ZM610.432 0.979999H615.192L609.956 5.936H606.428L610.432 0.979999ZM618.194 7.56H631.802L630.99 12.096H622.254L621.61 15.764H630.346L629.534 20.3H620.826L619.482 28H614.61L618.194 7.56ZM634.464 7.56H648.856L648.044 12.068H638.552L637.964 15.512H647.456L646.644 20.048H637.152L636.564 23.492H646.056L645.272 28H630.88L634.464 7.56ZM643.956 0.979999H648.716L643.48 5.936H639.952L643.956 0.979999ZM651.718 7.56H660.146C661.266 7.56 662.292 7.756 663.226 8.148C664.159 8.52133 664.943 9.06267 665.578 9.772C666.212 10.4627 666.66 11.2933 666.922 12.264C667.202 13.216 667.239 14.2707 667.034 15.428C666.828 16.604 666.296 17.696 665.438 18.704C664.579 19.6933 663.44 20.4587 662.022 21L665.634 28H660.174L657.206 21.728H654.126L653.034 28H648.134L651.718 7.56ZM655.834 11.928L654.882 17.388H658.214C659.222 17.388 660.052 17.1827 660.706 16.772C661.378 16.3427 661.788 15.708 661.938 14.868C662.012 14.4573 662.012 14.0747 661.938 13.72C661.863 13.3653 661.704 13.0573 661.462 12.796C661.238 12.5347 660.92 12.3293 660.51 12.18C660.118 12.012 659.632 11.928 659.054 11.928H655.834ZM670.776 7.56H685.168L684.356 12.068H674.864L674.276 15.512H683.768L682.956 20.048H673.464L672.876 23.492H682.368L681.584 28H667.192L670.776 7.56ZM680.268 0.979999H685.028L679.792 5.936H676.264L680.268 0.979999ZM692.592 28.308C691.547 28.308 690.576 28.196 689.68 27.972C688.784 27.748 687.972 27.44 687.244 27.048C686.516 26.656 685.863 26.208 685.284 25.704C684.724 25.1813 684.248 24.6213 683.856 24.024L688.364 20.748C688.831 21.7 689.456 22.428 690.24 22.932C691.024 23.436 691.967 23.688 693.068 23.688C693.815 23.688 694.44 23.5293 694.944 23.212C695.467 22.876 695.775 22.456 695.868 21.952C695.924 21.5787 695.859 21.2613 695.672 21C695.485 20.7387 695.205 20.5147 694.832 20.328C694.477 20.1227 694.057 19.936 693.572 19.768C693.087 19.6 692.573 19.432 692.032 19.264C691.323 19.04 690.604 18.7787 689.876 18.48C689.167 18.1813 688.541 17.7893 688 17.304C687.459 16.8187 687.057 16.212 686.796 15.484C686.535 14.756 686.497 13.8413 686.684 12.74C686.833 11.9 687.141 11.144 687.608 10.472C688.093 9.8 688.691 9.23067 689.4 8.764C690.109 8.27867 690.903 7.90533 691.78 7.644C692.676 7.38267 693.6 7.252 694.552 7.252C695.56 7.252 696.465 7.336 697.268 7.504C698.071 7.672 698.789 7.91467 699.424 8.232C700.077 8.54933 700.665 8.94133 701.188 9.408C701.711 9.856 702.196 10.3693 702.644 10.948L698.36 13.832C698.043 13.2347 697.539 12.7027 696.848 12.236C696.157 11.7507 695.28 11.508 694.216 11.508C693.413 11.508 692.788 11.6573 692.34 11.956C691.892 12.2547 691.621 12.6467 691.528 13.132C691.472 13.4493 691.528 13.72 691.696 13.944C691.883 14.1493 692.144 14.3453 692.48 14.532C692.835 14.7 693.245 14.8587 693.712 15.008C694.179 15.1573 694.673 15.316 695.196 15.484C695.924 15.708 696.661 15.9787 697.408 16.296C698.155 16.6133 698.808 17.0427 699.368 17.584C699.947 18.1067 700.376 18.7693 700.656 19.572C700.936 20.356 700.973 21.3453 700.768 22.54C700.619 23.324 700.32 24.0707 699.872 24.78C699.443 25.4707 698.873 26.0773 698.164 26.6C697.473 27.1227 696.652 27.5427 695.7 27.86C694.767 28.1587 693.731 28.308 692.592 28.308Z" fill="#F9ECD9"></path>
</svg>
