<?xml version="1.0" encoding="UTF-8"?>
<svg xmlns="http://www.w3.org/2000/svg" width="696" height="29" viewBox="0 0 696 29" fill="none">
  <path d="M4.25834 28L0.366344 7.56H5.23834L7.59034 21.392L14.8983 7.56H20.1903L8.96234 28H4.25834ZM28.243 28.28C26.6376 28.28 25.191 27.972 23.903 27.356C22.615 26.7213 21.5416 25.8813 20.683 24.836C19.843 23.772 19.2363 22.5493 18.863 21.168C18.5083 19.7867 18.4616 18.3307 18.723 16.8C18.947 15.456 19.395 14.2053 20.067 13.048C20.7576 11.872 21.5976 10.864 22.587 10.024C23.595 9.16533 24.7336 8.49333 26.003 8.008C27.2723 7.52267 28.607 7.28 30.007 7.28C31.5936 7.28 33.0216 7.59733 34.291 8.232C35.579 8.848 36.6523 9.688 37.511 10.752C38.3696 11.7973 38.9763 13.0107 39.331 14.392C39.7043 15.7733 39.7603 17.2293 39.499 18.76C39.275 20.104 38.827 21.364 38.155 22.54C37.5016 23.6973 36.6803 24.7053 35.691 25.564C34.7203 26.404 33.6003 27.0667 32.331 27.552C31.0616 28.0373 29.699 28.28 28.243 28.28ZM28.635 23.464C29.419 23.464 30.1376 23.3333 30.791 23.072C31.463 22.8107 32.0603 22.4467 32.583 21.98C33.1056 21.5133 33.535 20.972 33.871 20.356C34.207 19.7213 34.4403 19.04 34.571 18.312C34.7203 17.4907 34.7016 16.7067 34.515 15.96C34.347 15.1947 34.039 14.532 33.591 13.972C33.143 13.3933 32.5736 12.936 31.883 12.6C31.211 12.2453 30.4363 12.068 29.559 12.068C28.775 12.068 28.047 12.208 27.375 12.488C26.7216 12.7493 26.1336 13.1133 25.611 13.58C25.107 14.028 24.6776 14.5693 24.323 15.204C23.987 15.8387 23.7536 16.52 23.623 17.248C23.4736 18.0693 23.483 18.8533 23.651 19.6C23.8376 20.3467 24.155 21.0093 24.603 21.588C25.051 22.148 25.611 22.6053 26.283 22.96C26.9736 23.296 27.7576 23.464 28.635 23.464ZM44.1218 7.56H48.9938L45.4098 28H40.5098L44.1218 7.56ZM59.6642 28.28C57.9282 28.2987 56.3976 27.9907 55.0722 27.356C53.7656 26.7213 52.6922 25.872 51.8522 24.808C51.0122 23.7253 50.4336 22.484 50.1162 21.084C49.7989 19.684 49.7709 18.2093 50.0322 16.66C50.2562 15.316 50.6949 14.0747 51.3482 12.936C52.0202 11.7973 52.8509 10.808 53.8402 9.968C54.8482 9.128 55.9869 8.47467 57.2562 8.008C58.5256 7.52267 59.8789 7.28 61.3162 7.28C62.3989 7.28 63.4162 7.42933 64.3682 7.728C65.3202 8.008 66.1789 8.40933 66.9442 8.932C67.7096 9.436 68.3816 10.0427 68.9602 10.752C69.5389 11.4427 70.0056 12.208 70.3602 13.048L65.6002 15.344C65.2642 14.392 64.7042 13.608 63.9202 12.992C63.1549 12.376 62.1562 12.068 60.9242 12.068C60.1589 12.068 59.4402 12.1987 58.7682 12.46C58.1149 12.7027 57.5269 13.0573 57.0042 13.524C56.4816 13.972 56.0429 14.5133 55.6882 15.148C55.3336 15.7827 55.0909 16.4733 54.9602 17.22C54.8109 18.0413 54.8202 18.8347 54.9882 19.6C55.1562 20.3467 55.4642 21.0093 55.9122 21.588C56.3602 22.148 56.9202 22.6053 57.5922 22.96C58.2829 23.296 59.0762 23.464 59.9722 23.464C60.9429 23.464 61.8202 23.212 62.6042 22.708C63.4069 22.1853 64.0976 21.4573 64.6762 20.524L69.0162 23.24C68.5122 23.9867 67.9522 24.668 67.3362 25.284C66.7202 25.9 66.0296 26.432 65.2642 26.88C64.4989 27.3093 63.6496 27.6547 62.7162 27.916C61.8016 28.1587 60.7842 28.28 59.6642 28.28ZM73.7351 7.56H78.6071L75.0231 28H70.1231L73.7351 7.56ZM95.6213 28.28C93.8853 28.2987 92.3546 27.9907 91.0293 27.356C89.7226 26.7213 88.6493 25.872 87.8093 24.808C86.9693 23.7253 86.3906 22.484 86.0733 21.084C85.7559 19.684 85.7279 18.2093 85.9893 16.66C86.2133 15.316 86.6519 14.0747 87.3053 12.936C87.9773 11.7973 88.8079 10.808 89.7973 9.968C90.8053 9.128 91.9439 8.47467 93.2133 8.008C94.4826 7.52267 95.8359 7.28 97.2733 7.28C98.3559 7.28 99.3733 7.42933 100.325 7.728C101.277 8.008 102.136 8.40933 102.901 8.932C103.667 9.436 104.339 10.0427 104.917 10.752C105.496 11.4427 105.963 12.208 106.317 13.048L101.557 15.344C101.221 14.392 100.661 13.608 99.8773 12.992C99.1119 12.376 98.1133 12.068 96.8813 12.068C96.1159 12.068 95.3973 12.1987 94.7253 12.46C94.0719 12.7027 93.4839 13.0573 92.9613 13.524C92.4386 13.972 91.9999 14.5133 91.6453 15.148C91.2906 15.7827 91.0479 16.4733 90.9173 17.22C90.7679 18.0413 90.7773 18.8347 90.9453 19.6C91.1133 20.3467 91.4213 21.0093 91.8693 21.588C92.3173 22.148 92.8773 22.6053 93.5493 22.96C94.2399 23.296 95.0333 23.464 95.9293 23.464C96.8999 23.464 97.7773 23.212 98.5613 22.708C99.3639 22.1853 100.055 21.4573 100.633 20.524L104.973 23.24C104.469 23.9867 103.909 24.668 103.293 25.284C102.677 25.9 101.987 26.432 101.221 26.88C100.456 27.3093 99.6066 27.6547 98.6732 27.916C97.7586 28.1587 96.7413 28.28 95.6213 28.28ZM109.608 7.56H124L123.188 12.068H113.696L113.108 15.512H122.6L121.788 20.048H112.296L111.708 23.492H121.2L120.416 28H106.024L109.608 7.56ZM145.722 26.936C144.938 27.3653 144.116 27.7013 143.258 27.944C142.399 28.168 141.522 28.28 140.626 28.28C139.02 28.28 137.574 27.972 136.286 27.356C134.998 26.7213 133.924 25.8813 133.066 24.836C132.226 23.772 131.619 22.5493 131.246 21.168C130.891 19.7867 130.844 18.3307 131.106 16.8C131.33 15.456 131.778 14.2053 132.45 13.048C133.14 11.872 133.98 10.864 134.97 10.024C135.978 9.16533 137.116 8.49333 138.386 8.008C139.655 7.52267 140.99 7.28 142.39 7.28C143.976 7.28 145.404 7.59733 146.674 8.232C147.962 8.848 149.035 9.688 149.894 10.752C150.752 11.7973 151.359 13.0107 151.714 14.392C152.087 15.7733 152.143 17.2293 151.882 18.76C151.695 19.712 151.368 20.6453 150.902 21.56C150.454 22.456 149.903 23.296 149.25 24.08L151.91 28H146.45L145.722 26.936ZM141.018 23.548C141.69 23.548 142.352 23.4453 143.006 23.24L139.17 17.528H144.658L146.394 20.272C146.692 19.656 146.907 19.0027 147.038 18.312C147.187 17.4907 147.168 16.6973 146.982 15.932C146.814 15.1667 146.496 14.4947 146.03 13.916C145.582 13.3187 145.012 12.852 144.322 12.516C143.631 12.1613 142.838 11.984 141.942 11.984C141.158 11.984 140.43 12.124 139.758 12.404C139.086 12.6653 138.488 13.0387 137.966 13.524C137.443 13.9907 137.004 14.5413 136.65 15.176C136.295 15.8107 136.052 16.5013 135.922 17.248C135.772 18.0693 135.791 18.8627 135.978 19.628C136.164 20.3747 136.482 21.0467 136.93 21.644C137.378 22.2227 137.947 22.6893 138.638 23.044C139.328 23.38 140.122 23.548 141.018 23.548ZM161.298 28.28C160.141 28.28 159.067 28.1027 158.078 27.748C157.089 27.3933 156.239 26.8707 155.53 26.18C154.839 25.4893 154.335 24.64 154.018 23.632C153.719 22.624 153.682 21.476 153.906 20.188L156.146 7.56H161.102L158.806 19.964C158.582 21.14 158.731 22.092 159.254 22.82C159.795 23.5293 160.579 23.884 161.606 23.884C162.763 23.884 163.687 23.548 164.378 22.876C165.087 22.1853 165.535 21.3453 165.722 20.356L167.99 7.56H172.946L170.678 20.244C170.454 21.476 170.09 22.596 169.586 23.604C169.101 24.5933 168.466 25.4333 167.682 26.124C166.917 26.8147 166.002 27.3467 164.938 27.72C163.874 28.0933 162.661 28.28 161.298 28.28ZM175.917 7.56H190.309L189.497 12.068H180.005L179.417 15.512H188.909L188.097 20.048H178.605L178.017 23.492H187.509L186.725 28H172.333L175.917 7.56ZM202.174 28.28C200.382 28.28 198.926 27.8227 197.806 26.908C196.705 25.9747 195.949 24.6773 195.538 23.016L200.354 21.588C200.578 23.0067 201.213 23.716 202.258 23.716C202.8 23.716 203.238 23.5293 203.574 23.156C203.91 22.7827 204.134 22.2973 204.246 21.7L206.766 7.56H211.666L209.118 21.924C208.745 23.9213 207.989 25.48 206.85 26.6C205.712 27.72 204.153 28.28 202.174 28.28ZM214.608 7.56H229L228.188 12.068H218.696L218.108 15.512H227.6L226.788 20.048H217.296L216.708 23.492H226.2L225.416 28H211.024L214.608 7.56ZM238.206 7.56H246.354C247.324 7.56 248.267 7.76533 249.182 8.176C250.096 8.568 250.88 9.128 251.534 9.856C252.187 10.584 252.672 11.4613 252.99 12.488C253.307 13.5147 253.354 14.6533 253.13 15.904C252.962 16.968 252.644 17.948 252.178 18.844C251.711 19.7213 251.104 20.4867 250.358 21.14C249.63 21.7933 248.771 22.3067 247.782 22.68C246.792 23.0347 245.682 23.212 244.45 23.212H240.362L239.522 28H234.622L238.206 7.56ZM242.322 11.984L241.146 18.648H244.646C245.691 18.648 246.522 18.3493 247.138 17.752C247.754 17.1547 248.155 16.3613 248.342 15.372C248.416 14.9053 248.398 14.4667 248.286 14.056C248.192 13.6453 248.015 13.2907 247.754 12.992C247.511 12.6747 247.203 12.432 246.83 12.264C246.456 12.0773 246.036 11.984 245.57 11.984H242.322ZM256.991 7.56H265.419C266.539 7.56 267.566 7.756 268.499 8.148C269.432 8.52133 270.216 9.06267 270.851 9.772C271.486 10.4627 271.934 11.2933 272.195 12.264C272.475 13.216 272.512 14.2707 272.307 15.428C272.102 16.604 271.57 17.696 270.711 18.704C269.852 19.6933 268.714 20.4587 267.295 21L270.907 28H265.447L262.479 21.728H259.399L258.307 28H253.407L256.991 7.56ZM261.107 11.928L260.155 17.388H263.487C264.495 17.388 265.326 17.1827 265.979 16.772C266.651 16.3427 267.062 15.708 267.211 14.868C267.286 14.4573 267.286 14.0747 267.211 13.72C267.136 13.3653 266.978 13.0573 266.735 12.796C266.511 12.5347 266.194 12.3293 265.783 12.18C265.391 12.012 264.906 11.928 264.327 11.928H261.107ZM276.05 7.56H290.442L289.63 12.068H280.138L279.55 15.512H289.042L288.23 20.048H278.738L278.15 23.492H287.642L286.858 28H272.466L276.05 7.56ZM285.542 0.979999H290.302L285.066 5.936H281.538L285.542 0.979999ZM293.303 7.56H306.911L306.099 12.096H297.363L296.719 15.764H305.455L304.643 20.3H295.935L294.591 28H289.719L293.303 7.56ZM309.573 7.56H323.965L323.153 12.068H313.661L313.073 15.512H322.565L321.753 20.048H312.261L311.673 23.492H321.165L320.381 28H305.989L309.573 7.56ZM311.981 0.979999H316.517L318.757 5.936H315.425L311.981 0.979999ZM326.827 7.56H335.255C336.375 7.56 337.402 7.756 338.335 8.148C339.268 8.52133 340.052 9.06267 340.687 9.772C341.322 10.4627 341.77 11.2933 342.031 12.264C342.311 13.216 342.348 14.2707 342.143 15.428C341.938 16.604 341.406 17.696 340.547 18.704C339.688 19.6933 338.55 20.4587 337.131 21L340.743 28H335.283L332.315 21.728H329.235L328.143 28H323.243L326.827 7.56ZM330.943 11.928L329.991 17.388H333.323C334.331 17.388 335.162 17.1827 335.815 16.772C336.487 16.3427 336.898 15.708 337.047 14.868C337.122 14.4573 337.122 14.0747 337.047 13.72C336.972 13.3653 336.814 13.0573 336.571 12.796C336.347 12.5347 336.03 12.3293 335.619 12.18C335.227 12.012 334.742 11.928 334.163 11.928H330.943ZM345.885 7.56H360.277L359.465 12.068H349.973L349.385 15.512H358.877L358.065 20.048H348.573L347.985 23.492H357.477L356.693 28H342.301L345.885 7.56ZM369.483 7.56H383.091L382.279 12.096H373.543L372.899 15.764H381.635L380.823 20.3H372.115L370.771 28H365.899L369.483 7.56ZM390.414 7.56H395.118L399.01 28H394.306L393.746 24.808H385.99L384.31 28H379.186L390.414 7.56ZM388.258 20.552H393.018L391.87 13.72L388.258 20.552ZM404.348 7.56H409.22L405.636 28H400.736L404.348 7.56ZM412.413 7.56H420.841C421.961 7.56 422.987 7.756 423.921 8.148C424.854 8.52133 425.638 9.06267 426.273 9.772C426.907 10.4627 427.355 11.2933 427.617 12.264C427.897 13.216 427.934 14.2707 427.729 15.428C427.523 16.604 426.991 17.696 426.133 18.704C425.274 19.6933 424.135 20.4587 422.717 21L426.329 28H420.869L417.901 21.728H414.821L413.729 28H408.829L412.413 7.56ZM416.529 11.928L415.577 17.388H418.909C419.917 17.388 420.747 17.1827 421.401 16.772C422.073 16.3427 422.483 15.708 422.633 14.868C422.707 14.4573 422.707 14.0747 422.633 13.72C422.558 13.3653 422.399 13.0573 422.157 12.796C421.933 12.5347 421.615 12.3293 421.205 12.18C420.813 12.012 420.327 11.928 419.749 11.928H416.529ZM431.471 7.56H445.863L445.051 12.068H435.559L434.971 15.512H444.463L443.651 20.048H434.159L433.571 23.492H443.063L442.279 28H427.887L431.471 7.56ZM461.453 7.56H466.157L470.049 28H465.345L464.785 24.808H457.029L455.349 28H450.225L461.453 7.56ZM459.297 20.552H464.057L462.909 13.72L459.297 20.552ZM458.849 0.979999H463.385L465.625 5.936H462.293L458.849 0.979999ZM481.647 7.56H486.547L483.775 23.324H491.839L491.027 28H478.063L481.647 7.56ZM503.59 7.56H508.294L512.186 28H507.482L506.922 24.808H499.166L497.486 28H492.362L503.59 7.56ZM501.434 20.552H506.194L505.046 13.72L501.434 20.552ZM526.444 28.28C524.652 28.28 523.196 27.8227 522.076 26.908C520.975 25.9747 520.219 24.6773 519.808 23.016L524.624 21.588C524.848 23.0067 525.483 23.716 526.528 23.716C527.069 23.716 527.508 23.5293 527.844 23.156C528.18 22.7827 528.404 22.2973 528.516 21.7L531.036 7.56H535.936L533.388 21.924C533.015 23.9213 532.259 25.48 531.12 26.6C529.981 27.72 528.423 28.28 526.444 28.28ZM544.277 7.56H548.981L552.873 28H548.169L547.609 24.808H539.853L538.173 28H533.049L544.277 7.56ZM542.121 20.552H546.881L545.733 13.72L542.121 20.552ZM558.128 7.56H566.276C567.246 7.56 568.189 7.76533 569.104 8.176C570.018 8.568 570.802 9.128 571.456 9.856C572.109 10.584 572.594 11.4613 572.912 12.488C573.229 13.5147 573.276 14.6533 573.052 15.904C572.884 16.968 572.566 17.948 572.1 18.844C571.633 19.7213 571.026 20.4867 570.28 21.14C569.552 21.7933 568.693 22.3067 567.704 22.68C566.714 23.0347 565.604 23.212 564.372 23.212H560.284L559.444 28H554.544L558.128 7.56ZM562.244 11.984L561.068 18.648H564.568C565.613 18.648 566.444 18.3493 567.06 17.752C567.676 17.1547 568.077 16.3613 568.264 15.372C568.338 14.9053 568.32 14.4667 568.208 14.056C568.114 13.6453 567.937 13.2907 567.676 12.992C567.433 12.6747 567.125 12.432 566.752 12.264C566.378 12.0773 565.958 11.984 565.492 11.984H562.244ZM581.246 7.56H585.95L589.842 28H585.138L584.578 24.808H576.822L575.142 28H570.018L581.246 7.56ZM579.09 20.552H583.85L582.702 13.72L579.09 20.552ZM595.096 7.56H599.912L606.044 20.244L608.284 7.56H613.1L609.516 28H604.84L598.568 15.12L596.3 28H591.512L595.096 7.56ZM622.468 7.56H636.86L636.048 12.068H626.556L625.968 15.512H635.46L634.648 20.048H625.156L624.568 23.492H634.06L633.276 28H618.884L622.468 7.56ZM644.959 21.616L640.367 28H634.711L642.831 17.332L638.547 7.56H643.643L646.163 13.524L650.587 7.56H656.159L648.179 17.892L652.743 28H647.591L644.959 21.616ZM657.714 7.56H665.862C666.832 7.56 667.775 7.76533 668.69 8.176C669.604 8.568 670.388 9.128 671.042 9.856C671.695 10.584 672.18 11.4613 672.498 12.488C672.815 13.5147 672.862 14.6533 672.638 15.904C672.47 16.968 672.152 17.948 671.686 18.844C671.219 19.7213 670.612 20.4867 669.866 21.14C669.138 21.7933 668.279 22.3067 667.29 22.68C666.3 23.0347 665.19 23.212 663.958 23.212H659.87L659.03 28H654.13L657.714 7.56ZM661.83 11.984L660.654 18.648H664.154C665.199 18.648 666.03 18.3493 666.646 17.752C667.262 17.1547 667.663 16.3613 667.85 15.372C667.924 14.9053 667.906 14.4667 667.794 14.056C667.7 13.6453 667.523 13.2907 667.262 12.992C667.019 12.6747 666.711 12.432 666.338 12.264C665.964 12.0773 665.544 11.984 665.078 11.984H661.83ZM684.083 28.28C682.477 28.28 681.031 27.972 679.743 27.356C678.455 26.7213 677.381 25.8813 676.523 24.836C675.683 23.772 675.076 22.5493 674.703 21.168C674.348 19.7867 674.301 18.3307 674.563 16.8C674.787 15.456 675.235 14.2053 675.907 13.048C676.597 11.872 677.437 10.864 678.427 10.024C679.435 9.16533 680.573 8.49333 681.843 8.008C683.112 7.52267 684.447 7.28 685.847 7.28C687.433 7.28 688.861 7.59733 690.131 8.232C691.419 8.848 692.492 9.688 693.351 10.752C694.209 11.7973 694.816 13.0107 695.171 14.392C695.544 15.7733 695.6 17.2293 695.339 18.76C695.115 20.104 694.667 21.364 693.995 22.54C693.341 23.6973 692.52 24.7053 691.531 25.564C690.56 26.404 689.44 27.0667 688.171 27.552C686.901 28.0373 685.539 28.28 684.083 28.28ZM684.475 23.464C685.259 23.464 685.977 23.3333 686.631 23.072C687.303 22.8107 687.9 22.4467 688.423 21.98C688.945 21.5133 689.375 20.972 689.711 20.356C690.047 19.7213 690.28 19.04 690.411 18.312C690.56 17.4907 690.541 16.7067 690.355 15.96C690.187 15.1947 689.879 14.532 689.431 13.972C688.983 13.3933 688.413 12.936 687.723 12.6C687.051 12.2453 686.276 12.068 685.399 12.068C684.615 12.068 683.887 12.208 683.215 12.488C682.561 12.7493 681.973 13.1133 681.451 13.58C680.947 14.028 680.517 14.5693 680.163 15.204C679.827 15.8387 679.593 16.52 679.463 17.248C679.313 18.0693 679.323 18.8533 679.491 19.6C679.677 20.3467 679.995 21.0093 680.443 21.588C680.891 22.148 681.451 22.6053 682.123 22.96C682.813 23.296 683.597 23.464 684.475 23.464Z" fill="white"></path>
</svg>
