<?xml version="1.0" encoding="UTF-8"?>
<svg xmlns="http://www.w3.org/2000/svg" width="479" height="33" viewBox="0 0 479 33" fill="none">
  <path d="M9.86383 32C8.21383 32 7.71883 31.439 7.12483 30.482C3.62683 24.806 -0.00317187 11.639 -0.00317187 9.098C-0.00317187 8.141 0.491828 7.712 1.51483 7.712H5.93683C7.32283 7.712 7.91683 8.141 8.08183 9.23C9.00583 14.906 10.6558 20.747 12.0418 24.278C13.3948 20.747 15.0448 14.906 16.0018 9.23C16.1998 8.141 16.7278 7.712 18.1468 7.712H22.3048C23.3278 7.712 23.8228 8.141 23.8228 9.098C23.8228 11.639 20.1928 24.806 16.6948 30.482C16.1008 31.439 15.6058 32 13.9558 32H9.86383ZM36.2509 32.396C28.3309 32.396 25.0639 28.766 25.0639 19.856C25.0639 10.946 28.3309 7.316 36.2509 7.316C44.1709 7.316 47.4379 10.946 47.4379 19.856C47.4379 28.766 44.1709 32.396 36.2509 32.396ZM36.2509 25.664C38.7919 25.664 39.5509 24.344 39.5509 19.856C39.5509 15.368 38.7589 14.048 36.2509 14.048C33.7429 14.048 32.9509 15.368 32.9509 19.856C32.9509 24.344 33.7099 25.664 36.2509 25.664ZM52.4132 32C51.2582 32 50.7632 31.505 50.7632 30.35V9.362C50.7632 8.207 51.2582 7.712 52.4132 7.712H56.6702C57.8252 7.712 58.3202 8.207 58.3202 9.362V30.35C58.3202 31.505 57.8252 32 56.6702 32H52.4132ZM72.6301 32.396C65.5351 32.396 61.6411 29.096 61.6411 19.856C61.6411 10.616 65.5351 7.316 72.6301 7.316C75.3361 7.316 77.2171 7.844 77.9761 8.108C79.1971 8.471 79.6261 9.197 79.3951 10.418L78.6691 13.916C78.4381 15.005 77.8441 15.368 76.7551 15.005C75.6331 14.609 74.6761 14.312 73.4221 14.312C70.4521 14.312 69.5281 15.599 69.5281 19.856C69.5281 24.113 70.4521 25.4 73.4221 25.4C74.7091 25.4 75.6001 25.202 77.0521 24.773C78.3061 24.41 79.0651 24.674 79.0651 25.829V29.657C79.0651 30.779 78.5371 31.34 77.1841 31.736C75.6661 32.198 74.2471 32.396 72.6301 32.396ZM84.2208 32C83.0658 32 82.5708 31.505 82.5708 30.35V9.362C82.5708 8.207 83.0658 7.712 84.2208 7.712H88.4778C89.6328 7.712 90.1278 8.207 90.1278 9.362V30.35C90.1278 31.505 89.6328 32 88.4778 32H84.2208ZM103.653 32C102.498 32 102.003 31.505 102.003 30.35V9.362C102.003 8.207 102.498 7.712 103.653 7.712H109.527C110.682 7.712 111.375 8.174 111.804 9.23L114.972 16.886H115.104L118.272 9.23C118.701 8.174 119.394 7.712 120.549 7.712H126.093C127.248 7.712 127.743 8.207 127.743 9.362V30.35C127.743 31.505 127.248 32 126.093 32H122.067C120.912 32 120.417 31.505 120.417 30.35V21.374C120.417 20.219 120.45 18.866 120.615 17.81L120.483 17.777C120.252 18.602 119.757 20.054 119.394 20.945L116.16 28.865C115.863 29.624 115.467 29.921 114.873 29.921C114.279 29.921 113.883 29.624 113.586 28.865L110.352 20.945C109.989 20.054 109.461 18.569 109.263 17.777L109.131 17.81C109.296 18.866 109.329 20.219 109.329 21.374V30.35C109.329 31.505 108.834 32 107.679 32H103.653ZM133.366 32C132.211 32 131.716 31.505 131.716 30.35V9.362C131.716 8.207 132.211 7.712 133.366 7.712H147.49C148.645 7.712 149.14 8.207 149.14 9.362V12.662C149.14 13.817 148.645 14.312 147.49 14.312H139.273V16.688H146.137C147.292 16.688 147.787 17.183 147.787 18.338V21.374C147.787 22.529 147.292 23.024 146.137 23.024H139.273V25.4H147.49C148.645 25.4 149.14 25.895 149.14 27.05V30.35C149.14 31.505 148.645 32 147.49 32H133.366ZM158.877 32.396C156.864 32.396 154.785 32.099 152.871 31.571C151.716 31.241 151.254 30.68 151.254 29.558V26.324C151.254 25.169 151.716 24.608 153.135 25.037C154.587 25.466 157.161 25.862 158.679 25.862C160.626 25.862 161.154 25.4 161.154 24.674C161.154 23.981 160.593 23.552 159.075 23.057L156.996 22.364C153.069 21.044 151.551 18.668 151.551 14.873C151.551 10.022 155.313 7.316 161.517 7.316C163.728 7.316 165.345 7.712 167.061 8.273C168.315 8.669 168.744 9.296 168.48 10.583L167.886 13.421C167.655 14.543 167.061 14.873 165.972 14.543C164.619 14.114 163.035 13.85 161.781 13.85C160.296 13.85 159.504 14.213 159.504 15.005C159.504 15.797 160.032 16.193 161.583 16.721L163.662 17.414C167.622 18.734 169.107 21.011 169.107 24.773C169.107 30.218 164.322 32.396 158.877 32.396ZM198.645 32.396C190.857 32.396 187.26 28.436 187.26 19.889C187.26 11.474 191.253 7.316 199.239 7.316C201.021 7.316 203.925 7.877 205.575 8.504C206.928 8.999 207.258 9.527 206.994 10.814L206.268 14.18C206.037 15.302 205.476 15.632 204.354 15.269C202.044 14.477 200.592 14.18 199.239 14.18C196.368 14.18 195.147 15.896 195.147 19.856C195.147 24.509 195.906 25.862 198.546 25.862C200.064 25.862 200.856 25.631 201.648 25.4V23.222H199.866C198.711 23.222 198.216 22.727 198.216 21.572V18.932C198.216 17.777 198.711 17.282 199.866 17.282H206.565C207.72 17.282 208.215 17.777 208.215 18.932V27.083C208.215 28.997 207.918 29.657 206.532 30.482C204.552 31.67 201.483 32.396 198.645 32.396ZM222.069 32.396C214.149 32.396 210.882 28.766 210.882 19.856C210.882 10.946 214.149 7.316 222.069 7.316C229.989 7.316 233.256 10.946 233.256 19.856C233.256 28.766 229.989 32.396 222.069 32.396ZM222.069 25.664C224.61 25.664 225.369 24.344 225.369 19.856C225.369 15.368 224.577 14.048 222.069 14.048C219.561 14.048 218.769 15.368 218.769 19.856C218.769 24.344 219.528 25.664 222.069 25.664ZM246.845 32.396C239.519 32.396 236.483 29.393 236.483 22.232V9.362C236.483 8.207 236.978 7.712 238.133 7.712H242.39C243.545 7.712 244.04 8.207 244.04 9.362V22.133C244.04 24.971 244.601 25.664 246.845 25.664C249.089 25.664 249.65 24.971 249.65 22.133V9.362C249.65 8.207 250.145 7.712 251.3 7.712H255.557C256.712 7.712 257.207 8.207 257.207 9.362V22.232C257.207 29.393 254.171 32.396 246.845 32.396ZM241.334 6.656C240.641 6.656 240.212 6.359 239.915 5.798L239.849 5.666C239.651 5.303 239.585 4.973 239.585 4.676C239.585 4.082 239.981 3.587 240.839 3.158L244.766 1.178C245.393 0.847998 246.119 0.616999 246.845 0.616999C247.571 0.616999 248.297 0.847998 248.924 1.178L252.851 3.158C253.709 3.587 254.105 4.082 254.105 4.676C254.105 4.973 254.039 5.303 253.841 5.666L253.775 5.798C253.478 6.359 253.049 6.656 252.356 6.656C252.026 6.656 251.63 6.59 251.168 6.458L248.033 5.567C247.307 5.369 247.109 5.336 246.845 5.336C246.581 5.336 246.383 5.369 245.657 5.567L242.522 6.458C242.06 6.59 241.664 6.656 241.334 6.656ZM266.981 32C265.826 32 265.331 31.505 265.331 30.35V14.444H261.074C259.919 14.444 259.424 13.949 259.424 12.794V9.362C259.424 8.207 259.919 7.712 261.074 7.712H277.145C278.3 7.712 278.795 8.207 278.795 9.362V12.794C278.795 13.949 278.3 14.444 277.145 14.444H272.888V30.35C272.888 31.505 272.393 32 271.238 32H266.981ZM287.719 32.396C285.706 32.396 283.627 32.099 281.713 31.571C280.558 31.241 280.096 30.68 280.096 29.558V26.324C280.096 25.169 280.558 24.608 281.977 25.037C283.429 25.466 286.003 25.862 287.521 25.862C289.468 25.862 289.996 25.4 289.996 24.674C289.996 23.981 289.435 23.552 287.917 23.057L285.838 22.364C281.911 21.044 280.393 18.668 280.393 14.873C280.393 10.022 284.155 7.316 290.359 7.316C292.57 7.316 294.187 7.712 295.903 8.273C297.157 8.669 297.586 9.296 297.322 10.583L296.728 13.421C296.497 14.543 295.903 14.873 294.814 14.543C293.461 14.114 291.877 13.85 290.623 13.85C289.138 13.85 288.346 14.213 288.346 15.005C288.346 15.797 288.874 16.193 290.425 16.721L292.504 17.414C296.464 18.734 297.949 21.011 297.949 24.773C297.949 30.218 293.164 32.396 287.719 32.396ZM310.451 32C309.296 32 308.801 31.505 308.801 30.35V9.362C308.801 8.207 309.296 7.712 310.451 7.712H318.866C325.895 7.712 329.525 10.649 329.525 16.358C329.525 22.1 325.961 25.004 318.866 25.004H316.358V30.35C316.358 31.505 315.863 32 314.708 32H310.451ZM316.358 18.602H318.965C320.747 18.602 321.638 17.843 321.638 16.358C321.638 14.873 320.747 14.114 318.965 14.114H316.358V18.602ZM346.812 32C345.492 32 344.766 31.538 344.436 30.416C343.776 28.139 343.083 26.423 342.093 24.608H339.948V30.35C339.948 31.505 339.453 32 338.298 32H334.041C332.886 32 332.391 31.505 332.391 30.35V9.362C332.391 8.207 332.886 7.712 334.041 7.712H342.786C349.551 7.712 353.115 10.649 353.115 16.292C353.115 19.559 351.795 21.902 349.32 23.255C350.97 25.565 351.828 27.215 352.653 29.723C353.148 31.208 352.719 32 351.333 32H346.812ZM339.948 18.47H342.555C344.337 18.47 345.228 17.744 345.228 16.292C345.228 14.84 344.337 14.114 342.555 14.114H339.948V18.47ZM357.985 32C356.83 32 356.335 31.505 356.335 30.35V9.362C356.335 8.207 356.83 7.712 357.985 7.712H372.109C373.264 7.712 373.759 8.207 373.759 9.362V12.662C373.759 13.817 373.264 14.312 372.109 14.312H363.892V16.688H370.756C371.911 16.688 372.406 17.183 372.406 18.338V21.374C372.406 22.529 371.911 23.024 370.756 23.024H363.892V25.4H372.109C373.264 25.4 373.759 25.895 373.759 27.05V30.35C373.759 31.505 373.264 32 372.109 32H357.985ZM361.714 6.293C360.724 6.293 360.229 6.029 360.031 5.402L359.998 5.303C359.932 5.072 359.899 4.841 359.899 4.643C359.899 3.95 360.295 3.488 361.318 3.092L366.235 1.211C367.258 0.814998 368.05 0.649998 368.71 0.649998C370.426 0.649998 371.185 1.739 371.185 3.059C371.185 4.379 370.426 5.402 368.941 5.567L363.265 6.194C362.605 6.26 362.077 6.293 361.714 6.293ZM378.707 32C377.552 32 377.057 31.505 377.057 30.35V9.362C377.057 8.207 377.552 7.712 378.707 7.712H392.171C393.326 7.712 393.821 8.207 393.821 9.362V12.794C393.821 13.949 393.326 14.444 392.171 14.444H384.614V17.777H390.818C391.973 17.777 392.468 18.272 392.468 19.427V22.859C392.468 24.014 391.973 24.509 390.818 24.509H384.614V30.35C384.614 31.505 384.119 32 382.964 32H378.707ZM397.85 32C396.695 32 396.2 31.505 396.2 30.35V9.362C396.2 8.207 396.695 7.712 397.85 7.712H411.974C413.129 7.712 413.624 8.207 413.624 9.362V12.662C413.624 13.817 413.129 14.312 411.974 14.312H403.757V16.688H410.621C411.776 16.688 412.271 17.183 412.271 18.338V21.374C412.271 22.529 411.776 23.024 410.621 23.024H403.757V25.4H411.974C413.129 25.4 413.624 25.895 413.624 27.05V30.35C413.624 31.505 413.129 32 411.974 32H397.85ZM401.579 6.293C400.589 6.293 400.094 6.029 399.896 5.402L399.863 5.303C399.797 5.072 399.764 4.841 399.764 4.643C399.764 3.95 400.16 3.488 401.183 3.092L406.1 1.211C407.123 0.814998 407.915 0.649998 408.575 0.649998C410.291 0.649998 411.05 1.739 411.05 3.059C411.05 4.379 410.291 5.402 408.806 5.567L403.13 6.194C402.47 6.26 401.942 6.293 401.579 6.293ZM431.342 32C430.022 32 429.296 31.538 428.966 30.416C428.306 28.139 427.613 26.423 426.623 24.608H424.478V30.35C424.478 31.505 423.983 32 422.828 32H418.571C417.416 32 416.921 31.505 416.921 30.35V9.362C416.921 8.207 417.416 7.712 418.571 7.712H427.316C434.081 7.712 437.645 10.649 437.645 16.292C437.645 19.559 436.325 21.902 433.85 23.255C435.5 25.565 436.358 27.215 437.183 29.723C437.678 31.208 437.249 32 435.863 32H431.342ZM424.478 18.47H427.085C428.867 18.47 429.758 17.744 429.758 16.292C429.758 14.84 428.867 14.114 427.085 14.114H424.478V18.47ZM442.516 32C441.361 32 440.866 31.505 440.866 30.35V9.362C440.866 8.207 441.361 7.712 442.516 7.712H456.64C457.795 7.712 458.29 8.207 458.29 9.362V12.662C458.29 13.817 457.795 14.312 456.64 14.312H448.423V16.688H455.287C456.442 16.688 456.937 17.183 456.937 18.338V21.374C456.937 22.529 456.442 23.024 455.287 23.024H448.423V25.4H456.64C457.795 25.4 458.29 25.895 458.29 27.05V30.35C458.29 31.505 457.795 32 456.64 32H442.516ZM446.245 6.293C445.255 6.293 444.76 6.029 444.562 5.402L444.529 5.303C444.463 5.072 444.43 4.841 444.43 4.643C444.43 3.95 444.826 3.488 445.849 3.092L450.766 1.211C451.789 0.814998 452.581 0.649998 453.241 0.649998C454.957 0.649998 455.716 1.739 455.716 3.059C455.716 4.379 454.957 5.402 453.472 5.567L447.796 6.194C447.136 6.26 446.608 6.293 446.245 6.293ZM468.026 32.396C466.013 32.396 463.934 32.099 462.02 31.571C460.865 31.241 460.403 30.68 460.403 29.558V26.324C460.403 25.169 460.865 24.608 462.284 25.037C463.736 25.466 466.31 25.862 467.828 25.862C469.775 25.862 470.303 25.4 470.303 24.674C470.303 23.981 469.742 23.552 468.224 23.057L466.145 22.364C462.218 21.044 460.7 18.668 460.7 14.873C460.7 10.022 464.462 7.316 470.666 7.316C472.877 7.316 474.494 7.712 476.21 8.273C477.464 8.669 477.893 9.296 477.629 10.583L477.035 13.421C476.804 14.543 476.21 14.873 475.121 14.543C473.768 14.114 472.184 13.85 470.93 13.85C469.445 13.85 468.653 14.213 468.653 15.005C468.653 15.797 469.181 16.193 470.732 16.721L472.811 17.414C476.771 18.734 478.256 21.011 478.256 24.773C478.256 30.218 473.471 32.396 468.026 32.396Z" fill="white"></path>
</svg>
