<?xml version="1.0" encoding="UTF-8"?>
<svg xmlns="http://www.w3.org/2000/svg" width="713" height="24" viewBox="0 0 713 24" fill="none">
  <path d="M7.96982 23L0.319824 5.5H3.84482L10.6698 21.325H8.64482L15.5448 5.5H18.7948L11.1698 23H7.96982ZM28.6706 23.25C27.3039 23.25 26.0456 23.025 24.8956 22.575C23.7456 22.125 22.7456 21.5 21.8956 20.7C21.0456 19.8833 20.3873 18.9333 19.9206 17.85C19.4539 16.75 19.2206 15.55 19.2206 14.25C19.2206 12.95 19.4539 11.7583 19.9206 10.675C20.3873 9.575 21.0456 8.625 21.8956 7.825C22.7456 7.00833 23.7456 6.375 24.8956 5.925C26.0456 5.475 27.2956 5.25 28.6456 5.25C30.0123 5.25 31.2623 5.475 32.3956 5.925C33.5456 6.375 34.5456 7.00833 35.3956 7.825C36.2456 8.625 36.9039 9.575 37.3706 10.675C37.8373 11.7583 38.0706 12.95 38.0706 14.25C38.0706 15.55 37.8373 16.75 37.3706 17.85C36.9039 18.95 36.2456 19.9 35.3956 20.7C34.5456 21.5 33.5456 22.125 32.3956 22.575C31.2623 23.025 30.0206 23.25 28.6706 23.25ZM28.6456 20.4C29.5289 20.4 30.3456 20.25 31.0956 19.95C31.8456 19.65 32.4956 19.225 33.0456 18.675C33.5956 18.1083 34.0206 17.4583 34.3206 16.725C34.6373 15.975 34.7956 15.15 34.7956 14.25C34.7956 13.35 34.6373 12.5333 34.3206 11.8C34.0206 11.05 33.5956 10.4 33.0456 9.85C32.4956 9.28333 31.8456 8.85 31.0956 8.55C30.3456 8.25 29.5289 8.1 28.6456 8.1C27.7623 8.1 26.9456 8.25 26.1956 8.55C25.4623 8.85 24.8123 9.28333 24.2456 9.85C23.6956 10.4 23.2623 11.05 22.9456 11.8C22.6456 12.5333 22.4956 13.35 22.4956 14.25C22.4956 15.1333 22.6456 15.95 22.9456 16.7C23.2623 17.45 23.6956 18.1083 24.2456 18.675C24.7956 19.225 25.4456 19.65 26.1956 19.95C26.9456 20.25 27.7623 20.4 28.6456 20.4ZM41.5155 23V5.5H44.7655V23H41.5155ZM57.5989 23.25C56.2656 23.25 55.0239 23.0333 53.8739 22.6C52.7406 22.15 51.7489 21.525 50.8989 20.725C50.0656 19.9083 49.4156 18.95 48.9489 17.85C48.4823 16.75 48.2489 15.55 48.2489 14.25C48.2489 12.95 48.4823 11.75 48.9489 10.65C49.4156 9.55 50.0739 8.6 50.9239 7.8C51.7739 6.98333 52.7656 6.35833 53.8989 5.925C55.0323 5.475 56.2739 5.25 57.6239 5.25C59.0573 5.25 60.3656 5.5 61.5489 6C62.7323 6.48333 63.7323 7.20833 64.5489 8.175L62.4489 10.15C61.8156 9.46667 61.1073 8.95833 60.3239 8.625C59.5406 8.275 58.6906 8.1 57.7739 8.1C56.8573 8.1 56.0156 8.25 55.2489 8.55C54.4989 8.85 53.8406 9.275 53.2739 9.825C52.7239 10.375 52.2906 11.025 51.9739 11.775C51.6739 12.525 51.5239 13.35 51.5239 14.25C51.5239 15.15 51.6739 15.975 51.9739 16.725C52.2906 17.475 52.7239 18.125 53.2739 18.675C53.8406 19.225 54.4989 19.65 55.2489 19.95C56.0156 20.25 56.8573 20.4 57.7739 20.4C58.6906 20.4 59.5406 20.2333 60.3239 19.9C61.1073 19.55 61.8156 19.025 62.4489 18.325L64.5489 20.325C63.7323 21.275 62.7323 22 61.5489 22.5C60.3656 23 59.0489 23.25 57.5989 23.25ZM67.663 23V5.5H70.913V23H67.663ZM82.5556 23V5.5H85.2306L92.8806 18.275H91.4806L99.0056 5.5H101.681L101.706 23H98.6306L98.6056 10.325H99.2556L92.8556 21H91.4056L84.9056 10.325H85.6556V23H82.5556ZM109.433 12.775H118.133V15.45H109.433V12.775ZM109.683 20.275H119.558V23H106.433V5.5H119.208V8.225H109.683V20.275ZM128.606 23.25C127.239 23.25 125.931 23.0583 124.681 22.675C123.431 22.275 122.439 21.7667 121.706 21.15L122.831 18.625C123.531 19.175 124.397 19.6333 125.431 20C126.464 20.3667 127.522 20.55 128.606 20.55C129.522 20.55 130.264 20.45 130.831 20.25C131.397 20.05 131.814 19.7833 132.081 19.45C132.347 19.1 132.481 18.7083 132.481 18.275C132.481 17.7417 132.289 17.3167 131.906 17C131.522 16.6667 131.022 16.4083 130.406 16.225C129.806 16.025 129.131 15.8417 128.381 15.675C127.647 15.5083 126.906 15.3167 126.156 15.1C125.422 14.8667 124.747 14.575 124.131 14.225C123.531 13.8583 123.039 13.375 122.656 12.775C122.272 12.175 122.081 11.4083 122.081 10.475C122.081 9.525 122.331 8.65833 122.831 7.875C123.347 7.075 124.122 6.44167 125.156 5.975C126.206 5.49167 127.531 5.25 129.131 5.25C130.181 5.25 131.222 5.38333 132.256 5.65C133.289 5.91667 134.189 6.3 134.956 6.8L133.931 9.325C133.147 8.85833 132.339 8.51667 131.506 8.3C130.672 8.06667 129.872 7.95 129.106 7.95C128.206 7.95 127.472 8.05833 126.906 8.275C126.356 8.49167 125.947 8.775 125.681 9.125C125.431 9.475 125.306 9.875 125.306 10.325C125.306 10.8583 125.489 11.2917 125.856 11.625C126.239 11.9417 126.731 12.1917 127.331 12.375C127.947 12.5583 128.631 12.7417 129.381 12.925C130.131 13.0917 130.872 13.2833 131.606 13.5C132.356 13.7167 133.031 14 133.631 14.35C134.247 14.7 134.739 15.175 135.106 15.775C135.489 16.375 135.681 17.1333 135.681 18.05C135.681 18.9833 135.422 19.85 134.906 20.65C134.406 21.4333 133.631 22.0667 132.581 22.55C131.531 23.0167 130.206 23.25 128.606 23.25ZM145.812 23V5.5H148.487L156.137 18.275H154.737L162.262 5.5H164.937L164.962 23H161.887L161.862 10.325H162.512L156.112 21H154.662L148.162 10.325H148.912V23H145.812ZM167.214 23L175.089 5.5H178.289L186.189 23H182.789L176.014 7.225H177.314L170.564 23H167.214ZM170.839 18.95L171.714 16.4H181.164L182.039 18.95H170.839ZM188.415 23V5.5H191.09L202.065 18.975H200.74V5.5H203.965V23H201.29L190.315 9.525H191.64V23H188.415ZM216.829 23.25C215.463 23.25 214.204 23.0333 213.054 22.6C211.921 22.15 210.929 21.525 210.079 20.725C209.229 19.9083 208.571 18.95 208.104 17.85C207.638 16.75 207.404 15.55 207.404 14.25C207.404 12.95 207.638 11.75 208.104 10.65C208.571 9.55 209.229 8.6 210.079 7.8C210.946 6.98333 211.954 6.35833 213.104 5.925C214.254 5.475 215.513 5.25 216.879 5.25C218.363 5.25 219.696 5.49167 220.879 5.975C222.079 6.45833 223.088 7.16667 223.904 8.1L221.854 10.1C221.171 9.41667 220.429 8.91667 219.629 8.6C218.846 8.26667 217.979 8.1 217.029 8.1C216.113 8.1 215.263 8.25 214.479 8.55C213.696 8.85 213.021 9.275 212.454 9.825C211.888 10.375 211.446 11.025 211.129 11.775C210.829 12.525 210.679 13.35 210.679 14.25C210.679 15.1333 210.829 15.95 211.129 16.7C211.446 17.45 211.888 18.1083 212.454 18.675C213.021 19.225 213.688 19.65 214.454 19.95C215.221 20.25 216.071 20.4 217.004 20.4C217.871 20.4 218.704 20.2667 219.504 20C220.321 19.7167 221.096 19.25 221.829 18.6L223.679 21.025C222.763 21.7583 221.696 22.3167 220.479 22.7C219.279 23.0667 218.063 23.25 216.829 23.25ZM220.604 20.6V14.05H223.679V21.025L220.604 20.6ZM225.491 23L233.366 5.5H236.566L244.466 23H241.066L234.291 7.225H235.591L228.841 23H225.491ZM229.116 18.95L229.991 16.4H239.441L240.316 18.95H229.116ZM252.116 23.25C250.75 23.25 249.441 23.0583 248.191 22.675C246.941 22.275 245.95 21.7667 245.216 21.15L246.341 18.625C247.041 19.175 247.908 19.6333 248.941 20C249.975 20.3667 251.033 20.55 252.116 20.55C253.033 20.55 253.775 20.45 254.341 20.25C254.908 20.05 255.325 19.7833 255.591 19.45C255.858 19.1 255.991 18.7083 255.991 18.275C255.991 17.7417 255.8 17.3167 255.416 17C255.033 16.6667 254.533 16.4083 253.916 16.225C253.316 16.025 252.641 15.8417 251.891 15.675C251.158 15.5083 250.416 15.3167 249.666 15.1C248.933 14.8667 248.258 14.575 247.641 14.225C247.041 13.8583 246.55 13.375 246.166 12.775C245.783 12.175 245.591 11.4083 245.591 10.475C245.591 9.525 245.841 8.65833 246.341 7.875C246.858 7.075 247.633 6.44167 248.666 5.975C249.716 5.49167 251.041 5.25 252.641 5.25C253.691 5.25 254.733 5.38333 255.766 5.65C256.8 5.91667 257.7 6.3 258.466 6.8L257.441 9.325C256.658 8.85833 255.85 8.51667 255.016 8.3C254.183 8.06667 253.383 7.95 252.616 7.95C251.716 7.95 250.983 8.05833 250.416 8.275C249.866 8.49167 249.458 8.775 249.191 9.125C248.941 9.475 248.816 9.875 248.816 10.325C248.816 10.8583 249 11.2917 249.366 11.625C249.75 11.9417 250.241 12.1917 250.841 12.375C251.458 12.5583 252.141 12.7417 252.891 12.925C253.641 13.0917 254.383 13.2833 255.116 13.5C255.866 13.7167 256.541 14 257.141 14.35C257.758 14.7 258.25 15.175 258.616 15.775C259 16.375 259.191 17.1333 259.191 18.05C259.191 18.9833 258.933 19.85 258.416 20.65C257.916 21.4333 257.141 22.0667 256.091 22.55C255.041 23.0167 253.716 23.25 252.116 23.25ZM269.323 23V5.5H276.523C278.073 5.5 279.398 5.75 280.498 6.25C281.615 6.75 282.473 7.46667 283.073 8.4C283.673 9.33333 283.973 10.4417 283.973 11.725C283.973 13.0083 283.673 14.1167 283.073 15.05C282.473 15.9833 281.615 16.7 280.498 17.2C279.398 17.7 278.073 17.95 276.523 17.95H271.123L272.573 16.425V23H269.323ZM272.573 16.775L271.123 15.2H276.373C277.806 15.2 278.881 14.9 279.598 14.3C280.331 13.6833 280.698 12.825 280.698 11.725C280.698 10.6083 280.331 9.75 279.598 9.15C278.881 8.55 277.806 8.25 276.373 8.25H271.123L272.573 6.65V16.775ZM287.219 23V5.5H294.419C295.969 5.5 297.294 5.75 298.394 6.25C299.51 6.75 300.369 7.46667 300.969 8.4C301.569 9.33333 301.869 10.4417 301.869 11.725C301.869 13.0083 301.569 14.1167 300.969 15.05C300.369 15.9667 299.51 16.675 298.394 17.175C297.294 17.6583 295.969 17.9 294.419 17.9H289.019L290.469 16.425V23H287.219ZM298.669 23L294.244 16.65H297.719L302.169 23H298.669ZM290.469 16.775L289.019 15.225H294.269C295.702 15.225 296.777 14.9167 297.494 14.3C298.227 13.6833 298.594 12.825 298.594 11.725C298.594 10.6083 298.227 9.75 297.494 9.15C296.777 8.55 295.702 8.25 294.269 8.25H289.019L290.469 6.65V16.775ZM308.505 12.775H317.205V15.45H308.505V12.775ZM308.755 20.275H318.63V23H305.505V5.5H318.28V8.225H308.755V20.275ZM309.83 4.075L313.205 0.649999H316.88L312.53 4.075H309.83ZM325.228 13.55H333.953V16.3H325.228V13.55ZM325.503 23H322.253V5.5H335.028V8.225H325.503V23ZM341.171 12.775H349.871V15.45H341.171V12.775ZM341.421 20.275H351.296V23H338.171V5.5H350.946V8.225H341.421V20.275ZM342.496 4.075L345.871 0.649999H349.546L345.196 4.075H342.496ZM354.919 23V5.5H362.119C363.669 5.5 364.994 5.75 366.094 6.25C367.211 6.75 368.069 7.46667 368.669 8.4C369.269 9.33333 369.569 10.4417 369.569 11.725C369.569 13.0083 369.269 14.1167 368.669 15.05C368.069 15.9667 367.211 16.675 366.094 17.175C364.994 17.6583 363.669 17.9 362.119 17.9H356.719L358.169 16.425V23H354.919ZM366.369 23L361.944 16.65H365.419L369.869 23H366.369ZM358.169 16.775L356.719 15.225H361.969C363.402 15.225 364.477 14.9167 365.194 14.3C365.927 13.6833 366.294 12.825 366.294 11.725C366.294 10.6083 365.927 9.75 365.194 9.15C364.477 8.55 363.402 8.25 361.969 8.25H356.719L358.169 6.65V16.775ZM376.205 12.775H384.905V15.45H376.205V12.775ZM376.455 20.275H386.33V23H373.205V5.5H385.98V8.225H376.455V20.275ZM377.53 4.075L380.905 0.649999H384.58L380.23 4.075H377.53ZM395.378 23.25C394.011 23.25 392.703 23.0583 391.453 22.675C390.203 22.275 389.211 21.7667 388.478 21.15L389.603 18.625C390.303 19.175 391.17 19.6333 392.203 20C393.236 20.3667 394.295 20.55 395.378 20.55C396.295 20.55 397.036 20.45 397.603 20.25C398.17 20.05 398.586 19.7833 398.853 19.45C399.12 19.1 399.253 18.7083 399.253 18.275C399.253 17.7417 399.061 17.3167 398.678 17C398.295 16.6667 397.795 16.4083 397.178 16.225C396.578 16.025 395.903 15.8417 395.153 15.675C394.42 15.5083 393.678 15.3167 392.928 15.1C392.195 14.8667 391.52 14.575 390.903 14.225C390.303 13.8583 389.811 13.375 389.428 12.775C389.045 12.175 388.853 11.4083 388.853 10.475C388.853 9.525 389.103 8.65833 389.603 7.875C390.12 7.075 390.895 6.44167 391.928 5.975C392.978 5.49167 394.303 5.25 395.903 5.25C396.953 5.25 397.995 5.38333 399.028 5.65C400.061 5.91667 400.961 6.3 401.728 6.8L400.703 9.325C399.92 8.85833 399.111 8.51667 398.278 8.3C397.445 8.06667 396.645 7.95 395.878 7.95C394.978 7.95 394.245 8.05833 393.678 8.275C393.128 8.49167 392.72 8.775 392.453 9.125C392.203 9.475 392.078 9.875 392.078 10.325C392.078 10.8583 392.261 11.2917 392.628 11.625C393.011 11.9417 393.503 12.1917 394.103 12.375C394.72 12.5583 395.403 12.7417 396.153 12.925C396.903 13.0917 397.645 13.2833 398.378 13.5C399.128 13.7167 399.803 14 400.403 14.35C401.02 14.7 401.511 15.175 401.878 15.775C402.261 16.375 402.453 17.1333 402.453 18.05C402.453 18.9833 402.195 19.85 401.678 20.65C401.178 21.4333 400.403 22.0667 399.353 22.55C398.303 23.0167 396.978 23.25 395.378 23.25ZM412.585 23V5.5H420.235C422.135 5.5 423.802 5.86667 425.235 6.6C426.668 7.33333 427.785 8.35 428.585 9.65C429.385 10.95 429.785 12.4833 429.785 14.25C429.785 16 429.385 17.5333 428.585 18.85C427.785 20.15 426.668 21.1667 425.235 21.9C423.802 22.6333 422.135 23 420.235 23H412.585ZM415.835 20.25H420.085C421.402 20.25 422.535 20 423.485 19.5C424.452 19 425.193 18.3 425.71 17.4C426.243 16.5 426.51 15.45 426.51 14.25C426.51 13.0333 426.243 11.9833 425.71 11.1C425.193 10.2 424.452 9.5 423.485 9C422.535 8.5 421.402 8.25 420.085 8.25H415.835V20.25ZM433.239 23V5.5H436.489V23H433.239ZM446.648 23.25C445.281 23.25 443.973 23.0583 442.723 22.675C441.473 22.275 440.481 21.7667 439.748 21.15L440.873 18.625C441.573 19.175 442.439 19.6333 443.473 20C444.506 20.3667 445.564 20.55 446.648 20.55C447.564 20.55 448.306 20.45 448.873 20.25C449.439 20.05 449.856 19.7833 450.123 19.45C450.389 19.1 450.523 18.7083 450.523 18.275C450.523 17.7417 450.331 17.3167 449.948 17C449.564 16.6667 449.064 16.4083 448.448 16.225C447.848 16.025 447.173 15.8417 446.423 15.675C445.689 15.5083 444.948 15.3167 444.198 15.1C443.464 14.8667 442.789 14.575 442.173 14.225C441.573 13.8583 441.081 13.375 440.698 12.775C440.314 12.175 440.123 11.4083 440.123 10.475C440.123 9.525 440.373 8.65833 440.873 7.875C441.389 7.075 442.164 6.44167 443.198 5.975C444.248 5.49167 445.573 5.25 447.173 5.25C448.223 5.25 449.264 5.38333 450.298 5.65C451.331 5.91667 452.231 6.3 452.998 6.8L451.973 9.325C451.189 8.85833 450.381 8.51667 449.548 8.3C448.714 8.06667 447.914 7.95 447.148 7.95C446.248 7.95 445.514 8.05833 444.948 8.275C444.398 8.49167 443.989 8.775 443.723 9.125C443.473 9.475 443.348 9.875 443.348 10.325C443.348 10.8583 443.531 11.2917 443.898 11.625C444.281 11.9417 444.773 12.1917 445.373 12.375C445.989 12.5583 446.673 12.7417 447.423 12.925C448.173 13.0917 448.914 13.2833 449.648 13.5C450.398 13.7167 451.073 14 451.673 14.35C452.289 14.7 452.781 15.175 453.148 15.775C453.531 16.375 453.723 17.1333 453.723 18.05C453.723 18.9833 453.464 19.85 452.948 20.65C452.448 21.4333 451.673 22.0667 450.623 22.55C449.573 23.0167 448.248 23.25 446.648 23.25ZM456.945 23V5.5H464.145C465.695 5.5 467.02 5.75 468.12 6.25C469.237 6.75 470.095 7.46667 470.695 8.4C471.295 9.33333 471.595 10.4417 471.595 11.725C471.595 13.0083 471.295 14.1167 470.695 15.05C470.095 15.9833 469.237 16.7 468.12 17.2C467.02 17.7 465.695 17.95 464.145 17.95H458.745L460.195 16.425V23H456.945ZM460.195 16.775L458.745 15.2H463.995C465.429 15.2 466.504 14.9 467.22 14.3C467.954 13.6833 468.32 12.825 468.32 11.725C468.32 10.6083 467.954 9.75 467.22 9.15C466.504 8.55 465.429 8.25 463.995 8.25H458.745L460.195 6.65V16.775ZM483.285 23.25C481.918 23.25 480.66 23.025 479.51 22.575C478.36 22.125 477.36 21.5 476.51 20.7C475.66 19.8833 475.002 18.9333 474.535 17.85C474.068 16.75 473.835 15.55 473.835 14.25C473.835 12.95 474.068 11.7583 474.535 10.675C475.002 9.575 475.66 8.625 476.51 7.825C477.36 7.00833 478.36 6.375 479.51 5.925C480.66 5.475 481.91 5.25 483.26 5.25C484.627 5.25 485.877 5.475 487.01 5.925C488.16 6.375 489.16 7.00833 490.01 7.825C490.86 8.625 491.518 9.575 491.985 10.675C492.452 11.7583 492.685 12.95 492.685 14.25C492.685 15.55 492.452 16.75 491.985 17.85C491.518 18.95 490.86 19.9 490.01 20.7C489.16 21.5 488.16 22.125 487.01 22.575C485.877 23.025 484.635 23.25 483.285 23.25ZM483.26 20.4C484.143 20.4 484.96 20.25 485.71 19.95C486.46 19.65 487.11 19.225 487.66 18.675C488.21 18.1083 488.635 17.4583 488.935 16.725C489.252 15.975 489.41 15.15 489.41 14.25C489.41 13.35 489.252 12.5333 488.935 11.8C488.635 11.05 488.21 10.4 487.66 9.85C487.11 9.28333 486.46 8.85 485.71 8.55C484.96 8.25 484.143 8.1 483.26 8.1C482.377 8.1 481.56 8.25 480.81 8.55C480.077 8.85 479.427 9.28333 478.86 9.85C478.31 10.4 477.877 11.05 477.56 11.8C477.26 12.5333 477.11 13.35 477.11 14.25C477.11 15.1333 477.26 15.95 477.56 16.7C477.877 17.45 478.31 18.1083 478.86 18.675C479.41 19.225 480.06 19.65 480.81 19.95C481.56 20.25 482.377 20.4 483.26 20.4ZM508.464 23.25C507.097 23.25 505.789 23.0583 504.539 22.675C503.289 22.275 502.297 21.7667 501.564 21.15L502.689 18.625C503.389 19.175 504.256 19.6333 505.289 20C506.322 20.3667 507.381 20.55 508.464 20.55C509.381 20.55 510.122 20.45 510.689 20.25C511.256 20.05 511.672 19.7833 511.939 19.45C512.206 19.1 512.339 18.7083 512.339 18.275C512.339 17.7417 512.147 17.3167 511.764 17C511.381 16.6667 510.881 16.4083 510.264 16.225C509.664 16.025 508.989 15.8417 508.239 15.675C507.506 15.5083 506.764 15.3167 506.014 15.1C505.281 14.8667 504.606 14.575 503.989 14.225C503.389 13.8583 502.897 13.375 502.514 12.775C502.131 12.175 501.939 11.4083 501.939 10.475C501.939 9.525 502.189 8.65833 502.689 7.875C503.206 7.075 503.981 6.44167 505.014 5.975C506.064 5.49167 507.389 5.25 508.989 5.25C510.039 5.25 511.081 5.38333 512.114 5.65C513.147 5.91667 514.047 6.3 514.814 6.8L513.789 9.325C513.006 8.85833 512.197 8.51667 511.364 8.3C510.531 8.06667 509.731 7.95 508.964 7.95C508.064 7.95 507.331 8.05833 506.764 8.275C506.214 8.49167 505.806 8.775 505.539 9.125C505.289 9.475 505.164 9.875 505.164 10.325C505.164 10.8583 505.347 11.2917 505.714 11.625C506.097 11.9417 506.589 12.1917 507.189 12.375C507.806 12.5583 508.489 12.7417 509.239 12.925C509.989 13.0917 510.731 13.2833 511.464 13.5C512.214 13.7167 512.889 14 513.489 14.35C514.106 14.7 514.597 15.175 514.964 15.775C515.347 16.375 515.539 17.1333 515.539 18.05C515.539 18.9833 515.281 19.85 514.764 20.65C514.264 21.4333 513.489 22.0667 512.439 22.55C511.389 23.0167 510.064 23.25 508.464 23.25ZM526.287 23.25C523.887 23.25 522.003 22.575 520.637 21.225C519.287 19.875 518.612 17.925 518.612 15.375V5.5H521.862V15.25C521.862 17.05 522.245 18.3583 523.012 19.175C523.795 19.9917 524.895 20.4 526.312 20.4C527.728 20.4 528.82 19.9917 529.587 19.175C530.353 18.3583 530.737 17.05 530.737 15.25V5.5H533.937V15.375C533.937 17.925 533.253 19.875 531.887 21.225C530.537 22.575 528.67 23.25 526.287 23.25ZM538.488 23V5.5H545.688C547.238 5.5 548.563 5.75 549.663 6.25C550.78 6.75 551.638 7.46667 552.238 8.4C552.838 9.33333 553.138 10.4417 553.138 11.725C553.138 13.0083 552.838 14.1167 552.238 15.05C551.638 15.9667 550.78 16.675 549.663 17.175C548.563 17.6583 547.238 17.9 545.688 17.9H540.288L541.738 16.425V23H538.488ZM549.938 23L545.513 16.65H548.988L553.438 23H549.938ZM541.738 16.775L540.288 15.225H545.538C546.972 15.225 548.047 14.9167 548.763 14.3C549.497 13.6833 549.863 12.825 549.863 11.725C549.863 10.6083 549.497 9.75 548.763 9.15C548.047 8.55 546.972 8.25 545.538 8.25H540.288L541.738 6.65V16.775ZM563.683 23V5.5H566.358L574.008 18.275H572.608L580.133 5.5H582.808L582.833 23H579.758L579.733 10.325H580.383L573.983 21H572.533L566.033 10.325H566.783V23H563.683ZM585.085 23L592.96 5.5H596.16L604.06 23H600.66L593.885 7.225H595.185L588.435 23H585.085ZM588.71 18.95L589.585 16.4H599.035L599.91 18.95H588.71ZM606.286 23V5.5H608.961L619.936 18.975H618.611V5.5H621.836V23H619.161L608.186 9.525H609.511V23H606.286ZM634.7 23.25C633.334 23.25 632.075 23.0333 630.925 22.6C629.792 22.15 628.8 21.525 627.95 20.725C627.1 19.9083 626.442 18.95 625.975 17.85C625.509 16.75 625.275 15.55 625.275 14.25C625.275 12.95 625.509 11.75 625.975 10.65C626.442 9.55 627.1 8.6 627.95 7.8C628.817 6.98333 629.825 6.35833 630.975 5.925C632.125 5.475 633.384 5.25 634.75 5.25C636.234 5.25 637.567 5.49167 638.75 5.975C639.95 6.45833 640.959 7.16667 641.775 8.1L639.725 10.1C639.042 9.41667 638.3 8.91667 637.5 8.6C636.717 8.26667 635.85 8.1 634.9 8.1C633.984 8.1 633.134 8.25 632.35 8.55C631.567 8.85 630.892 9.275 630.325 9.825C629.759 10.375 629.317 11.025 629 11.775C628.7 12.525 628.55 13.35 628.55 14.25C628.55 15.1333 628.7 15.95 629 16.7C629.317 17.45 629.759 18.1083 630.325 18.675C630.892 19.225 631.559 19.65 632.325 19.95C633.092 20.25 633.942 20.4 634.875 20.4C635.742 20.4 636.575 20.2667 637.375 20C638.192 19.7167 638.967 19.25 639.7 18.6L641.55 21.025C640.634 21.7583 639.567 22.3167 638.35 22.7C637.15 23.0667 635.934 23.25 634.7 23.25ZM638.475 20.6V14.05H641.55V21.025L638.475 20.6ZM643.362 23L651.237 5.5H654.437L662.337 23H658.937L652.162 7.225H653.462L646.712 23H643.362ZM646.987 18.95L647.862 16.4H657.312L658.187 18.95H646.987ZM669.987 23.25C668.621 23.25 667.312 23.0583 666.062 22.675C664.812 22.275 663.821 21.7667 663.087 21.15L664.212 18.625C664.912 19.175 665.779 19.6333 666.812 20C667.846 20.3667 668.904 20.55 669.987 20.55C670.904 20.55 671.646 20.45 672.212 20.25C672.779 20.05 673.196 19.7833 673.462 19.45C673.729 19.1 673.862 18.7083 673.862 18.275C673.862 17.7417 673.671 17.3167 673.287 17C672.904 16.6667 672.404 16.4083 671.787 16.225C671.187 16.025 670.512 15.8417 669.762 15.675C669.029 15.5083 668.287 15.3167 667.537 15.1C666.804 14.8667 666.129 14.575 665.512 14.225C664.912 13.8583 664.421 13.375 664.037 12.775C663.654 12.175 663.462 11.4083 663.462 10.475C663.462 9.525 663.712 8.65833 664.212 7.875C664.729 7.075 665.504 6.44167 666.537 5.975C667.587 5.49167 668.912 5.25 670.512 5.25C671.562 5.25 672.604 5.38333 673.637 5.65C674.671 5.91667 675.571 6.3 676.337 6.8L675.312 9.325C674.529 8.85833 673.721 8.51667 672.887 8.3C672.054 8.06667 671.254 7.95 670.487 7.95C669.587 7.95 668.854 8.05833 668.287 8.275C667.737 8.49167 667.329 8.775 667.062 9.125C666.812 9.475 666.687 9.875 666.687 10.325C666.687 10.8583 666.871 11.2917 667.237 11.625C667.621 11.9417 668.112 12.1917 668.712 12.375C669.329 12.5583 670.012 12.7417 670.762 12.925C671.512 13.0917 672.254 13.2833 672.987 13.5C673.737 13.7167 674.412 14 675.012 14.35C675.629 14.7 676.121 15.175 676.487 15.775C676.871 16.375 677.062 17.1333 677.062 18.05C677.062 18.9833 676.804 19.85 676.287 20.65C675.787 21.4333 675.012 22.0667 673.962 22.55C672.912 23.0167 671.587 23.25 669.987 23.25ZM681.473 23.175C680.907 23.175 680.423 22.9833 680.023 22.6C679.623 22.2 679.423 21.7 679.423 21.1C679.423 20.4667 679.623 19.9667 680.023 19.6C680.423 19.2167 680.907 19.025 681.473 19.025C682.04 19.025 682.523 19.2167 682.923 19.6C683.323 19.9667 683.523 20.4667 683.523 21.1C683.523 21.7 683.323 22.2 682.923 22.6C682.523 22.9833 682.04 23.175 681.473 23.175ZM686.877 23V5.5H690.127V23H686.877ZM703.06 23.25C701.694 23.25 700.435 23.025 699.285 22.575C698.135 22.125 697.135 21.5 696.285 20.7C695.435 19.8833 694.777 18.9333 694.31 17.85C693.844 16.75 693.61 15.55 693.61 14.25C693.61 12.95 693.844 11.7583 694.31 10.675C694.777 9.575 695.435 8.625 696.285 7.825C697.135 7.00833 698.135 6.375 699.285 5.925C700.435 5.475 701.685 5.25 703.035 5.25C704.402 5.25 705.652 5.475 706.785 5.925C707.935 6.375 708.935 7.00833 709.785 7.825C710.635 8.625 711.294 9.575 711.76 10.675C712.227 11.7583 712.46 12.95 712.46 14.25C712.46 15.55 712.227 16.75 711.76 17.85C711.294 18.95 710.635 19.9 709.785 20.7C708.935 21.5 707.935 22.125 706.785 22.575C705.652 23.025 704.41 23.25 703.06 23.25ZM703.035 20.4C703.919 20.4 704.735 20.25 705.485 19.95C706.235 19.65 706.885 19.225 707.435 18.675C707.985 18.1083 708.41 17.4583 708.71 16.725C709.027 15.975 709.185 15.15 709.185 14.25C709.185 13.35 709.027 12.5333 708.71 11.8C708.41 11.05 707.985 10.4 707.435 9.85C706.885 9.28333 706.235 8.85 705.485 8.55C704.735 8.25 703.919 8.1 703.035 8.1C702.152 8.1 701.335 8.25 700.585 8.55C699.852 8.85 699.202 9.28333 698.635 9.85C698.085 10.4 697.652 11.05 697.335 11.8C697.035 12.5333 696.885 13.35 696.885 14.25C696.885 15.1333 697.035 15.95 697.335 16.7C697.652 17.45 698.085 18.1083 698.635 18.675C699.185 19.225 699.835 19.65 700.585 19.95C701.335 20.25 702.152 20.4 703.035 20.4Z" fill="#EBB119"></path>
</svg>
