<svg fill="none" height="43" viewBox="0 0 42 43" width="42" xmlns="http://www.w3.org/2000/svg"><path clip-rule="evenodd" d="m39.2892 36.9442c-.4119-1.0501-.8043-2.1087-1.2661-3.143-1.0013-2.2399-2.2309-4.353-3.5734-6.4036-2.2926-3.5022-4.9184-6.7378-7.8011-9.772-4.3159-4.5434-9.1642-8.40185-14.5289-11.60773-2.63051-1.57191-5.35298-2.96256-8.09564-4.31419-.76713-.37808-1.56348-.68272-2.42007-.762059-.14072-.012981-.32425-.111331-.41863.095789-.0939.20646.05686.3295.17369.45578.3435.37329.75852.65502 1.1897.90929 2.70081 1.59088 5.41997 3.14934 8.10395 4.76898 5.476 3.30384 10.4018 7.31524 14.8304 11.94204 3.6004 3.7615 6.8736 7.7821 9.4987 12.2967 1.4551 2.5024 2.7769 5.0685 3.6452 7.8372.0601.1917.1511.3809.1223.6771-.1494-.1321-.2622-.2273-.3694-.3286-1.6997-1.613-3.3272-3.3028-5.0969-4.8417-.6936-.6032-1.4374-1.1253-2.2852-1.483-.0969-.041-.1993-.1743-.3084-.0454-.0789.0939-.0725.2177-.0263.3335.148.3719.3396.7211.6003 1.0265 1.9771 2.3193 4.1648 4.4215 6.5141 6.3549.8335.6858 1.7567 1.1188 2.8667 1.0098.4024-.0398.5991-.1729.5802-.6168-.1408-3.2785-.4455-6.5422-1.0311-9.7817-.25-1.3847-.4973-2.7694-.8466-4.1357-.0645-.2522-.1124-.471-.4621-.4705-.3776.0007-.3714.2625-.3938.5007-.121 1.2738.0318 2.5416.1935 3.8065.2412 1.8889.499 3.7757.6049 5.6912z" fill="#7367f0" fill-rule="evenodd" stroke="#7367f0"/></svg>