<svg width="46" height="91" viewBox="0 0 46 91" fill="none" xmlns="http://www.w3.org/2000/svg">
<mask id="path-1-outside-1_12983_2282" maskUnits="userSpaceOnUse" x="10.2533" y="3.39983" width="39.8665" height="77.9011" fill="black">
<rect fill="white" x="10.2533" y="3.39983" width="39.8665" height="77.9011"/>
<path d="M26.1335 6.92255C26.5988 6.68928 27.1049 6.55651 27.6519 6.52425L42.2148 5.66521C42.5567 5.64504 42.839 5.7656 43.0619 6.02688C43.2803 6.21982 43.3665 6.48917 43.3203 6.83493L39.3106 76.6392C39.2644 76.9849 39.1135 77.3026 38.8578 77.5921C38.666 77.8092 38.3992 77.9279 38.0573 77.948L23.9046 78.7829C23.5628 78.803 23.2826 78.7167 23.0642 78.5237C22.8413 78.2624 22.753 77.9589 22.7991 77.6132L25.9419 22.9879C25.933 22.8513 25.8557 22.7186 25.7101 22.59C25.5645 22.4613 25.4255 22.4352 25.2932 22.5117L15.4985 25.4564L15.095 25.5831C14.4112 25.6234 14.1133 25.2637 14.2012 24.5038L14.63 13.6729C14.7223 12.9813 15.0673 12.4807 15.6649 12.1711L26.1335 6.92255Z"/>
</mask>
<path d="M26.1335 6.92255L26.9793 8.59247L26.9794 8.59247L26.1335 6.92255ZM43.0619 6.02688L41.6428 7.23325L41.7292 7.33453L41.829 7.42268L43.0619 6.02688ZM43.3203 6.83493L41.4681 6.57724L41.4588 6.64683L41.4548 6.71695L43.3203 6.83493ZM39.3106 76.6392L41.1628 76.8969L41.1721 76.8273L41.1761 76.7572L39.3106 76.6392ZM38.8578 77.5921L37.4536 76.3518L37.4536 76.3519L38.8578 77.5921ZM23.0642 78.5237L21.6451 79.7301L21.7315 79.8314L21.8313 79.9195L23.0642 78.5237ZM22.7991 77.6132L24.6513 77.8709L24.6606 77.8014L24.6646 77.7313L22.7991 77.6132ZM25.9419 22.9879L27.8074 23.1061L27.8139 22.992L27.8065 22.878L25.9419 22.9879ZM25.7101 22.59L24.4772 23.9858L24.4773 23.9858L25.7101 22.59ZM25.2932 22.5117L25.8413 24.2999L26.0484 24.2377L26.2355 24.1296L25.2932 22.5117ZM15.4985 25.4564L14.9505 23.6681L14.9396 23.6713L14.9288 23.6747L15.4985 25.4564ZM15.095 25.5831L15.2161 27.4471L15.4456 27.4335L15.6647 27.3647L15.095 25.5831ZM14.2012 24.5038L16.0575 24.729L16.0656 24.659L16.0684 24.5886L14.2012 24.5038ZM14.63 13.6729L12.7778 13.4152L12.7663 13.5012L12.7629 13.588L14.63 13.6729ZM15.6649 12.1711L14.819 10.5011L14.8079 10.5067L14.7969 10.5124L15.6649 12.1711ZM26.9794 8.59247C27.2077 8.478 27.4656 8.40634 27.773 8.38821L27.5308 4.66028C26.7443 4.70668 25.9899 4.90055 25.2877 5.25262L26.9794 8.59247ZM27.773 8.38821L42.3359 7.52917L42.0937 3.80125L27.5308 4.66028L27.773 8.38821ZM42.3359 7.52917C42.2519 7.53413 42.1137 7.52361 41.9574 7.45687C41.8011 7.39013 41.6976 7.29746 41.6428 7.23325L44.481 4.82052C43.8754 4.11065 43.0225 3.74646 42.0937 3.80125L42.3359 7.52917ZM41.829 7.42268C41.6915 7.3012 41.574 7.1303 41.5107 6.93238C41.4519 6.74841 41.4631 6.61487 41.4681 6.57724L45.1725 7.09262C45.2821 6.27186 45.082 5.32641 44.2948 4.63109L41.829 7.42268ZM41.4548 6.71695L37.4451 76.5212L41.1761 76.7572L45.1858 6.95291L41.4548 6.71695ZM37.4584 76.3815C37.4596 76.3727 37.4617 76.3625 37.4648 76.3521C37.4679 76.3416 37.4713 76.3333 37.474 76.3277C37.4766 76.3221 37.4776 76.3212 37.4752 76.3248C37.4727 76.3285 37.4662 76.3377 37.4536 76.3518L40.2619 78.8323C40.7334 78.2986 41.0626 77.6471 41.1628 76.8969L37.4584 76.3815ZM37.4536 76.3519C37.535 76.2597 37.6377 76.1853 37.7457 76.1373C37.8481 76.0917 37.9209 76.085 37.9362 76.0841L38.1784 79.812C38.9198 79.7683 39.6853 79.4852 40.2619 78.8323L37.4536 76.3519ZM37.9362 76.0841L23.7835 76.9189L24.0257 80.6468L38.1784 79.812L37.9362 76.0841ZM23.7835 76.9189C23.7988 76.918 23.8719 76.9162 23.9795 76.9493C24.0929 76.9843 24.2044 77.0461 24.2971 77.1279L21.8313 79.9195C22.4881 80.4996 23.2843 80.6906 24.0257 80.6468L23.7835 76.9189ZM24.4832 77.3174C24.5298 77.3719 24.5885 77.4639 24.6247 77.5884C24.6607 77.712 24.6589 77.8138 24.6513 77.8709L20.9469 77.3555C20.8321 78.2155 21.0686 79.0543 21.6451 79.7301L24.4832 77.3174ZM24.6646 77.7313L27.8074 23.1061L24.0764 22.8698L20.9336 77.495L24.6646 77.7313ZM27.8065 22.878C27.7542 22.0726 27.3051 21.514 26.943 21.1942L24.4773 23.9858C24.4064 23.9232 24.1118 23.6299 24.0772 23.0979L27.8065 22.878ZM26.943 21.1942C26.7066 20.9854 26.3359 20.7337 25.8314 20.6389C25.2847 20.5362 24.7672 20.6533 24.351 20.8937L26.2355 24.1296C25.9516 24.2936 25.5698 24.3855 25.1619 24.3089C24.7965 24.2403 24.568 24.0659 24.4772 23.9858L26.943 21.1942ZM24.7452 20.7234L14.9505 23.6681L16.0466 27.2447L25.8413 24.2999L24.7452 20.7234ZM14.9288 23.6747L14.5252 23.8015L15.6647 27.3647L16.0682 27.238L14.9288 23.6747ZM14.9739 23.7191C14.9735 23.7191 14.9742 23.7191 14.9739 23.7191C14.9735 23.7191 14.9742 23.7191 14.9739 23.7191C14.9739 23.7191 14.974 23.7191 14.9741 23.7191C14.9742 23.7191 14.9745 23.7191 14.9748 23.7191C14.9754 23.7191 14.9763 23.719 14.9775 23.719C14.98 23.7189 14.9837 23.7189 14.9887 23.719C14.9986 23.7191 15.0142 23.7198 15.0349 23.7219C15.0755 23.726 15.1412 23.7364 15.2236 23.7632C15.4028 23.8215 15.6187 23.9447 15.7955 24.1582C16.1309 24.5632 16.036 24.9149 16.0575 24.729L12.345 24.2786C12.2786 24.8525 12.2887 25.7641 12.922 26.5288C13.6093 27.3588 14.5725 27.485 15.2161 27.4471L14.9739 23.7191ZM16.0684 24.5886L16.4971 13.7577L12.7629 13.588L12.3341 24.419L16.0684 24.5886ZM16.4822 13.9306C16.489 13.8793 16.4978 13.8517 16.5015 13.8418C16.5049 13.8326 16.5049 13.8353 16.499 13.8439C16.4964 13.8476 16.4936 13.8511 16.491 13.854C16.4885 13.8569 16.487 13.8581 16.4875 13.8576C16.4881 13.8572 16.5005 13.8465 16.5328 13.8297L14.7969 10.5124C13.64 11.112 12.9469 12.1486 12.7778 13.4152L16.4822 13.9306ZM16.5107 13.841L26.9793 8.59247L25.2877 5.25262L14.819 10.5011L16.5107 13.841Z" fill="black" mask="url(#path-1-outside-1_12983_2282)"/>
<g filter="url(#filter0_d_12983_2282)">
<path d="M22.1308 10.3112C22.5961 10.0779 23.1022 9.94518 23.6492 9.91292L38.2121 9.05388C38.554 9.03371 38.8363 9.15427 39.0592 9.41556C39.2776 9.60849 39.3638 9.87784 39.3176 10.2236L35.3079 80.0279C35.2618 80.3736 35.1108 80.6913 34.8551 80.9808C34.6633 81.1979 34.3965 81.3165 34.0546 81.3367L19.9019 82.1716C19.5601 82.1917 19.2799 82.1053 19.0615 81.9124C18.8386 81.6511 18.7503 81.3476 18.7964 81.0018L21.9392 26.3766C21.9303 26.2399 21.8531 26.1073 21.7074 25.9786C21.5618 25.85 21.4229 25.8239 21.2906 25.9003L11.4958 28.845L11.0923 28.9718C10.4086 29.0121 10.1107 28.6523 10.1986 27.8925L10.6273 17.0615C10.7197 16.37 11.0646 15.8694 11.6622 15.5597L22.1308 10.3112Z" fill="#FE0000"/>
</g>
<defs>
<filter id="filter0_d_12983_2282" x="0.475587" y="8.98828" width="43.5269" height="81.9641" filterUnits="userSpaceOnUse" color-interpolation-filters="sRGB">
<feFlood flood-opacity="0" result="BackgroundImageFix"/>
<feColorMatrix in="SourceAlpha" type="matrix" values="0 0 0 0 0 0 0 0 0 0 0 0 0 0 0 0 0 0 127 0" result="hardAlpha"/>
<feOffset dx="-4.66973" dy="4.66973"/>
<feGaussianBlur stdDeviation="1.86789"/>
<feComposite in2="hardAlpha" operator="out"/>
<feColorMatrix type="matrix" values="0 0 0 0 0 0 0 0 0 0 0 0 0 0 0 0 0 0 0.15 0"/>
<feBlend mode="normal" in2="BackgroundImageFix" result="effect1_dropShadow_12983_2282"/>
<feBlend mode="normal" in="SourceGraphic" in2="effect1_dropShadow_12983_2282" result="shape"/>
</filter>
</defs>
</svg>
