<svg width="58" height="82" viewBox="0 0 58 82" fill="none" xmlns="http://www.w3.org/2000/svg">
<g filter="url(#filter0_d_10048_93)">
<g filter="url(#filter1_d_10048_93)">
<mask id="path-1-outside-1_10048_93" maskUnits="userSpaceOnUse" x="7.87109" y="4.66707" width="30.2137" height="70.4746" fill="black">
<rect fill="white" x="7.87109" y="4.66707" width="30.2137" height="70.4746"/>
<path d="M36.5408 66.0547C36.8013 70.2627 34.2539 72.6673 31.2098 72.8558C28.0762 73.0497 25.2517 70.9777 24.9912 66.7697L21.9372 17.4375L15.5804 17.831C12.6259 18.0139 10.2213 15.4665 10.0384 12.512C9.85547 9.55742 12.3133 7.15838 15.2679 6.97548L26.6385 6.27157C31.8313 5.9501 32.9769 8.48556 33.1765 11.7087L36.5408 66.0547Z"/>
</mask>
<path d="M36.5408 66.0547C36.8013 70.2627 34.2539 72.6673 31.2098 72.8558C28.0762 73.0497 25.2517 70.9777 24.9912 66.7697L21.9372 17.4375L15.5804 17.831C12.6259 18.0139 10.2213 15.4665 10.0384 12.512C9.85547 9.55742 12.3133 7.15838 15.2679 6.97548L26.6385 6.27157C31.8313 5.9501 32.9769 8.48556 33.1765 11.7087L36.5408 66.0547Z" fill="white"/>
<path d="M21.9372 17.4375L22.8895 17.3786L22.8306 16.4262L21.8782 16.4852L21.9372 17.4375ZM35.5885 66.1137C35.7058 68.0091 35.1896 69.4074 34.3896 70.3422C33.5863 71.2807 32.4368 71.8238 31.1509 71.9034L31.2688 73.8081C33.0269 73.6993 34.6731 72.9458 35.8395 71.583C37.0091 70.2163 37.6363 68.3083 37.4932 65.9958L35.5885 66.1137ZM31.1509 71.9034C29.8131 71.9862 28.583 71.5857 27.6622 70.755C26.7452 69.9278 26.0608 68.6061 25.9435 66.7108L24.0388 66.8287C24.182 69.1413 25.0401 70.9597 26.3839 72.172C27.724 73.3808 29.4729 73.9193 31.2688 73.8081L31.1509 71.9034ZM25.9435 66.7108L22.8895 17.3786L20.9848 17.4965L24.0388 66.8287L25.9435 66.7108ZM21.8782 16.4852L15.5215 16.8787L15.6394 18.7834L21.9962 18.3899L21.8782 16.4852ZM15.5215 16.8787C13.1918 17.0229 11.1475 14.9864 10.9907 12.453L9.08602 12.5709C9.29501 15.9467 12.0599 19.005 15.6394 18.7834L15.5215 16.8787ZM10.9907 12.453C10.8454 10.105 12.8139 8.08339 15.3268 7.92782L15.2089 6.02313C11.8128 6.23337 8.86557 9.00983 9.08602 12.5709L10.9907 12.453ZM15.3268 7.92782L26.6974 7.22392L26.5795 5.31922L15.2089 6.02313L15.3268 7.92782ZM26.6974 7.22392C29.1523 7.07194 30.4053 7.60958 31.0929 8.32304C31.8093 9.06633 32.1279 10.2141 32.2241 11.7677L34.1288 11.6498C34.0254 9.98018 33.6716 8.24864 32.467 6.99878C31.2337 5.71908 29.3175 5.14973 26.5795 5.31922L26.6974 7.22392ZM32.2241 11.7677L35.5885 66.1137L37.4932 65.9958L34.1288 11.6498L32.2241 11.7677Z" fill="#0E67B4" mask="url(#path-1-outside-1_10048_93)"/>
</g>
</g>
<defs>
<filter id="filter0_d_10048_93" x="2.86089" y="0.319375" width="40.8661" height="80.9589" filterUnits="userSpaceOnUse" color-interpolation-filters="sRGB">
<feFlood flood-opacity="0" result="BackgroundImageFix"/>
<feColorMatrix in="SourceAlpha" type="matrix" values="0 0 0 0 0 0 0 0 0 0 0 0 0 0 0 0 0 0 127 0" result="hardAlpha"/>
<feOffset dy="1.24267"/>
<feGaussianBlur stdDeviation="3.10666"/>
<feComposite in2="hardAlpha" operator="out"/>
<feColorMatrix type="matrix" values="0 0 0 0 0 0 0 0 0 0 0 0 0 0 0 0 0 0 0.25 0"/>
<feBlend mode="normal" in2="BackgroundImageFix" result="effect1_dropShadow_10048_93"/>
<feBlend mode="normal" in="SourceGraphic" in2="effect1_dropShadow_10048_93" result="shape"/>
</filter>
<filter id="filter1_d_10048_93" x="1.73484" y="5.29004" width="35.7788" height="75.8716" filterUnits="userSpaceOnUse" color-interpolation-filters="sRGB">
<feFlood flood-opacity="0" result="BackgroundImageFix"/>
<feColorMatrix in="SourceAlpha" type="matrix" values="0 0 0 0 0 0 0 0 0 0 0 0 0 0 0 0 0 0 127 0" result="hardAlpha"/>
<feOffset dx="-4.07743" dy="4.07743"/>
<feGaussianBlur stdDeviation="1.63097"/>
<feComposite in2="hardAlpha" operator="out"/>
<feColorMatrix type="matrix" values="0 0 0 0 0 0 0 0 0 0 0 0 0 0 0 0 0 0 0.15 0"/>
<feBlend mode="normal" in2="BackgroundImageFix" result="effect1_dropShadow_10048_93"/>
<feBlend mode="normal" in="SourceGraphic" in2="effect1_dropShadow_10048_93" result="shape"/>
</filter>
</defs>
</svg>
