<svg width="43" height="74" viewBox="0 0 43 74" fill="none" xmlns="http://www.w3.org/2000/svg">
<g filter="url(#filter0_d_9429_2207)">
<mask id="path-1-outside-1_9429_2207" maskUnits="userSpaceOnUse" x="11.3486" y="3.98463" width="29.534" height="59.4957" fill="black">
<rect fill="white" x="11.3486" y="3.98463" width="29.534" height="59.4957"/>
<path d="M23.0657 7.02008C23.416 6.84358 23.7968 6.7426 24.2081 6.71714L35.1579 6.03927C35.415 6.02336 35.627 6.11345 35.7939 6.30953C35.9577 6.45421 36.0218 6.65666 35.9863 6.91688L32.8131 59.4406C32.7776 59.7009 32.6634 59.9402 32.4705 60.1585C32.3258 60.3223 32.1249 60.4121 31.8679 60.428L21.2265 61.0868C20.9694 61.1027 20.759 61.0383 20.5953 60.8937C20.4283 60.6976 20.3626 60.4694 20.3981 60.2092L22.8851 19.1068C22.8787 19.004 22.8209 18.9043 22.7117 18.8079C22.6026 18.7114 22.4981 18.6921 22.3985 18.7499L15.0285 20.9865L14.7248 21.0827C14.2107 21.1145 13.9876 20.8445 14.0554 20.2727L14.4024 12.1234C14.4734 11.603 14.7338 11.2256 15.1838 10.9913L23.0657 7.02008Z"/>
</mask>
<path d="M23.0657 7.02008L23.6978 8.27456L23.6978 8.27456L23.0657 7.02008ZM35.7939 6.30953L34.7244 7.22018L34.7891 7.29619L34.8639 7.36229L35.7939 6.30953ZM35.9863 6.91688L34.5945 6.72703L34.5874 6.7794L34.5842 6.83217L35.9863 6.91688ZM32.8131 59.4406L34.2049 59.6305L34.212 59.5781L34.2152 59.5254L32.8131 59.4406ZM32.4705 60.1585L31.4177 59.2285L31.4177 59.2285L32.4705 60.1585ZM20.5953 60.8937L19.5257 61.8043L19.5904 61.8803L19.6652 61.9464L20.5953 60.8937ZM20.3981 60.2092L21.7899 60.3991L21.797 60.3468L21.8002 60.2941L20.3981 60.2092ZM22.8851 19.1068L24.2872 19.1916L24.2924 19.1058L24.2871 19.02L22.8851 19.1068ZM22.7117 18.8079L21.7817 19.8607L21.7817 19.8607L22.7117 18.8079ZM22.3985 18.7499L22.8064 20.0941L22.9623 20.0468L23.1032 19.9651L22.3985 18.7499ZM15.0285 20.9865L14.6205 19.6423L14.6124 19.6448L14.6042 19.6474L15.0285 20.9865ZM14.7248 21.0827L14.8116 22.4847L14.9842 22.4741L15.149 22.4218L14.7248 21.0827ZM14.0554 20.2727L15.4503 20.4381L15.4566 20.3854L15.4588 20.3324L14.0554 20.2727ZM14.4024 12.1234L13.0106 11.9336L13.0017 11.9983L12.9989 12.0637L14.4024 12.1234ZM15.1838 10.9913L14.5517 9.73687L14.5433 9.74108L14.535 9.74541L15.1838 10.9913ZM23.6978 8.27456C23.8697 8.18795 24.0637 8.13348 24.2948 8.11917L24.1213 5.31511C23.5299 5.35172 22.9623 5.49921 22.4336 5.7656L23.6978 8.27456ZM24.2948 8.11917L35.2447 7.44131L35.0711 4.63724L24.1213 5.31511L24.2948 8.11917ZM35.2447 7.44131C35.1815 7.44522 35.0777 7.4376 34.9603 7.38773C34.843 7.33786 34.7654 7.26837 34.7244 7.22018L36.8635 5.39888C36.4099 4.86615 35.7695 4.59401 35.0711 4.63724L35.2447 7.44131ZM34.8639 7.36229C34.7608 7.27119 34.6728 7.14288 34.6257 6.99412C34.5819 6.85584 34.5906 6.75535 34.5945 6.72703L37.3781 7.10673C37.4624 6.48901 37.3141 5.77817 36.7239 5.25678L34.8639 7.36229ZM34.5842 6.83217L31.4109 59.3559L34.2152 59.5254L37.3885 7.00159L34.5842 6.83217ZM31.4212 59.2508C31.4221 59.2442 31.4237 59.2365 31.4261 59.2286C31.4285 59.2208 31.431 59.2145 31.433 59.2103C31.435 59.2061 31.4358 59.2054 31.4339 59.2081C31.4321 59.2109 31.4272 59.2178 31.4177 59.2285L33.5232 61.0885C33.8789 60.686 34.1279 60.1952 34.2049 59.6305L31.4212 59.2508ZM31.4177 59.2285C31.4791 59.159 31.5565 59.1028 31.6378 59.0664C31.7149 59.032 31.7696 59.0267 31.7811 59.026L31.9547 61.8301C32.5121 61.7956 33.0882 61.5809 33.5232 61.0885L31.4177 59.2285ZM31.7811 59.026L21.1397 59.6848L21.3133 62.4888L31.9547 61.8301L31.7811 59.026ZM21.1397 59.6848C21.1512 59.6841 21.2061 59.6825 21.2869 59.7072C21.3721 59.7333 21.4558 59.7795 21.5253 59.8409L19.6652 61.9464C20.1577 62.3814 20.7558 62.5234 21.3133 62.4888L21.1397 59.6848ZM21.6648 59.983C21.6997 60.024 21.7436 60.093 21.7706 60.1866C21.7973 60.2795 21.7958 60.3561 21.7899 60.3991L19.0062 60.0194C18.918 60.6666 19.0939 61.2971 19.5257 61.8043L21.6648 59.983ZM21.8002 60.2941L24.2872 19.1916L21.4829 19.022L18.9959 60.1244L21.8002 60.2941ZM24.2871 19.02C24.2496 18.4142 23.9132 17.9949 23.6417 17.7551L21.7817 19.8607C21.7286 19.8138 21.5078 19.5938 21.483 19.1936L24.2871 19.02ZM23.6418 17.7551C23.4645 17.5986 23.1864 17.41 22.8074 17.3398C22.3966 17.2637 22.0073 17.3529 21.6938 17.5347L23.1032 19.9651C22.8894 20.089 22.6021 20.159 22.2957 20.1023C22.0211 20.0514 21.8498 19.9208 21.7817 19.8607L23.6418 17.7551ZM21.9906 17.4057L14.6205 19.6423L15.4364 22.3307L22.8064 20.0941L21.9906 17.4057ZM14.6042 19.6474L14.3006 19.7436L15.149 22.4218L15.4527 22.3256L14.6042 19.6474ZM14.638 19.6807C14.6377 19.6807 14.6383 19.6807 14.638 19.6807C14.6378 19.6807 14.6383 19.6807 14.638 19.6807C14.6381 19.6807 14.6381 19.6807 14.6382 19.6807C14.6383 19.6807 14.6385 19.6807 14.6387 19.6806C14.6391 19.6806 14.6398 19.6806 14.6408 19.6806C14.6426 19.6805 14.6454 19.6805 14.6492 19.6805C14.6566 19.6806 14.6683 19.6811 14.6839 19.6826C14.7144 19.6856 14.7637 19.6933 14.8257 19.7133C14.9602 19.7568 15.1223 19.849 15.2547 20.0092C15.5059 20.3132 15.4337 20.578 15.4503 20.4381L12.6604 20.1073C12.6092 20.5392 12.6148 21.225 13.0891 21.7989C13.6039 22.4219 14.3277 22.5147 14.8116 22.4847L14.638 19.6807ZM15.4588 20.3324L15.8058 12.1832L12.9989 12.0637L12.6519 20.2129L15.4588 20.3324ZM15.7942 12.3133C15.7995 12.2747 15.8061 12.254 15.8089 12.2464C15.8115 12.2396 15.8115 12.2416 15.807 12.248C15.8051 12.2509 15.803 12.2535 15.801 12.2557C15.7991 12.2578 15.798 12.2587 15.7984 12.2584C15.7988 12.2581 15.8082 12.25 15.8325 12.2373L14.535 9.74541C13.664 10.199 13.1406 10.9804 13.0106 11.9336L15.7942 12.3133ZM15.8158 12.2458L23.6978 8.27456L22.4336 5.7656L14.5517 9.73687L15.8158 12.2458Z" fill="#02C8FF" mask="url(#path-1-outside-1_9429_2207)"/>
<g filter="url(#filter1_d_9429_2207)">
<mask id="path-3-outside-2_9429_2207" maskUnits="userSpaceOnUse" x="6.08623" y="10.6028" width="28.4124" height="57.4377" fill="black">
<rect fill="white" x="6.08623" y="10.6028" width="28.4124" height="57.4377"/>
<path d="M16.7434 12.6402C17.0937 12.4637 17.4745 12.3627 17.8858 12.3373L28.8357 11.6594C29.0927 11.6435 29.3047 11.7336 29.4716 11.9296C29.6354 12.0743 29.6996 12.2768 29.6641 12.537L26.4908 65.0608C26.4553 65.321 26.3411 65.5603 26.1482 65.7786C26.0035 65.9424 25.8027 66.0323 25.5456 66.0482L14.9042 66.7069C14.6472 66.7228 14.4368 66.6585 14.273 66.5138C14.106 66.3177 14.0403 66.0895 14.0758 65.8293L16.5628 24.7269C16.5564 24.6241 16.4986 24.5245 16.3895 24.428C16.2803 24.3316 16.1759 24.3122 16.0762 24.37L8.7062 26.6066L8.40253 26.7028C7.88845 26.7346 7.66531 26.4646 7.73312 25.8928L8.08011 17.7435C8.1511 17.2231 8.41157 16.8457 8.86151 16.6115L16.7434 12.6402Z"/>
</mask>
<path d="M16.7434 12.6402C17.0937 12.4637 17.4745 12.3627 17.8858 12.3373L28.8357 11.6594C29.0927 11.6435 29.3047 11.7336 29.4716 11.9296C29.6354 12.0743 29.6996 12.2768 29.6641 12.537L26.4908 65.0608C26.4553 65.321 26.3411 65.5603 26.1482 65.7786C26.0035 65.9424 25.8027 66.0323 25.5456 66.0482L14.9042 66.7069C14.6472 66.7228 14.4368 66.6585 14.273 66.5138C14.106 66.3177 14.0403 66.0895 14.0758 65.8293L16.5628 24.7269C16.5564 24.6241 16.4986 24.5245 16.3895 24.428C16.2803 24.3316 16.1759 24.3122 16.0762 24.37L8.7062 26.6066L8.40253 26.7028C7.88845 26.7346 7.66531 26.4646 7.73312 25.8928L8.08011 17.7435C8.1511 17.2231 8.41157 16.8457 8.86151 16.6115L16.7434 12.6402Z" fill="white"/>
<path d="M16.7434 12.6402L17.0595 13.2674L17.0595 13.2674L16.7434 12.6402ZM29.4716 11.9296L28.9369 12.385L28.9692 12.423L29.0066 12.456L29.4716 11.9296ZM29.6641 12.537L28.9681 12.4421L28.9646 12.4683L28.963 12.4946L29.6641 12.537ZM26.4908 65.0608L27.1867 65.1557L27.1903 65.1295L27.1919 65.1031L26.4908 65.0608ZM26.1482 65.7786L25.6218 65.3136L25.6218 65.3136L26.1482 65.7786ZM14.273 66.5138L13.7382 66.9691L13.7706 67.0071L13.808 67.0402L14.273 66.5138ZM14.0758 65.8293L14.7717 65.9243L14.7753 65.8981L14.7769 65.8717L14.0758 65.8293ZM16.5628 24.7269L17.2639 24.7693L17.2665 24.7264L17.2638 24.6835L16.5628 24.7269ZM16.3895 24.428L15.9245 24.9544L15.9245 24.9544L16.3895 24.428ZM16.0762 24.37L16.2802 25.0421L16.3581 25.0184L16.4286 24.9776L16.0762 24.37ZM8.7062 26.6066L8.50222 25.9345L8.49408 25.9371L8.7062 26.6066ZM8.40253 26.7028L8.44592 27.4038L8.53222 27.3985L8.61465 27.3724L8.40253 26.7028ZM7.73312 25.8928L8.43059 25.9755L8.43372 25.9492L8.43484 25.9227L7.73312 25.8928ZM8.08011 17.7435L7.3842 17.6486L7.37978 17.681L7.37839 17.7137L8.08011 17.7435ZM8.86151 16.6115L8.54545 15.9842L8.53714 15.9885L8.86151 16.6115ZM17.0595 13.2674C17.3206 13.1359 17.608 13.0582 17.9292 13.0383L17.8424 11.6362C17.3411 11.6673 16.8669 11.7915 16.4274 12.013L17.0595 13.2674ZM17.9292 13.0383L28.8791 12.3604L28.7923 10.9584L17.8424 11.6362L17.9292 13.0383ZM28.8791 12.3604C28.8964 12.3593 28.9063 12.3604 28.9103 12.3611C28.9139 12.3616 28.9142 12.3621 28.9127 12.3614C28.9113 12.3608 28.9118 12.3607 28.9147 12.363C28.9179 12.3654 28.9256 12.3717 28.9369 12.385L30.0064 11.4743C29.6961 11.1099 29.2699 10.9288 28.7923 10.9584L28.8791 12.3604ZM29.0066 12.456C29.0032 12.453 28.9962 12.4459 28.9887 12.4345C28.9811 12.4229 28.9759 12.4114 28.973 12.4021C28.9671 12.3836 28.9751 12.3912 28.9681 12.4421L30.36 12.6319C30.4198 12.193 30.3136 11.7363 29.9367 11.4033L29.0066 12.456ZM28.963 12.4946L25.7897 65.0184L27.1919 65.1031L30.3651 12.5794L28.963 12.4946ZM25.7949 64.9658C25.7802 65.0738 25.7334 65.1874 25.6218 65.3136L26.6746 66.2436C26.9489 65.9332 27.1305 65.5681 27.1867 65.1557L25.7949 64.9658ZM25.6218 65.3136C25.6163 65.3198 25.6118 65.3234 25.6023 65.3277C25.5906 65.3329 25.5607 65.3435 25.5022 65.3471L25.589 66.7492C25.9963 66.724 26.3847 66.5717 26.6746 66.2436L25.6218 65.3136ZM25.5022 65.3471L14.8608 66.0059L14.9476 67.4079L25.589 66.7492L25.5022 65.3471ZM14.8608 66.0059C14.8023 66.0095 14.7714 66.0027 14.7591 65.999C14.7491 65.9959 14.7442 65.9929 14.738 65.9874L13.808 67.0402C14.1361 67.33 14.5404 67.4332 14.9476 67.4079L14.8608 66.0059ZM14.8078 66.0585C14.7733 66.0179 14.7626 65.991 14.7717 65.9243L13.3799 65.7344C13.318 66.1881 13.4388 66.6175 13.7382 66.9691L14.8078 66.0585ZM14.7769 65.8717L17.2639 24.7693L15.8617 24.6845L13.3747 65.7869L14.7769 65.8717ZM17.2638 24.6835C17.2419 24.3292 17.0448 24.0698 16.8545 23.9016L15.9245 24.9544C15.9525 24.9792 15.871 24.919 15.8618 24.7703L17.2638 24.6835ZM16.8545 23.9016C16.7386 23.7992 16.5728 23.6905 16.3572 23.6506C16.1257 23.6077 15.9055 23.6571 15.7239 23.7624L16.4286 24.9776C16.3466 25.0251 16.2285 25.0553 16.1014 25.0318C15.9902 25.0112 15.9312 24.9603 15.9245 24.9544L16.8545 23.9016ZM15.8723 23.6979L8.50224 25.9345L8.91016 27.2787L16.2802 25.0421L15.8723 23.6979ZM8.49408 25.9371L8.19041 26.0333L8.61465 27.3724L8.91832 27.2762L8.49408 25.9371ZM8.35913 26.0018C8.32653 26.0038 8.30487 26.0029 8.29249 26.0017C8.28019 26.0004 8.27954 25.9992 8.28746 26.0018C8.29585 26.0045 8.31238 26.011 8.33282 26.0244C8.35369 26.0382 8.37383 26.056 8.39103 26.0768C8.42663 26.1199 8.43001 26.1512 8.42752 26.1376C8.42619 26.1305 8.42393 26.114 8.42365 26.0861C8.42338 26.0583 8.4251 26.0218 8.43059 25.9755L7.03565 25.8101C6.99309 26.169 7.01527 26.6171 7.3082 26.9716C7.62139 27.3506 8.07545 27.4268 8.44592 27.4038L8.35913 26.0018ZM8.43484 25.9227L8.78183 17.7734L7.37839 17.7137L7.0314 25.8629L8.43484 25.9227ZM8.77603 17.8385C8.8175 17.5344 8.9465 17.3591 9.18588 17.2344L8.53714 15.9885C7.87664 16.3324 7.48471 16.9118 7.3842 17.6486L8.77603 17.8385ZM9.17754 17.2387L17.0595 13.2674L16.4274 12.013L8.54548 15.9842L9.17754 17.2387Z" fill="#02C8FF" mask="url(#path-3-outside-2_9429_2207)"/>
</g>
</g>
<defs>
<filter id="filter0_d_9429_2207" x="1.66717" y="0.351705" width="41.0846" height="73.4816" filterUnits="userSpaceOnUse" color-interpolation-filters="sRGB">
<feFlood flood-opacity="0" result="BackgroundImageFix"/>
<feColorMatrix in="SourceAlpha" type="matrix" values="0 0 0 0 0 0 0 0 0 0 0 0 0 0 0 0 0 0 127 0" result="hardAlpha"/>
<feOffset dy="1.07028"/>
<feGaussianBlur stdDeviation="2.67569"/>
<feComposite in2="hardAlpha" operator="out"/>
<feColorMatrix type="matrix" values="0 0 0 0 0 0 0 0 0 0 0 0 0 0 0 0 0 0 0.25 0"/>
<feBlend mode="normal" in2="BackgroundImageFix" result="effect1_dropShadow_9429_2207"/>
<feBlend mode="normal" in="SourceGraphic" in2="effect1_dropShadow_9429_2207" result="shape"/>
</filter>
<filter id="filter1_d_9429_2207" x="0.697333" y="10.9553" width="29.6786" height="62.7775" filterUnits="userSpaceOnUse" color-interpolation-filters="sRGB">
<feFlood flood-opacity="0" result="BackgroundImageFix"/>
<feColorMatrix in="SourceAlpha" type="matrix" values="0 0 0 0 0 0 0 0 0 0 0 0 0 0 0 0 0 0 127 0" result="hardAlpha"/>
<feOffset dx="-3.51179" dy="3.51179"/>
<feGaussianBlur stdDeviation="1.40472"/>
<feComposite in2="hardAlpha" operator="out"/>
<feColorMatrix type="matrix" values="0 0 0 0 0 0 0 0 0 0 0 0 0 0 0 0 0 0 0.15 0"/>
<feBlend mode="normal" in2="BackgroundImageFix" result="effect1_dropShadow_9429_2207"/>
<feBlend mode="normal" in="SourceGraphic" in2="effect1_dropShadow_9429_2207" result="shape"/>
</filter>
</defs>
</svg>
