<svg width="70" height="100" viewBox="0 0 70 100" fill="none" xmlns="http://www.w3.org/2000/svg">
<mask id="path-1-outside-1_12983_2288" maskUnits="userSpaceOnUse" x="10.1893" y="2.81167" width="63.6449" height="80.4984" fill="black">
<rect fill="white" x="10.1893" y="2.81167" width="63.6449" height="80.4984"/>
<path d="M39.9285 64.5259C39.8002 64.6711 39.7403 64.8121 39.7488 64.9488C39.8256 65.0813 39.9666 65.1412 40.1717 65.1285L65.4985 63.5606C66.2504 63.514 66.6518 63.9009 66.7026 64.7212L65.9135 76.9159C65.8664 77.2619 65.7145 77.5801 65.458 77.8705C65.2656 78.0882 64.9985 78.2077 64.6567 78.2289L18.002 81.1171C17.6602 81.1382 17.3805 81.0526 17.1627 80.8602C16.9407 80.5995 16.8533 80.2961 16.9005 79.9501L17.6314 68.4795C17.5933 67.8643 17.835 67.3347 18.3565 66.8907C22.8877 62.4929 28.4921 56.5877 35.1697 49.1751C35.0415 49.3202 37.132 47.0636 41.4411 42.4051C47.875 35.4879 51.1739 30.5831 51.338 27.6909C51.4887 25.6916 50.8744 24.0827 49.4952 22.8643C48.1844 21.6417 46.401 21.1002 44.1452 21.2398C41.821 21.3837 39.9472 22.1516 38.5237 23.5435C37.1002 24.9354 36.3173 26.6994 36.1751 28.8355L36.0198 31.3154C35.9726 31.6614 35.8208 31.9796 35.5642 32.27C35.3035 32.492 35.0022 32.6136 34.6605 32.6347L20.4077 33.5171C20.0659 33.5382 19.7861 33.4526 19.5684 33.2602C19.3464 32.9995 19.2589 32.6961 19.3061 32.3501L19.604 27.1851C20.119 23.3105 21.5522 19.8594 23.9037 16.8317C26.2553 13.8041 29.2643 11.422 32.9309 9.68531C36.5933 7.88032 40.612 6.84241 44.987 6.57157C49.567 6.28804 53.5484 6.86501 56.9311 8.30249C60.3139 9.73996 62.9487 11.8413 64.8354 14.6066C66.7178 17.3035 67.767 20.3951 67.9828 23.8814C68.1859 27.1626 67.5346 30.4967 66.0287 33.8837C64.5187 37.2023 62.1668 40.779 58.9732 44.6136C56.036 48.1578 50.6561 53.8089 42.8332 61.567L39.9285 64.5259Z"/>
</mask>
<path d="M39.9285 64.5259L38.5955 63.2174L38.5611 63.2525L38.5286 63.2893L39.9285 64.5259ZM39.7488 64.9488L37.8845 65.0642L37.9117 65.5043L38.1329 65.8858L39.7488 64.9488ZM66.7026 64.7212L68.5666 64.8418L68.5742 64.7238L68.5669 64.6058L66.7026 64.7212ZM65.9135 76.9159L67.7643 77.1683L67.7733 77.1027L67.7775 77.0365L65.9135 76.9159ZM65.458 77.8705L64.0581 76.6338L64.0581 76.6338L65.458 77.8705ZM17.1627 80.8602L15.7405 82.0712L15.8265 82.1722L15.926 82.2601L17.1627 80.8602ZM16.9005 79.9501L18.7512 80.2026L18.7603 80.136L18.7646 80.0689L16.9005 79.9501ZM17.6314 68.4795L19.4955 68.5983L19.503 68.4812L19.4957 68.3641L17.6314 68.4795ZM18.3565 66.8907L19.5674 68.3129L19.6138 68.2735L19.6574 68.2311L18.3565 66.8907ZM35.1697 49.1751L36.5696 50.4117L33.7819 47.9249L35.1697 49.1751ZM41.4411 42.4051L40.0734 41.133L40.0699 41.1367L41.4411 42.4051ZM51.338 27.6909L49.4754 27.5505L49.4741 27.5678L49.4731 27.5851L51.338 27.6909ZM49.4952 22.8643L48.2212 24.2303L48.2396 24.2475L48.2585 24.2642L49.4952 22.8643ZM38.5237 23.5435L37.2178 22.208L37.2178 22.208L38.5237 23.5435ZM36.1751 28.8355L34.3113 28.7114L34.3108 28.7187L36.1751 28.8355ZM36.0198 31.3154L37.8706 31.5679L37.8798 31.5002L37.8841 31.4321L36.0198 31.3154ZM35.5642 32.27L36.7752 33.6922L36.8762 33.6062L36.9641 33.5067L35.5642 32.27ZM19.5684 33.2602L18.1461 34.4712L18.2322 34.5722L18.3317 34.6601L19.5684 33.2602ZM19.3061 32.3501L21.1569 32.6025L21.1667 32.5304L21.1709 32.4576L19.3061 32.3501ZM19.604 27.1851L17.7524 26.939L17.7432 27.0081L17.7392 27.0776L19.604 27.1851ZM32.9309 9.68531L33.7305 11.3734L33.7436 11.3672L33.7567 11.3608L32.9309 9.68531ZM56.9311 8.30249L56.2006 10.0216L56.9311 8.30249ZM64.8354 14.6066L63.2924 15.6593L63.298 15.6676L63.3037 15.6757L64.8354 14.6066ZM66.0287 33.8837L67.7289 34.6573L67.7322 34.6499L67.7355 34.6425L66.0287 33.8837ZM58.9732 44.6136L57.5379 43.4182L57.5349 43.4217L58.9732 44.6136ZM42.8332 61.567L41.5179 60.2407L41.5091 60.2495L41.5003 60.2585L42.8332 61.567ZM38.5286 63.2893C38.2097 63.6502 37.8346 64.2586 37.8845 65.0642L41.6131 64.8334C41.6461 65.3655 41.3908 65.692 41.3284 65.7626L38.5286 63.2893ZM38.1329 65.8858C38.6869 66.8412 39.6574 67.0318 40.2871 66.9928L40.0562 63.2641C40.1488 63.2584 40.3711 63.2586 40.6427 63.374C40.9442 63.5021 41.2004 63.7284 41.3647 64.0118L38.1329 65.8858ZM40.2871 66.9928L65.6139 65.4249L65.3831 61.6963L40.0562 63.2641L40.2871 66.9928ZM65.6139 65.4249C65.6588 65.4221 65.3624 65.4452 65.0672 65.1607C64.802 64.9051 64.8283 64.6756 64.8383 64.8366L68.5669 64.6058C68.5261 63.9465 68.3263 63.1135 67.6598 62.471C66.9632 61.7996 66.0902 61.6525 65.3831 61.6963L65.6139 65.4249ZM64.8386 64.6006L64.0496 76.7953L67.7775 77.0365L68.5666 64.8418L64.8386 64.6006ZM64.0628 76.6634C64.064 76.6546 64.0661 76.6445 64.0693 76.634C64.0724 76.6235 64.0758 76.6152 64.0785 76.6096C64.0811 76.604 64.0821 76.603 64.0797 76.6067C64.0772 76.6104 64.0707 76.6196 64.0581 76.6338L66.8579 79.1071C67.3308 78.5718 67.6619 77.9192 67.7643 77.1683L64.0628 76.6634ZM64.0581 76.6338C64.1397 76.5414 64.2426 76.4667 64.3507 76.4183C64.4532 76.3724 64.526 76.3655 64.5413 76.3645L64.7721 80.0932C65.5134 80.0473 66.2795 79.7619 66.8579 79.1071L64.0581 76.6338ZM64.5413 76.3645L17.8866 79.2528L18.1174 82.9814L64.7721 80.0932L64.5413 76.3645ZM17.8866 79.2528C17.9019 79.2518 17.975 79.2497 18.0824 79.2826C18.1957 79.3173 18.307 79.3788 18.3994 79.4604L15.926 82.2601C16.5808 82.8386 17.3762 83.0273 18.1174 82.9814L17.8866 79.2528ZM18.5849 79.6493C18.6313 79.7038 18.6897 79.7956 18.7255 79.9201C18.7611 80.0436 18.759 80.1455 18.7512 80.2026L15.0497 79.6976C14.9323 80.5583 15.1662 81.3967 15.7405 82.0712L18.5849 79.6493ZM18.7646 80.0689L19.4955 68.5983L15.7673 68.3608L15.0364 79.8313L18.7646 80.0689ZM19.4957 68.3641C19.4948 68.3494 19.4964 68.3499 19.4943 68.3612C19.4922 68.3731 19.4882 68.386 19.4834 68.3964C19.4789 68.4063 19.4779 68.4049 19.4879 68.3921C19.4985 68.3786 19.5222 68.3514 19.5674 68.3129L17.1456 65.4685C16.2337 66.2449 15.6883 67.3217 15.7671 68.595L19.4957 68.3641ZM19.6574 68.2311C24.2305 63.7926 29.866 57.8534 36.5576 50.4253L33.7819 47.9249C27.1183 55.322 21.5448 61.1933 17.0556 65.5503L19.6574 68.2311ZM33.7699 47.9384C33.7663 47.9425 33.7519 47.9587 33.7353 47.9785C33.7329 47.9813 33.7016 48.0181 33.6658 48.0663C33.6548 48.0812 33.6286 48.1181 33.6135 48.1403C33.5902 48.1758 33.5293 48.2782 33.4936 48.346C33.4225 48.5068 33.2986 49.2742 33.4259 49.8652C34.1434 50.7459 35.6101 50.9955 35.9638 50.8698C36.0765 50.8116 36.2357 50.7117 36.2852 50.6758C36.3136 50.6541 36.3596 50.617 36.3775 50.6019C36.411 50.5733 36.4362 50.5496 36.4455 50.5408C36.4672 50.5204 36.4839 50.5037 36.4891 50.4985C36.5025 50.485 36.5136 50.4735 36.5181 50.4688C36.5373 50.4489 36.5635 50.421 36.5889 50.3938C36.645 50.334 36.7351 50.2372 36.8578 50.1052C37.1042 49.8401 37.489 49.4251 38.0117 48.8608C39.0574 47.732 40.6577 46.0028 42.8123 43.6735L40.0699 41.1367C37.9154 43.4659 36.3159 45.1943 35.2711 46.3221C34.7486 46.8861 34.3655 47.2993 34.1213 47.5621C33.9987 47.6939 33.9129 47.786 33.8624 47.84C33.8345 47.8697 33.8248 47.88 33.8253 47.8795C33.826 47.8787 33.8278 47.8769 33.8303 47.8743C33.8325 47.8721 33.8372 47.8672 33.8436 47.8608C33.8475 47.8569 33.8632 47.8411 33.8842 47.8213C33.8932 47.8129 33.9181 47.7895 33.9514 47.761C33.9692 47.746 34.0151 47.709 34.0434 47.6874C34.0929 47.6515 34.252 47.5516 34.3647 47.4935C34.7183 47.3678 36.185 47.6173 36.9025 48.4981C37.0298 49.0891 36.9059 49.8565 36.8348 50.0171C36.7991 50.085 36.7383 50.1872 36.7151 50.2226C36.7 50.2447 36.6739 50.2815 36.663 50.2963C36.6275 50.344 36.5969 50.38 36.5955 50.3817C36.5866 50.3923 36.5796 50.4003 36.5768 50.4035C36.5734 50.4075 36.5708 50.4104 36.5696 50.4117L33.7699 47.9384ZM42.8089 43.6773C46.0581 40.1839 48.5642 37.1479 50.2906 34.5811C51.9696 32.0849 53.0905 29.7775 53.2029 27.7967L49.4731 27.5851C49.4214 28.4966 48.8108 30.0876 47.1908 32.4962C45.6183 34.8341 43.2581 37.7091 40.0734 41.133L42.8089 43.6773ZM53.2006 27.8313C53.3907 25.3092 52.5927 23.1083 50.7319 21.4644L48.2585 24.2642C49.1561 25.0571 49.5867 26.074 49.4754 27.5505L53.2006 27.8313ZM50.7693 21.4984C48.9907 19.8395 46.6557 19.213 44.0298 19.3755L44.2606 23.1042C46.1464 22.9874 47.378 23.4439 48.2212 24.2303L50.7693 21.4984ZM44.0298 19.3755C41.3383 19.5421 39.0149 20.4508 37.2178 22.208L39.8296 24.8791C40.8795 23.8525 42.3037 23.2253 44.2606 23.1042L44.0298 19.3755ZM37.2178 22.208C35.4397 23.9467 34.4816 26.1542 34.3113 28.7114L38.0388 28.9596C38.153 27.2447 38.7607 25.9242 39.8296 24.8791L37.2178 22.208ZM34.3108 28.7187L34.1556 31.1987L37.8841 31.4321L38.0393 28.9522L34.3108 28.7187ZM34.1691 31.063C34.1703 31.0541 34.1724 31.044 34.1755 31.0335C34.1787 31.023 34.1821 31.0147 34.1848 31.0091C34.1874 31.0035 34.1884 31.0026 34.186 31.0062C34.1835 31.0099 34.1769 31.0191 34.1644 31.0333L36.9641 33.5067C37.437 32.9713 37.7681 32.3187 37.8706 31.5679L34.1691 31.063ZM34.3533 30.8478C34.3675 30.8357 34.3983 30.8139 34.4437 30.7955C34.4891 30.7772 34.5265 30.7716 34.545 30.7704L34.7759 34.4991C35.521 34.4529 36.2067 34.1762 36.7752 33.6922L34.3533 30.8478ZM34.545 30.7704L20.2923 31.6527L20.5231 35.3814L34.7759 34.4991L34.545 30.7704ZM20.2923 31.6527C20.3076 31.6518 20.3807 31.6497 20.4881 31.6826C20.6013 31.7172 20.7126 31.7787 20.805 31.8604L18.3317 34.6601C18.9865 35.2386 19.7819 35.4273 20.5231 35.3814L20.2923 31.6527ZM20.9906 32.0493C21.0369 32.1038 21.0953 32.1956 21.1312 32.3201C21.1668 32.4436 21.1647 32.5455 21.1569 32.6025L17.4554 32.0976C17.338 32.9583 17.5719 33.7967 18.1461 34.4712L20.9906 32.0493ZM21.1709 32.4576L21.4688 27.2927L17.7392 27.0776L17.4414 32.2426L21.1709 32.4576ZM21.4556 27.4312C21.9279 23.8778 23.2345 20.7385 25.3789 17.9775L22.4285 15.6859C19.8699 18.9802 18.31 22.7432 17.7524 26.939L21.4556 27.4312ZM25.3789 17.9775C27.5404 15.1946 30.3126 12.9922 33.7305 11.3734L32.1314 7.99719C28.216 9.85165 24.9701 12.4136 22.4285 15.6859L25.3789 17.9775ZM33.7567 11.3608C37.1812 9.67301 40.956 8.69258 45.1024 8.43589L44.8715 4.70725C40.268 4.99223 36.0055 6.08763 32.1052 8.00985L33.7567 11.3608ZM45.1024 8.43589C49.4632 8.16593 53.1428 8.72219 56.2006 10.0216L57.6617 6.58337C53.954 5.00783 49.6707 4.41015 44.8715 4.70725L45.1024 8.43589ZM56.2006 10.0216C59.2878 11.3335 61.6267 13.218 63.2924 15.6593L66.3783 13.5539C64.2706 10.4646 61.34 8.14644 57.6617 6.58337L56.2006 10.0216ZM63.3037 15.6757C64.9775 18.0736 65.9225 20.8308 66.1185 23.9968L69.8471 23.766C69.6115 19.9594 68.4582 16.5334 66.367 13.5375L63.3037 15.6757ZM66.1185 23.9968C66.3008 26.9417 65.7214 29.977 64.3219 33.1249L67.7355 34.6425C69.3477 31.0164 70.071 27.3834 69.8471 23.766L66.1185 23.9968ZM64.3286 33.1101C62.9077 36.2328 60.6611 39.6682 57.5379 43.4182L60.4085 45.8089C63.6725 41.8898 66.1297 38.1719 67.7289 34.6573L64.3286 33.1101ZM57.5349 43.4217C54.6619 46.8886 49.3404 52.483 41.5179 60.2407L44.1485 62.8933C51.9717 55.1348 57.4101 49.427 60.4114 45.8054L57.5349 43.4217ZM41.5003 60.2585L38.5955 63.2174L41.2615 65.8345L44.1662 62.8755L41.5003 60.2585Z" fill="black" mask="url(#path-1-outside-1_12983_2288)"/>
<g filter="url(#filter0_d_12983_2288)">
<path d="M37.1287 73.9064C36.9989 74.0533 36.9383 74.196 36.9469 74.3344C37.0246 74.4684 37.1673 74.5291 37.3748 74.5162L63.0088 72.9293C63.7699 72.8822 64.1761 73.2738 64.2275 74.104L63.4289 86.4466C63.3811 86.7968 63.2274 87.1189 62.9678 87.4127C62.7731 87.6331 62.5028 87.7541 62.1568 87.7755L14.9364 90.6987C14.5904 90.7201 14.3072 90.6335 14.0868 90.4388C13.8621 90.1749 13.7737 89.8678 13.8214 89.5176L14.5612 77.9079C14.5227 77.2852 14.7673 76.7492 15.2951 76.2998C19.8813 71.8487 25.5536 65.8719 32.3123 58.3693C32.1825 58.5163 34.2983 56.2323 38.6597 51.5173C45.1716 44.5162 48.5105 39.5519 48.6766 36.6247C48.8291 34.6011 48.2074 32.9727 46.8115 31.7395C45.4847 30.5021 43.6797 29.954 41.3965 30.0953C39.0442 30.241 37.1476 31.0182 35.7069 32.427C34.2661 33.8358 33.4738 35.6211 33.3298 37.7831L33.1726 40.2931C33.1249 40.6433 32.9712 40.9654 32.7116 41.2593C32.4477 41.4839 32.1427 41.607 31.7968 41.6284L17.3712 42.5215C17.0253 42.5429 16.7421 42.4562 16.5217 42.2615C16.297 41.9976 16.2085 41.6905 16.2563 41.3403L16.5577 36.1127C17.0789 32.1911 18.5296 28.6981 20.9096 25.6338C23.2897 22.5694 26.3352 20.1584 30.0463 18.4007C33.7531 16.5738 37.8205 15.5233 42.2485 15.2492C46.8841 14.9622 50.9138 15.5462 54.3376 17.0011C57.7614 18.456 60.4281 20.5828 62.3376 23.3816C64.2429 26.1113 65.3048 29.2403 65.5232 32.7689C65.7288 36.0899 65.0696 39.4644 63.5455 42.8925C62.0171 46.2514 59.6367 49.8714 56.4044 53.7525C53.4316 57.3397 47.9864 63.0594 40.0687 70.9115L37.1287 73.9064Z" fill="#FE0000"/>
</g>
<defs>
<filter id="filter0_d_12983_2288" x="0.73864" y="13.8809" width="68.1639" height="85.3961" filterUnits="userSpaceOnUse" color-interpolation-filters="sRGB">
<feFlood flood-opacity="0" result="BackgroundImageFix"/>
<feColorMatrix in="SourceAlpha" type="matrix" values="0 0 0 0 0 0 0 0 0 0 0 0 0 0 0 0 0 0 127 0" result="hardAlpha"/>
<feOffset dx="-4.72636" dy="4.72636"/>
<feGaussianBlur stdDeviation="1.89055"/>
<feComposite in2="hardAlpha" operator="out"/>
<feColorMatrix type="matrix" values="0 0 0 0 0 0 0 0 0 0 0 0 0 0 0 0 0 0 0.15 0"/>
<feBlend mode="normal" in2="BackgroundImageFix" result="effect1_dropShadow_12983_2288"/>
<feBlend mode="normal" in="SourceGraphic" in2="effect1_dropShadow_12983_2288" result="shape"/>
</filter>
</defs>
</svg>
