<svg width="55" height="77" viewBox="0 0 55 77" fill="none" xmlns="http://www.w3.org/2000/svg">
<g filter="url(#filter0_d_10048_101)">
<mask id="path-1-outside-1_10048_101" maskUnits="userSpaceOnUse" x="5.62749" y="-1.51663" width="49.1774" height="71.6486" fill="black">
<rect fill="white" x="5.62749" y="-1.51663" width="49.1774" height="71.6486"/>
<path d="M12.486 66.4529C11.0044 64.2977 11.8507 61.9985 14.2642 58.8832L28.736 37.1362C33.2953 29.4842 38.6041 22.325 35.832 16.7446C34.4012 13.9572 32.2422 12.4731 29.5341 12.2813C27.1785 11.9777 23.5576 13.0107 21.6646 15.8242C20.3319 17.5244 19.7256 20.7975 18.873 24.4453C18.0147 28.0035 15.7645 29.4011 13.0397 28.9407C10.2254 28.4857 8.87307 25.5137 8.90802 23.1748C8.42412 18.2616 10.5541 12.0182 14.0872 8.11462C19.8991 1.82307 28.0133 0.7815 34.2686 1.65251C40.0818 2.64077 44.7349 6.66672 47.0871 12.7225C50.6291 22.03 46.2314 30.8404 39.6453 40.5951L28.0134 57.4029L47.8895 56.1724C50.5755 56.0062 53.2431 58.4474 53.426 61.402C53.6034 64.267 51.14 66.5765 48.1854 66.7594L19.177 68.5552C17.9235 68.6328 14.5435 69.2015 12.486 66.4529Z"/>
</mask>
<path d="M12.486 66.4529C11.0044 64.2977 11.8507 61.9985 14.2642 58.8832L28.736 37.1362C33.2953 29.4842 38.6041 22.325 35.832 16.7446C34.4012 13.9572 32.2422 12.4731 29.5341 12.2813C27.1785 11.9777 23.5576 13.0107 21.6646 15.8242C20.3319 17.5244 19.7256 20.7975 18.873 24.4453C18.0147 28.0035 15.7645 29.4011 13.0397 28.9407C10.2254 28.4857 8.87307 25.5137 8.90802 23.1748C8.42412 18.2616 10.5541 12.0182 14.0872 8.11462C19.8991 1.82307 28.0133 0.7815 34.2686 1.65251C40.0818 2.64077 44.7349 6.66672 47.0871 12.7225C50.6291 22.03 46.2314 30.8404 39.6453 40.5951L28.0134 57.4029L47.8895 56.1724C50.5755 56.0062 53.2431 58.4474 53.426 61.402C53.6034 64.267 51.14 66.5765 48.1854 66.7594L19.177 68.5552C17.9235 68.6328 14.5435 69.2015 12.486 66.4529Z" fill="white"/>
<path d="M12.486 66.4529L11.6997 66.9934L11.7106 67.0093L11.7221 67.0247L12.486 66.4529ZM14.2642 58.8832L15.0185 59.4676L15.0396 59.4404L15.0586 59.4118L14.2642 58.8832ZM28.736 37.1362L29.5304 37.6648L29.5435 37.6451L29.5557 37.6246L28.736 37.1362ZM35.832 16.7446L36.6866 16.3201L36.6809 16.3089L35.832 16.7446ZM29.5341 12.2813L29.4121 13.2276L29.4393 13.2311L29.4666 13.233L29.5341 12.2813ZM21.6646 15.8242L22.4156 16.4128L22.437 16.3856L22.4563 16.3568L21.6646 15.8242ZM18.873 24.4453L19.8005 24.669L19.8021 24.6625L18.873 24.4453ZM13.0397 28.9407L13.1987 27.9998L13.192 27.9987L13.0397 28.9407ZM8.90802 23.1748L9.86209 23.189L9.86289 23.135L9.8576 23.0813L8.90802 23.1748ZM14.0872 8.11462L13.3863 7.46714L13.3798 7.47433L14.0872 8.11462ZM34.2686 1.65251L34.4285 0.711837L34.4144 0.709435L34.4002 0.707459L34.2686 1.65251ZM47.0871 12.7225L47.9789 12.3831L47.9765 12.377L47.0871 12.7225ZM39.6453 40.5951L40.4299 41.1382L40.4361 41.1291L39.6453 40.5951ZM28.0134 57.4029L27.2288 56.8599L26.1098 58.4767L28.0723 58.3552L28.0134 57.4029ZM13.2723 65.9124C12.6984 65.0776 12.5758 64.2537 12.8366 63.2733C13.1142 62.2292 13.8322 60.9988 15.0185 59.4676L13.5099 58.2988C12.2827 59.8829 11.3708 61.3597 10.9923 62.7829C10.5969 64.2698 10.792 65.6731 11.6997 66.9934L13.2723 65.9124ZM15.0586 59.4118L29.5304 37.6648L27.9416 36.6076L13.4699 58.3546L15.0586 59.4118ZM29.5557 37.6246C31.7968 33.8634 34.3229 30.0655 35.9033 26.5553C37.4845 23.0436 38.2708 19.5093 36.6866 16.3201L34.9775 17.1691C36.1654 19.5604 35.6833 22.3958 34.1632 25.7718C32.6425 29.1493 30.2345 32.7571 27.9163 36.6478L29.5557 37.6246ZM36.6809 16.3089C35.1178 13.2637 32.6839 11.5478 29.6015 11.3295L29.4666 13.233C31.8005 13.3984 33.6847 14.6507 34.9832 17.1804L36.6809 16.3089ZM29.656 11.3349C27.0132 10.9943 23.0047 12.1232 20.873 15.2915L22.4563 16.3568C24.1105 13.8983 27.3438 12.9611 29.4121 13.2276L29.656 11.3349ZM20.9137 15.2355C20.1264 16.2399 19.6016 17.6361 19.1713 19.1423C18.7381 20.6588 18.3629 22.4351 17.9438 24.2281L19.8021 24.6625C20.2356 22.8077 20.59 21.1235 21.0062 19.6665C21.4254 18.1992 21.8701 17.1087 22.4156 16.4128L20.9137 15.2355ZM17.9454 24.2216C17.5528 25.8491 16.872 26.8619 16.0942 27.429C15.3271 27.9882 14.3548 28.1952 13.1987 27.9998L12.8807 29.8815C14.4494 30.1466 15.9646 29.885 17.2184 28.971C18.4615 28.0648 19.3348 26.5997 19.8005 24.669L17.9454 24.2216ZM13.192 27.9987C12.1121 27.8242 11.2865 27.1699 10.7136 26.257C10.1325 25.3311 9.84718 24.1867 9.86209 23.189L7.95396 23.1605C7.93391 24.5018 8.30734 26.0129 9.09722 27.2715C9.89532 28.5431 11.153 29.6022 12.8875 29.8826L13.192 27.9987ZM9.8576 23.0813C9.40165 18.452 11.431 12.4713 14.7947 8.75492L13.3798 7.47433C9.67726 11.5651 7.44658 18.0712 7.95845 23.2683L9.8576 23.0813ZM14.7881 8.76208C20.3127 2.7815 28.0621 1.75168 34.137 2.59756L34.4002 0.707459C27.9645 -0.188676 19.4855 0.864636 13.3863 7.46717L14.7881 8.76208ZM34.1087 2.59319C39.5513 3.51843 43.9517 7.28567 46.1976 13.068L47.9765 12.377C45.5181 6.04778 40.6123 1.7631 34.4285 0.711837L34.1087 2.59319ZM46.1953 13.0619C49.5461 21.8668 45.4538 30.2869 38.8545 40.0612L40.4361 41.1291C47.009 31.3939 51.7122 22.1932 47.9788 12.3831L46.1953 13.0619ZM38.8607 40.0522L27.2288 56.8599L28.798 57.9459L40.4299 41.1381L38.8607 40.0522ZM28.0723 58.3552L47.9485 57.1248L47.8305 55.2201L27.9544 56.4506L28.0723 58.3552ZM47.9485 57.1248C50.0585 56.9942 52.3201 58.9809 52.4737 61.4609L54.3784 61.343C54.1661 57.9139 51.0925 55.0182 47.8305 55.2201L47.9485 57.1248ZM52.4737 61.4609C52.6116 63.6884 50.674 65.6493 48.1264 65.8071L48.2444 67.7118C51.6059 67.5037 54.5952 64.8456 54.3784 61.343L52.4737 61.4609ZM48.1264 65.8071L19.118 67.6029L19.236 69.5076L48.2444 67.7118L48.1264 65.8071ZM19.118 67.6029C17.6781 67.692 14.937 68.1349 13.2498 65.8811L11.7221 67.0247C14.15 70.2681 18.1689 69.5736 19.236 69.5076L19.118 67.6029Z" fill="#0E67B4" mask="url(#path-1-outside-1_10048_101)"/>
</g>
<defs>
<filter id="filter0_d_10048_101" x="0.545386" y="0.432373" width="53.8433" height="76.5215" filterUnits="userSpaceOnUse" color-interpolation-filters="sRGB">
<feFlood flood-opacity="0" result="BackgroundImageFix"/>
<feColorMatrix in="SourceAlpha" type="matrix" values="0 0 0 0 0 0 0 0 0 0 0 0 0 0 0 0 0 0 127 0" result="hardAlpha"/>
<feOffset dx="-4.07743" dy="4.07743"/>
<feGaussianBlur stdDeviation="1.63097"/>
<feComposite in2="hardAlpha" operator="out"/>
<feColorMatrix type="matrix" values="0 0 0 0 0 0 0 0 0 0 0 0 0 0 0 0 0 0 0.15 0"/>
<feBlend mode="normal" in2="BackgroundImageFix" result="effect1_dropShadow_10048_101"/>
<feBlend mode="normal" in="SourceGraphic" in2="effect1_dropShadow_10048_101" result="shape"/>
</filter>
</defs>
</svg>
