<svg width="59" height="79" viewBox="0 0 59 79" fill="none" xmlns="http://www.w3.org/2000/svg">
<g filter="url(#filter0_d_9429_2157)">
<mask id="path-1-outside-1_9429_2157" maskUnits="userSpaceOnUse" x="7.89115" y="2.97258" width="47.5614" height="61.6059" fill="black">
<rect fill="white" x="7.89115" y="2.97258" width="47.5614" height="61.6059"/>
<path d="M30.2929 49.9573C30.1965 50.0665 30.1515 50.1725 30.1578 50.2753C30.2156 50.3749 30.3216 50.4199 30.4758 50.4104L49.5224 49.2313C50.0879 49.1963 50.3897 49.4872 50.4279 50.1041L49.8345 59.2749C49.7991 59.5351 49.6849 59.7744 49.492 59.9928C49.3473 60.1566 49.1464 60.2464 48.8894 60.2623L13.8035 62.4344C13.5465 62.4503 13.3361 62.3859 13.1723 62.2412C13.0054 62.0451 12.9396 61.817 12.9751 61.5567L13.5248 52.9305C13.4962 52.4678 13.6779 52.0696 14.0701 51.7356C17.4777 48.4284 21.6924 43.9875 26.7142 38.4129C26.6178 38.5221 28.1899 36.825 31.4305 33.3217C36.269 28.1197 38.7499 24.4312 38.8732 22.2561C38.9866 20.7526 38.5246 19.5427 37.4874 18.6264C36.5016 17.7069 35.1605 17.2997 33.464 17.4047C31.7162 17.5129 30.307 18.0904 29.2365 19.1372C28.166 20.1839 27.5772 21.5105 27.4702 23.1169L27.3535 24.9819C27.318 25.2421 27.2038 25.4814 27.0109 25.6998C26.8148 25.8667 26.5882 25.9581 26.3312 25.9741L15.6127 26.6376C15.3556 26.6535 15.1452 26.5891 14.9815 26.4445C14.8145 26.2484 14.7488 26.0202 14.7843 25.76L15.0083 21.8758C15.3955 18.9619 16.4734 16.3666 18.2418 14.0897C20.0102 11.8128 22.2731 10.0213 25.0306 8.71534C27.7848 7.35793 30.807 6.57738 34.0971 6.3737C37.5414 6.16048 40.5355 6.59438 43.0795 7.67541C45.6234 8.75644 47.6048 10.3367 49.0237 12.4163C50.4394 14.4445 51.2284 16.7694 51.3907 19.3912C51.5434 21.8588 51.0536 24.3662 49.9212 26.9133C48.7855 29.409 47.0169 32.0988 44.6152 34.9825C42.4063 37.6479 38.3604 41.8977 32.4774 47.7321L30.2929 49.9573Z"/>
</mask>
<path d="M30.2929 49.9573L29.2905 48.9732L29.2646 48.9996L29.2402 49.0273L30.2929 49.9573ZM30.1578 50.2753L28.7558 50.3621L28.7763 50.693L28.9426 50.9799L30.1578 50.2753ZM50.4279 50.1041L51.8297 50.1948L51.8355 50.1061L51.83 50.0173L50.4279 50.1041ZM49.8345 59.2749L51.2264 59.4648L51.2331 59.4154L51.2363 59.3656L49.8345 59.2749ZM49.492 59.9928L48.4392 59.0628L48.4392 59.0628L49.492 59.9928ZM13.1723 62.2412L12.1028 63.1519L12.1675 63.2279L12.2423 63.294L13.1723 62.2412ZM12.9751 61.5567L14.367 61.7466L14.3738 61.6965L14.377 61.6461L12.9751 61.5567ZM13.5248 52.9305L14.9267 53.0198L14.9323 52.9318L14.9268 52.8437L13.5248 52.9305ZM14.0701 51.7356L14.9808 52.8052L15.0156 52.7755L15.0484 52.7437L14.0701 51.7356ZM26.7142 38.4129L27.767 39.3429L25.6705 37.4727L26.7142 38.4129ZM31.4305 33.3217L30.4019 32.365L30.3993 32.3678L31.4305 33.3217ZM38.8732 22.2562L37.4725 22.1506L37.4715 22.1636L37.4708 22.1766L38.8732 22.2562ZM37.4874 18.6264L36.5293 19.6536L36.5432 19.6666L36.5574 19.6791L37.4874 18.6264ZM29.2365 19.1372L28.2544 18.1328L28.2544 18.1328L29.2365 19.1372ZM27.4702 23.1169L26.0686 23.0235L26.0683 23.0291L27.4702 23.1169ZM27.3535 24.9819L28.7453 25.1717L28.7522 25.1209L28.7555 25.0697L27.3535 24.9819ZM27.0109 25.6998L27.9215 26.7693L27.9976 26.7046L28.0636 26.6298L27.0109 25.6998ZM14.9815 26.4445L13.9119 27.3551L13.9766 27.4311L14.0514 27.4972L14.9815 26.4445ZM14.7843 25.76L16.1761 25.9498L16.1835 25.8956L16.1867 25.8409L14.7843 25.76ZM15.0083 21.8758L13.6158 21.6907L13.6089 21.7426L13.6059 21.7949L15.0083 21.8758ZM25.0306 8.71534L25.6318 9.98486L25.6417 9.98018L25.6515 9.97534L25.0306 8.71534ZM43.0795 7.67541L42.5301 8.96824L42.5301 8.96824L43.0795 7.67541ZM49.0237 12.4163L47.8633 13.208L47.8676 13.2142L47.8718 13.2203L49.0237 12.4163ZM49.9212 26.9133L51.1998 27.4951L51.2047 27.484L49.9212 26.9133ZM44.6152 34.9825L43.5358 34.0836L43.5336 34.0862L44.6152 34.9825ZM32.4774 47.732L31.4883 46.7346L31.4816 46.7413L31.475 46.748L32.4774 47.732ZM29.2402 49.0273C29.0004 49.2987 28.7183 49.7563 28.7558 50.3621L31.5598 50.1885C31.5846 50.5887 31.3926 50.8342 31.3457 50.8873L29.2402 49.0273ZM28.9426 50.9799C29.3593 51.6984 30.089 51.8417 30.5626 51.8124L30.389 49.0084C30.4586 49.0041 30.6258 49.0042 30.83 49.091C31.0567 49.1873 31.2494 49.3575 31.373 49.5706L28.9426 50.9799ZM30.5626 51.8124L49.6092 50.6333L49.4356 47.8293L30.389 49.0084L30.5626 51.8124ZM49.6092 50.6333C49.6429 50.6312 49.4201 50.6486 49.198 50.4346C48.9986 50.2424 49.0184 50.0698 49.0259 50.1909L51.83 50.0173C51.7993 49.5215 51.649 48.895 51.1478 48.4119C50.6239 47.9069 49.9674 47.7963 49.4356 47.8293L49.6092 50.6333ZM49.0261 50.0134L48.4328 59.1842L51.2363 59.3656L51.8297 50.1948L49.0261 50.0134ZM48.4427 59.0851C48.4436 59.0784 48.4452 59.0708 48.4476 59.0629C48.4499 59.055 48.4525 59.0488 48.4545 59.0445C48.4565 59.0404 48.4573 59.0397 48.4554 59.0424C48.4536 59.0452 48.4486 59.0521 48.4392 59.0628L50.5447 60.9228C50.9004 60.5202 51.1494 60.0294 51.2264 59.4648L48.4427 59.0851ZM48.4392 59.0628C48.5006 58.9933 48.5779 58.9371 48.6592 58.9007C48.7363 58.8662 48.7911 58.861 48.8026 58.8603L48.9762 61.6644C49.5336 61.6298 50.1097 61.4152 50.5447 60.9228L48.4392 59.0628ZM48.8026 58.8603L13.7167 61.0323L13.8903 63.8364L48.9762 61.6644L48.8026 58.8603ZM13.7167 61.0323C13.7282 61.0316 13.7832 61.03 13.864 61.0548C13.9491 61.0808 14.0329 61.1271 14.1023 61.1884L12.2423 63.294C12.7347 63.729 13.3329 63.8709 13.8903 63.8364L13.7167 61.0323ZM14.2419 61.3306C14.2767 61.3715 14.3207 61.4406 14.3476 61.5342C14.3744 61.627 14.3728 61.7037 14.367 61.7466L11.5833 61.3669C11.495 62.0141 11.6709 62.6447 12.1028 63.1519L14.2419 61.3306ZM14.377 61.6461L14.9267 53.0198L12.1229 52.8412L11.5733 61.4674L14.377 61.6461ZM14.9268 52.8437C14.9262 52.8327 14.9273 52.833 14.9258 52.8415C14.9242 52.8505 14.9212 52.8602 14.9176 52.868C14.9142 52.8754 14.9134 52.8744 14.921 52.8647C14.9289 52.8546 14.9468 52.8341 14.9808 52.8052L13.1594 50.6661C12.4737 51.25 12.0635 52.0598 12.1228 53.0173L14.9268 52.8437ZM15.0484 52.7437C18.4876 49.4058 22.7256 44.9393 27.7579 39.3531L25.6705 37.4727C20.6592 43.0357 16.4678 47.451 13.0918 50.7276L15.0484 52.7437ZM25.6614 37.4829C25.6587 37.486 25.648 37.4981 25.6354 37.5131C25.6337 37.5152 25.6101 37.5429 25.5832 37.5791C25.5749 37.5903 25.5552 37.6181 25.5438 37.6348C25.5263 37.6615 25.4806 37.7384 25.4537 37.7895C25.4002 37.9103 25.307 38.4875 25.4028 38.9319C25.9424 39.5943 27.0454 39.782 27.3113 39.6874C27.3961 39.6437 27.5158 39.5685 27.5531 39.5415C27.5744 39.5252 27.609 39.4973 27.6224 39.4859C27.6477 39.4644 27.6666 39.4466 27.6736 39.44C27.69 39.4246 27.7025 39.4121 27.7064 39.4082C27.7165 39.3981 27.7248 39.3894 27.7282 39.3859C27.7426 39.3709 27.7623 39.3499 27.7815 39.3295C27.8236 39.2845 27.8914 39.2117 27.9837 39.1124C28.169 38.913 28.4583 38.601 28.8514 38.1766C29.6379 37.3277 30.8413 36.0273 32.4617 34.2756L30.3993 32.3678C28.779 34.1194 27.5761 35.4192 26.7904 36.2674C26.3975 36.6916 26.1094 37.0023 25.9257 37.1999C25.8336 37.2991 25.7691 37.3683 25.731 37.4089C25.7101 37.4313 25.7027 37.439 25.7031 37.4386C25.7037 37.438 25.705 37.4366 25.7069 37.4347C25.7085 37.433 25.7121 37.4294 25.7169 37.4246C25.7198 37.4216 25.7316 37.4097 25.7474 37.3949C25.7542 37.3885 25.7729 37.3709 25.798 37.3495C25.8114 37.3382 25.8459 37.3104 25.8672 37.2941C25.9044 37.2672 26.024 37.1921 26.1088 37.1483C26.3747 37.0538 27.4777 37.2415 28.0173 37.9038C28.113 38.3483 28.0199 38.9253 27.9664 39.0462C27.9395 39.0972 27.8938 39.1741 27.8763 39.2007C27.865 39.2173 27.8454 39.245 27.8372 39.2561C27.8105 39.292 27.7875 39.3191 27.7864 39.3203C27.7797 39.3283 27.7745 39.3343 27.7724 39.3368C27.7698 39.3397 27.7679 39.3419 27.767 39.3429L25.6614 37.4829ZM32.4591 34.2784C34.9026 31.6513 36.7873 29.3681 38.0856 27.4378C39.3482 25.5606 40.1912 23.8253 40.2757 22.3357L37.4708 22.1766C37.4319 22.862 36.9727 24.0585 35.7544 25.8698C34.5719 27.628 32.7969 29.7901 30.4019 32.365L32.4591 34.2784ZM40.274 22.3617C40.417 20.465 39.8169 18.8099 38.4174 17.5736L36.5574 19.6791C37.2324 20.2754 37.5562 21.0402 37.4725 22.1506L40.274 22.3617ZM38.4455 17.5991C37.108 16.3516 35.352 15.8804 33.3772 16.0027L33.5508 18.8068C34.969 18.719 35.8952 19.0622 36.5293 19.6536L38.4455 17.5991ZM33.3772 16.0027C31.3531 16.128 29.6059 16.8113 28.2544 18.1328L30.2186 20.1415C31.0081 19.3695 32.0792 18.8979 33.5508 18.8068L33.3772 16.0027ZM28.2544 18.1328C26.9172 19.4404 26.1967 21.1005 26.0686 23.0235L28.8719 23.2102C28.9577 21.9206 29.4147 20.9275 30.2186 20.1415L28.2544 18.1328ZM26.0683 23.0291L25.9515 24.8941L28.7555 25.0697L28.8722 23.2047L26.0683 23.0291ZM25.9617 24.792C25.9626 24.7854 25.9641 24.7778 25.9665 24.7699C25.9689 24.762 25.9714 24.7557 25.9735 24.7515C25.9754 24.7473 25.9762 24.7466 25.9744 24.7493C25.9725 24.7522 25.9676 24.759 25.9581 24.7697L28.0636 26.6298C28.4193 26.2272 28.6683 25.7364 28.7453 25.1717L25.9617 24.792ZM26.1002 24.6302C26.1109 24.6211 26.1341 24.6047 26.1682 24.5909C26.2024 24.5771 26.2304 24.5729 26.2444 24.572L26.418 27.3761C26.9784 27.3414 27.494 27.1333 27.9215 26.7693L26.1002 24.6302ZM26.2444 24.572L15.5259 25.2356L15.6995 28.0396L26.418 27.3761L26.2444 24.572ZM15.5259 25.2356C15.5374 25.2349 15.5923 25.2333 15.6731 25.258C15.7583 25.2841 15.842 25.3303 15.9115 25.3917L14.0514 27.4972C14.5438 27.9322 15.142 28.0741 15.6995 28.0396L15.5259 25.2356ZM16.051 25.5338C16.0859 25.5748 16.1298 25.6438 16.1568 25.7374C16.1835 25.8303 16.1819 25.9069 16.1761 25.9498L13.3924 25.5701C13.3041 26.2174 13.4801 26.8479 13.9119 27.3551L16.051 25.5338ZM16.1867 25.8409L16.4106 21.9566L13.6059 21.7949L13.3819 25.6791L16.1867 25.8409ZM16.4007 22.0608C16.7559 19.3885 17.7385 17.0277 19.3512 14.9513L17.1324 13.228C15.2083 15.7054 14.0352 18.5353 13.6158 21.6907L16.4007 22.0608ZM19.3512 14.9513C20.9767 12.8585 23.0615 11.2023 25.6318 9.98486L24.4293 7.44582C21.4848 8.84044 19.0437 10.7671 17.1324 13.228L19.3512 14.9513ZM25.6515 9.97534C28.2269 8.70609 31.0657 7.96877 34.1839 7.77574L34.0103 4.97167C30.5483 5.18599 27.3427 6.00977 24.4096 7.45534L25.6515 9.97534ZM34.1839 7.77574C37.4634 7.57271 40.2305 7.99104 42.5301 8.96824L43.6289 6.38258C40.8406 5.19772 37.6194 4.74824 34.0103 4.97167L34.1839 7.77574ZM42.5301 8.96824C44.8518 9.95482 46.6107 11.3721 47.8633 13.208L50.1841 11.6246C48.599 9.30142 46.3951 7.55806 43.6289 6.38258L42.5301 8.96824ZM47.8718 13.2203C49.1306 15.0236 49.8413 17.0971 49.9886 19.478L52.7927 19.3045C52.6155 16.4418 51.7482 13.8653 50.1756 11.6123L47.8718 13.2203ZM49.9886 19.478C50.1257 21.6927 49.6901 23.9753 48.6376 26.3427L51.2047 27.484C52.4171 24.757 52.9611 22.0249 52.7927 19.3045L49.9886 19.478ZM48.6426 26.3315C47.574 28.6799 45.8845 31.2634 43.5358 34.0836L45.6945 35.8815C48.1492 32.9342 49.9971 30.1382 51.1997 27.4951L48.6426 26.3315ZM43.5336 34.0862C41.3729 36.6934 37.371 40.9006 31.4883 46.7346L33.4666 48.7295C39.3498 42.8949 43.4397 38.6024 45.6967 35.8788L43.5336 34.0862ZM31.475 46.748L29.2905 48.9732L31.2954 50.9413L33.4798 48.7161L31.475 46.748Z" fill="#16CCFF" mask="url(#path-1-outside-1_9429_2157)"/>
<g filter="url(#filter1_d_9429_2157)">
<path d="M27.4123 59.4053C27.3147 59.5158 27.2691 59.6231 27.2755 59.7271C27.334 59.828 27.4413 59.8736 27.5974 59.8639L46.875 58.6705C47.4473 58.6351 47.7528 58.9295 47.7915 59.5539L47.1909 68.8359C47.155 69.0993 47.0394 69.3415 46.8441 69.5625C46.6977 69.7283 46.4944 69.8192 46.2343 69.8353L10.7229 72.0337C10.4628 72.0498 10.2498 71.9846 10.084 71.8382C9.91507 71.6397 9.84854 71.4088 9.88447 71.1454L10.4408 62.4146C10.4118 61.9463 10.5958 61.5432 10.9927 61.2052C14.4416 57.8579 18.7075 53.3631 23.7902 47.7209C23.6925 47.8314 25.2837 46.1138 28.5637 42.568C33.4608 37.3029 35.9718 33.5696 36.0967 31.3682C36.2114 29.8464 35.7438 28.6218 34.694 27.6944C33.6963 26.7638 32.3389 26.3517 30.6218 26.458C28.8528 26.5675 27.4265 27.152 26.343 28.2114C25.2595 29.2709 24.6637 30.6135 24.5554 32.2394L24.4372 34.127C24.4013 34.3904 24.2857 34.6326 24.0904 34.8536C23.892 35.0226 23.6627 35.1151 23.4025 35.1312L12.554 35.8028C12.2938 35.8189 12.0809 35.7537 11.9151 35.6073C11.7461 35.4089 11.6796 35.1779 11.7155 34.9146L11.9423 30.9832C12.3342 28.034 13.4251 25.4072 15.215 23.1027C17.0049 20.7982 19.2952 18.985 22.0861 17.6632C24.8737 16.2893 27.9326 15.4993 31.2626 15.2932C34.7487 15.0774 37.7791 15.5165 40.3539 16.6107C42.9287 17.7048 44.9342 19.3043 46.3702 21.409C47.8031 23.4618 48.6016 25.815 48.7659 28.4686C48.9205 30.9661 48.4247 33.5038 47.2786 36.0819C46.1292 38.6079 44.339 41.3302 41.9082 44.2489C39.6726 46.9466 35.5776 51.248 29.6233 57.1531L27.4123 59.4053Z" fill="white"/>
</g>
</g>
<defs>
<filter id="filter0_d_9429_2157" x="1.09246" y="0.635152" width="57.0817" height="77.8734" filterUnits="userSpaceOnUse" color-interpolation-filters="sRGB">
<feFlood flood-opacity="0" result="BackgroundImageFix"/>
<feColorMatrix in="SourceAlpha" type="matrix" values="0 0 0 0 0 0 0 0 0 0 0 0 0 0 0 0 0 0 127 0" result="hardAlpha"/>
<feOffset dy="1.07028"/>
<feGaussianBlur stdDeviation="2.67569"/>
<feComposite in2="hardAlpha" operator="out"/>
<feColorMatrix type="matrix" values="0 0 0 0 0 0 0 0 0 0 0 0 0 0 0 0 0 0 0.25 0"/>
<feBlend mode="normal" in2="BackgroundImageFix" result="effect1_dropShadow_9429_2157"/>
<feBlend mode="normal" in="SourceGraphic" in2="effect1_dropShadow_9429_2157" result="shape"/>
</filter>
<filter id="filter1_d_9429_2157" x="0.0459659" y="14.2639" width="51.2612" height="64.2209" filterUnits="userSpaceOnUse" color-interpolation-filters="sRGB">
<feFlood flood-opacity="0" result="BackgroundImageFix"/>
<feColorMatrix in="SourceAlpha" type="matrix" values="0 0 0 0 0 0 0 0 0 0 0 0 0 0 0 0 0 0 127 0" result="hardAlpha"/>
<feOffset dx="-3.55438" dy="3.55438"/>
<feGaussianBlur stdDeviation="1.42175"/>
<feComposite in2="hardAlpha" operator="out"/>
<feColorMatrix type="matrix" values="0 0 0 0 0 0 0 0 0 0 0 0 0 0 0 0 0 0 0.15 0"/>
<feBlend mode="normal" in2="BackgroundImageFix" result="effect1_dropShadow_9429_2157"/>
<feBlend mode="normal" in="SourceGraphic" in2="effect1_dropShadow_9429_2157" result="shape"/>
</filter>
</defs>
</svg>
