<svg width="71" height="96" viewBox="0 0 71 96" fill="none" xmlns="http://www.w3.org/2000/svg">
<mask id="path-1-outside-1_12983_2285" maskUnits="userSpaceOnUse" x="12.9232" y="3.71797" width="62.6468" height="80.4366" fill="black">
<rect fill="white" x="12.9232" y="3.71797" width="62.6468" height="80.4366"/>
<path d="M65.736 43.5892C66.4825 45.6702 66.9318 47.9411 67.0842 50.4021C67.135 51.2224 67.1428 52.457 67.1076 54.1061C66.8534 57.7587 65.9734 61.2786 64.4675 64.6656C62.4868 69.2485 59.4577 72.97 55.3803 75.83C51.2986 78.6216 46.626 80.1804 41.3624 80.5062C36.1671 80.8278 31.6434 79.8041 27.7912 77.435C24.0032 74.9933 21.3543 71.5547 19.8445 67.1192C19.0939 64.9698 18.6445 62.6988 18.4964 60.3063L18.4656 58.1467C18.5086 57.7323 18.6263 57.4162 18.8187 57.1984C19.0794 56.9764 19.3807 56.8548 19.7225 56.8337L34.0777 55.945C34.8297 55.8985 35.2311 56.2853 35.2818 57.1056C35.2636 59.0281 35.5703 60.656 36.2018 61.9894C36.6282 63.3354 37.3432 64.3547 38.3468 65.0474C39.4144 65.6675 40.6661 65.9332 42.1016 65.8443C44.9043 65.6708 47.0797 64.2323 48.6279 61.5289C49.7483 59.6754 50.3264 57.3751 50.3622 54.6281C50.4228 53.3892 50.4361 52.4963 50.4022 51.9494C50.288 50.1037 49.9556 48.6147 49.4052 47.4822C48.2916 45.0122 46.2651 43.8681 43.3257 44.0501C42.5737 44.0967 41.7362 44.423 40.813 45.0291C39.8856 45.5669 38.7017 46.395 37.2613 47.5135C37.0006 47.7355 36.7335 47.8549 36.46 47.8719C36.1182 47.893 35.8321 47.7049 35.6016 47.3074L29.1222 37.4155C28.9686 37.1505 28.8854 36.9155 28.8727 36.7104C28.8473 36.3002 29.0312 35.9457 29.4245 35.6469L45.498 22.609C45.6262 22.4638 45.6861 22.3228 45.6777 22.1861C45.6692 22.0494 45.5624 21.9874 45.3573 22.0001L23.5168 23.3522C23.175 23.3733 22.8952 23.2877 22.6775 23.0953C22.4554 22.8346 22.368 22.5312 22.4152 22.1852L23.2043 9.9905C23.2515 9.64448 23.3713 9.36258 23.5637 9.14481C23.8202 8.85445 24.1193 8.69869 24.4611 8.67753L67.8346 5.99244C68.1764 5.97128 68.4583 6.09107 68.6803 6.35181C68.8981 6.54419 68.9833 6.81339 68.9361 7.15942L68.1398 20.8985C68.1095 21.518 67.8336 22.0497 67.3122 22.4937L54.6878 33.0537C54.3672 33.4166 54.4162 33.6537 54.8348 33.7651C60.1189 34.879 63.7527 38.1537 65.736 43.5892Z"/>
</mask>
<path d="M65.736 43.5892L67.4943 42.9585L67.4908 42.9489L65.736 43.5892ZM67.1076 54.1061L68.971 54.2358L68.9741 54.1909L68.9751 54.1459L67.1076 54.1061ZM64.4675 64.6656L62.7607 63.9067L62.7568 63.9156L62.7529 63.9245L64.4675 64.6656ZM55.3803 75.83L56.4347 77.3718L56.4438 77.3655L56.4529 77.3592L55.3803 75.83ZM27.7912 77.435L26.7792 79.005L26.7959 79.0157L26.8127 79.0261L27.7912 77.435ZM19.8445 67.1192L21.6128 66.5173L21.6104 66.5103L21.608 66.5033L19.8445 67.1192ZM18.4964 60.3063L16.6287 60.3329L16.6293 60.3773L16.6321 60.4217L18.4964 60.3063ZM18.4656 58.1467L16.6077 57.954L16.5964 58.0633L16.5979 58.1733L18.4656 58.1467ZM18.8187 57.1984L17.6077 55.7762L17.5067 55.8623L17.4188 55.9618L18.8187 57.1984ZM35.2818 57.1056L37.1496 57.1233L37.1503 57.0567L37.1462 56.9902L35.2818 57.1056ZM36.2018 61.9894L37.9824 61.4252L37.9441 61.3044L37.8899 61.1898L36.2018 61.9894ZM38.3468 65.0474L37.2857 66.5847L37.3456 66.6261L37.4086 66.6626L38.3468 65.0474ZM48.6279 61.5289L47.0293 60.5626L47.0179 60.5815L47.0069 60.6007L48.6279 61.5289ZM50.3622 54.6281L48.4965 54.5369L48.4949 54.5703L48.4945 54.6038L50.3622 54.6281ZM49.4052 47.4822L47.7024 48.2499L47.7134 48.2745L47.7252 48.2988L49.4052 47.4822ZM40.813 45.0291L41.75 46.645L41.7948 46.619L41.8382 46.5905L40.813 45.0291ZM37.2613 47.5135L36.1157 46.0381L36.0824 46.0639L36.0504 46.0912L37.2613 47.5135ZM35.6016 47.3074L37.2175 46.3704L37.192 46.3265L37.1642 46.2839L35.6016 47.3074ZM29.1222 37.4155L27.5063 38.3524L27.5318 38.3964L27.5597 38.4389L29.1222 37.4155ZM29.4245 35.6469L30.5546 37.1341L30.5782 37.1162L30.6012 37.0976L29.4245 35.6469ZM45.498 22.609L46.6747 24.0596L46.7951 23.9619L46.8978 23.8456L45.498 22.609ZM22.6775 23.0953L21.2552 24.3063L21.3413 24.4073L21.4408 24.4952L22.6775 23.0953ZM22.4152 22.1852L24.266 22.4376L24.275 22.3719L24.2792 22.3058L22.4152 22.1852ZM23.2043 9.9905L21.3535 9.73805L21.3446 9.80374L21.3403 9.8699L23.2043 9.9905ZM23.5637 9.14481L22.1638 7.90814L22.1638 7.90815L23.5637 9.14481ZM68.6803 6.35181L67.2581 7.56274L67.3441 7.6638L67.4436 7.75168L68.6803 6.35181ZM68.9361 7.15942L67.0854 6.90697L67.0756 6.97888L67.0714 7.05133L68.9361 7.15942ZM68.1398 20.8985L66.275 20.7904L66.2745 20.7989L66.2741 20.8073L68.1398 20.8985ZM67.3122 22.4937L68.5106 23.9264L68.5169 23.9212L68.5231 23.9159L67.3122 22.4937ZM54.6878 33.0537L53.4894 31.6209L53.3813 31.7113L53.2879 31.817L54.6878 33.0537ZM54.8348 33.7651L54.3547 35.5702L54.4018 35.5827L54.4495 35.5928L54.8348 33.7651ZM63.9778 44.2198C64.6583 46.1171 65.0772 48.2125 65.2199 50.5175L68.9485 50.2866C68.7865 47.6698 68.3066 45.2233 67.4943 42.9585L63.9778 44.2198ZM65.2199 50.5175C65.2656 51.2572 65.2751 52.4285 65.2401 54.0663L68.9751 54.1459C69.0105 52.4856 69.0043 51.1875 68.9485 50.2866L65.2199 50.5175ZM65.2442 53.9764C65.0053 57.4091 64.1792 60.7162 62.7607 63.9067L66.1743 65.4244C67.7675 61.8409 68.7015 58.1084 68.971 54.2358L65.2442 53.9764ZM62.7529 63.9245C60.9088 68.1913 58.1016 71.6396 54.3076 74.3008L56.4529 77.3592C60.8138 74.3004 64.0647 70.3058 66.1821 65.4066L62.7529 63.9245ZM54.3258 74.2882C50.5409 76.8769 46.1974 78.3354 41.247 78.6419L41.4778 82.3705C47.0545 82.0253 52.0563 80.3664 56.4347 77.3718L54.3258 74.2882ZM41.247 78.6419C36.3758 78.9434 32.2464 77.9821 28.7698 75.8439L26.8127 79.0261C31.0404 81.6261 35.9584 82.7122 41.4778 82.3705L41.247 78.6419ZM28.8032 75.865C25.3841 73.6611 22.9926 70.5711 21.6128 66.5173L18.0763 67.7211C19.7159 72.5383 22.6223 76.3255 26.7792 79.005L28.8032 75.865ZM21.608 66.5033C20.9166 64.5237 20.4988 62.4218 20.3607 60.1909L16.6321 60.4217C16.7902 62.9759 17.2712 65.4159 18.0811 67.7351L21.608 66.5033ZM20.3641 60.2797L20.3333 58.1201L16.5979 58.1733L16.6287 60.3329L20.3641 60.2797ZM20.3236 58.3393C20.3324 58.2539 20.344 58.2309 20.3366 58.2505C20.3281 58.2733 20.2964 58.3469 20.2185 58.4351L17.4188 55.9618C16.8787 56.5731 16.6741 57.3139 16.6077 57.954L20.3236 58.3393ZM20.0296 58.6206C20.0154 58.6327 19.9846 58.6546 19.9392 58.6729C19.8938 58.6912 19.8565 58.6969 19.8379 58.698L19.607 54.9694C18.8619 55.0155 18.1762 55.2922 17.6077 55.7762L20.0296 58.6206ZM19.8379 58.698L34.1932 57.8093L33.9623 54.0807L19.607 54.9694L19.8379 58.698ZM34.1932 57.8093C34.238 57.8065 33.9416 57.8297 33.6464 57.5451C33.3813 57.2895 33.4075 57.06 33.4175 57.221L37.1462 56.9902C37.1053 56.3309 36.9056 55.4979 36.239 54.8554C35.5425 54.184 34.6694 54.0369 33.9623 54.0807L34.1932 57.8093ZM33.414 57.0879C33.3939 59.2106 33.7303 61.135 34.5136 62.7889L37.8899 61.1898C37.4102 60.1771 37.1333 58.8457 37.1496 57.1233L33.414 57.0879ZM34.4211 62.5535C34.9521 64.2296 35.8886 65.6204 37.2857 66.5847L39.4078 63.5102C38.7978 63.0891 38.3043 62.4411 37.9824 61.4252L34.4211 62.5535ZM37.4086 66.6626C38.8451 67.4969 40.4756 67.8164 42.217 67.7086L41.9862 63.98C40.8566 64.0499 39.9838 63.8381 39.2849 63.4322L37.4086 66.6626ZM42.217 67.7086C45.724 67.4915 48.4286 65.6356 50.2488 62.4571L47.0069 60.6007C45.7308 62.829 44.0846 63.8501 41.9862 63.98L42.217 67.7086ZM50.2264 62.4952C51.5591 60.2905 52.191 57.644 52.23 54.6524L48.4945 54.6038C48.4619 57.1063 47.9374 59.0603 47.0293 60.5626L50.2264 62.4952ZM52.2279 54.7193C52.2887 53.4753 52.3074 52.4927 52.2666 51.834L48.5379 52.0648C48.5649 52.4999 48.5568 53.3031 48.4965 54.5369L52.2279 54.7193ZM52.2666 51.834C52.1437 49.8489 51.7799 48.0951 51.0851 46.6656L47.7252 48.2988C48.1313 49.1342 48.4323 50.3586 48.5379 52.0648L52.2666 51.834ZM51.108 46.7145C50.4156 45.1786 49.3825 43.9434 47.9684 43.1451C46.5669 42.3539 44.9451 42.0784 43.2103 42.1858L43.4411 45.9144C44.6457 45.8399 45.5068 46.0454 46.1318 46.3983C46.7442 46.744 47.2812 47.3157 47.7024 48.2499L51.108 46.7145ZM43.2103 42.1858C42.0172 42.2597 40.8646 42.7607 39.7878 43.4677L41.8382 46.5905C42.6077 46.0853 43.1303 45.9337 43.4411 45.9144L43.2103 42.1858ZM39.876 43.4132C38.8431 44.0122 37.5834 44.8985 36.1157 46.0381L38.4069 48.9888C39.82 47.8915 40.9281 47.1216 41.75 46.645L39.876 43.4132ZM36.0504 46.0912C36.0328 46.1062 36.0494 46.0883 36.1027 46.0645C36.1597 46.039 36.243 46.0138 36.3446 46.0075L36.5754 49.7362C37.3439 49.6886 37.9818 49.3532 38.4722 48.9357L36.0504 46.0912ZM36.3446 46.0075C36.5771 45.9931 36.8207 46.0579 37.0154 46.1859C37.1828 46.296 37.2347 46.4001 37.2175 46.3704L33.9858 48.2444C34.4296 49.0099 35.2842 49.8161 36.5754 49.7362L36.3446 46.0075ZM37.1642 46.2839L30.6847 36.392L27.5597 38.4389L34.0391 48.3309L37.1642 46.2839ZM30.7381 36.4785C30.7066 36.4242 30.701 36.4046 30.7055 36.4173C30.7099 36.4299 30.7307 36.492 30.737 36.595L27.0084 36.8258C27.0456 37.4273 27.2727 37.9496 27.5063 38.3524L30.7381 36.4785ZM30.737 36.595C30.7446 36.7175 30.7183 36.8648 30.6496 36.9971C30.5877 37.1164 30.5273 37.1549 30.5546 37.1341L28.2943 34.1597C27.5191 34.7488 26.9362 35.6605 27.0084 36.8258L30.737 36.595ZM30.6012 37.0976L46.6747 24.0596L44.3213 21.1583L28.2478 34.1963L30.6012 37.0976ZM46.8978 23.8456C47.2167 23.4847 47.5919 22.8763 47.542 22.0707L43.8133 22.3015C43.7804 21.7694 44.0357 21.4429 44.0981 21.3723L46.8978 23.8456ZM47.542 22.0707C47.5041 21.4593 47.1888 20.8048 46.5293 20.4218C46.0088 20.1195 45.4927 20.1202 45.2419 20.1358L45.4728 23.8644C45.427 23.8672 45.0669 23.8926 44.6531 23.6523C44.4205 23.5172 44.1978 23.3119 44.037 23.0346C43.8805 22.7647 43.8257 22.5015 43.8133 22.3015L47.542 22.0707ZM45.2419 20.1358L23.4014 21.4878L23.6322 25.2165L45.4728 23.8644L45.2419 20.1358ZM23.4014 21.4878C23.4167 21.4869 23.4898 21.4848 23.5972 21.5177C23.7104 21.5523 23.8218 21.6138 23.9141 21.6954L21.4408 24.4952C22.0955 25.0736 22.891 25.2624 23.6322 25.2165L23.4014 21.4878ZM24.0997 21.8844C24.146 21.9389 24.2044 22.0307 24.2403 22.1551C24.2759 22.2786 24.2738 22.3805 24.266 22.4376L20.5645 21.9327C20.4471 22.7934 20.681 23.6318 21.2552 24.3063L24.0997 21.8844ZM24.2792 22.3058L25.0683 10.1111L21.3403 9.8699L20.5513 22.0646L24.2792 22.3058ZM25.055 10.243C25.0593 10.2119 25.062 10.2186 25.0486 10.2501C25.0343 10.2839 25.0073 10.3319 24.9635 10.3815L22.1638 7.90815C21.6816 8.45392 21.4404 9.10146 21.3535 9.73805L25.055 10.243ZM24.9635 10.3815C24.9623 10.3829 24.9247 10.4245 24.843 10.467C24.7572 10.5117 24.6624 10.5365 24.5765 10.5418L24.3457 6.8132C23.4429 6.86909 22.7013 7.29966 22.1638 7.90814L24.9635 10.3815ZM24.5765 10.5418L67.95 7.85676L67.7192 4.12812L24.3457 6.8132L24.5765 10.5418ZM67.95 7.85676C67.866 7.86196 67.7279 7.85184 67.5718 7.78553C67.4158 7.71922 67.3126 7.62681 67.2581 7.56274L70.1025 5.14088C69.4993 4.4325 68.6478 4.07063 67.7192 4.12812L67.95 7.85676ZM67.4436 7.75168C67.3065 7.63055 67.1896 7.45993 67.1269 7.26212C67.0687 7.07825 67.0802 6.94463 67.0854 6.90697L70.7869 7.41187C70.8989 6.59048 70.7018 5.64525 69.917 4.95194L67.4436 7.75168ZM67.0714 7.05133L66.275 20.7904L70.0045 21.0066L70.8009 7.26751L67.0714 7.05133ZM66.2741 20.8073C66.2718 20.8551 66.2755 20.9231 66.1012 21.0715L68.5231 23.9159C69.3918 23.1763 69.9472 22.1809 70.0055 20.9897L66.2741 20.8073ZM66.1137 21.061L53.4894 31.6209L55.8863 34.4864L68.5106 23.9264L66.1137 21.061ZM53.2879 31.817C53.1368 31.9881 52.9526 32.2279 52.815 32.532C52.6758 32.8394 52.5384 33.3183 52.6548 33.8816C52.9101 35.1175 54.0173 35.4805 54.3547 35.5702L55.3148 31.9599C55.3387 31.9663 55.5052 32.0104 55.7063 32.1602C55.936 32.3314 56.2149 32.6495 56.3133 33.1258C56.4052 33.5705 56.2895 33.9152 56.2183 34.0726C56.1809 34.1553 56.1445 34.2125 56.1234 34.2431C56.1018 34.2745 56.0877 34.2903 56.0877 34.2903L53.2879 31.817ZM54.4495 35.5928C59.0504 36.5627 62.1999 39.3475 63.9813 44.2294L67.4908 42.9489C65.3054 36.9599 61.1874 33.1953 55.2201 31.9373L54.4495 35.5928Z" fill="black" mask="url(#path-1-outside-1_12983_2285)"/>
<g filter="url(#filter0_d_12983_2285)">
<path d="M59.4252 49.1985C60.1717 51.2796 60.621 53.5505 60.7734 56.0114C60.8242 56.8317 60.832 58.0664 60.7968 59.7155C60.5426 63.3681 59.6626 66.8879 58.1567 70.2749C56.176 74.8579 53.1469 78.5794 49.0695 81.4394C44.9878 84.231 40.3152 85.7897 35.0516 86.1156C29.8563 86.4372 25.3326 85.4135 21.4804 83.0444C17.6924 80.6027 15.0435 77.1641 13.5337 72.7286C12.7831 70.5792 12.3337 68.3082 12.1856 65.9157L12.1548 63.756C12.1978 63.3416 12.3155 63.0256 12.5079 62.8078C12.7686 62.5858 13.0699 62.4642 13.4117 62.4431L27.767 61.5544C28.5189 61.5078 28.9203 61.8947 28.971 62.715C28.9528 64.6375 29.2595 66.2654 29.891 67.5987C30.3174 68.9447 31.0324 69.9641 32.036 70.6568C33.1037 71.2769 34.3553 71.5425 35.7908 71.4537C38.5935 71.2802 40.7689 69.8417 42.3171 67.1383C43.4375 65.2848 44.0156 62.9845 44.0514 60.2375C44.112 58.9986 44.1253 58.1057 44.0915 57.5588C43.9772 55.7131 43.6448 54.224 43.0944 53.0916C41.9808 50.6215 39.9543 49.4775 37.0149 49.6595C36.2629 49.706 35.4254 50.0324 34.5022 50.6385C33.5748 51.1762 32.3909 52.0044 30.9505 53.1228C30.6898 53.3448 30.4227 53.4643 30.1492 53.4812C29.8074 53.5024 29.5213 53.3142 29.2909 52.9168L22.8114 43.0248C22.6578 42.7599 22.5746 42.5248 22.5619 42.3198C22.5365 41.9096 22.7204 41.5551 23.1137 41.2563L39.1872 28.2183C39.3154 28.0732 39.3753 27.9322 39.3669 27.7955C39.3584 27.6588 39.2516 27.5968 39.0466 27.6095L17.206 28.9615C16.8642 28.9827 16.5844 28.8971 16.3667 28.7047C16.1447 28.444 16.0573 28.1406 16.1045 27.7945L16.8935 15.5999C16.9407 15.2539 17.0605 14.972 17.2529 14.7542C17.5094 14.4638 17.8085 14.3081 18.1503 14.2869L61.5238 11.6018C61.8656 11.5807 62.1475 11.7004 62.3695 11.9612C62.5873 12.1536 62.6725 12.4228 62.6253 12.7688L61.829 26.5079C61.7987 27.1273 61.5228 27.6591 61.0014 28.1031L48.377 38.663C48.0564 39.026 48.1054 39.2631 48.524 39.3744C53.8081 40.4884 57.4419 43.763 59.4252 49.1985Z" fill="#FE0000"/>
</g>
<defs>
<filter id="filter0_d_12983_2285" x="0.618898" y="11.5312" width="66.5271" height="84.3235" filterUnits="userSpaceOnUse" color-interpolation-filters="sRGB">
<feFlood flood-opacity="0" result="BackgroundImageFix"/>
<feColorMatrix in="SourceAlpha" type="matrix" values="0 0 0 0 0 0 0 0 0 0 0 0 0 0 0 0 0 0 127 0" result="hardAlpha"/>
<feOffset dx="-4.66973" dy="4.66973"/>
<feGaussianBlur stdDeviation="1.86789"/>
<feComposite in2="hardAlpha" operator="out"/>
<feColorMatrix type="matrix" values="0 0 0 0 0 0 0 0 0 0 0 0 0 0 0 0 0 0 0.15 0"/>
<feBlend mode="normal" in2="BackgroundImageFix" result="effect1_dropShadow_12983_2285"/>
<feBlend mode="normal" in="SourceGraphic" in2="effect1_dropShadow_12983_2285" result="shape"/>
</filter>
</defs>
</svg>
