<svg width="53" height="78" viewBox="0 0 53 78" fill="none" xmlns="http://www.w3.org/2000/svg">
<g filter="url(#filter0_d_10048_107)">
<mask id="path-1-outside-1_10048_107" maskUnits="userSpaceOnUse" x="4.88921" y="-1.07254" width="49.2392" height="72.6467" fill="black">
<rect fill="white" x="4.88921" y="-1.07254" width="49.2392" height="72.6467"/>
<path d="M19.4636 20.2235C18.4548 22.8024 15.2649 23.5391 12.7644 22.3458C10.2639 21.1525 10.3385 18.0022 10.547 15.5627C11.4965 9.12278 16.1658 4.69946 22.2548 2.8845C27.191 1.32067 35.1705 1.00644 40.7522 5.51416C45.8585 9.60194 47.595 15.8756 47.0774 20.5811C46.5432 25.0181 44.9909 28.9788 40.7923 32.2945C48.9751 38.1691 51.077 41.634 51.3635 49.1657C51.6176 54.7223 49.0455 61.0829 42.3114 65.5442C36.6184 69.4017 26.7025 70.3751 20.2413 67.6295C15.5255 65.4948 10.012 59.1853 9.21433 55.0106C8.92441 53.231 8.98154 51.2502 10.7675 49.6118C12.044 48.4542 13.7229 47.9908 15.3677 48.4282C18.1987 49.1517 20.1206 54.0658 23.0679 56.6694C25.9146 59.0996 30.43 59.4492 33.0661 58.4771C36.3234 57.3767 38.9104 54.1608 39.3542 51.1674C39.68 49.17 39.677 44.7663 37.2835 42.398C32.6811 37.7398 31.09 41.0738 26.1508 38.2339C24.6518 37.2482 23.6733 35.9607 23.6409 33.9854C23.5411 32.3738 24.2416 30.6228 26.0719 29.7006C29.9005 27.6661 31.4826 29.9948 34.7591 24.8488C36.2265 22.4212 36.6316 18.8012 35.6088 16.7974C34.4576 14.1724 32.2986 12.6883 29.5739 12.2278C27.3079 11.9187 24.129 12.8345 22.2084 15.2003C21.2845 16.2461 20.4049 18.0082 19.4636 20.2235Z"/>
</mask>
<path d="M19.4636 20.2235C18.4548 22.8024 15.2649 23.5391 12.7644 22.3458C10.2639 21.1525 10.3385 18.0022 10.547 15.5627C11.4965 9.12278 16.1658 4.69946 22.2548 2.8845C27.191 1.32067 35.1705 1.00644 40.7522 5.51416C45.8585 9.60194 47.595 15.8756 47.0774 20.5811C46.5432 25.0181 44.9909 28.9788 40.7923 32.2945C48.9751 38.1691 51.077 41.634 51.3635 49.1657C51.6176 54.7223 49.0455 61.0829 42.3114 65.5442C36.6184 69.4017 26.7025 70.3751 20.2413 67.6295C15.5255 65.4948 10.012 59.1853 9.21433 55.0106C8.92441 53.231 8.98154 51.2502 10.7675 49.6118C12.044 48.4542 13.7229 47.9908 15.3677 48.4282C18.1987 49.1517 20.1206 54.0658 23.0679 56.6694C25.9146 59.0996 30.43 59.4492 33.0661 58.4771C36.3234 57.3767 38.9104 54.1608 39.3542 51.1674C39.68 49.17 39.677 44.7663 37.2835 42.398C32.6811 37.7398 31.09 41.0738 26.1508 38.2339C24.6518 37.2482 23.6733 35.9607 23.6409 33.9854C23.5411 32.3738 24.2416 30.6228 26.0719 29.7006C29.9005 27.6661 31.4826 29.9948 34.7591 24.8488C36.2265 22.4212 36.6316 18.8012 35.6088 16.7974C34.4576 14.1724 32.2986 12.6883 29.5739 12.2278C27.3079 11.9187 24.129 12.8345 22.2084 15.2003C21.2845 16.2461 20.4049 18.0082 19.4636 20.2235Z" fill="white"/>
<path d="M19.4636 20.2235L18.5854 19.8503L18.58 19.863L18.575 19.8759L19.4636 20.2235ZM12.7644 22.3458L12.3535 23.2069L12.3535 23.2069L12.7644 22.3458ZM10.547 15.5627L9.60305 15.4235L9.5988 15.4524L9.59632 15.4814L10.547 15.5627ZM22.2548 2.8845L22.5274 3.79891L22.5352 3.79658L22.543 3.79411L22.2548 2.8845ZM40.7522 5.51416L40.1527 6.25649L40.1559 6.25905L40.7522 5.51416ZM47.0774 20.5811L48.0248 20.6952L48.0259 20.6855L47.0774 20.5811ZM40.7923 32.2945L40.2009 31.5457L39.2067 32.3308L40.2358 33.0696L40.7923 32.2945ZM51.3635 49.1658L50.41 49.202L50.4103 49.2093L51.3635 49.1658ZM42.3114 65.5442L41.7844 64.7487L41.7761 64.7543L42.3114 65.5442ZM20.2413 67.6295L19.8478 68.4987L19.8579 68.5033L19.8681 68.5076L20.2413 67.6295ZM9.21433 55.0106L8.27257 55.164L8.27467 55.1768L8.27711 55.1896L9.21433 55.0106ZM10.7675 49.6118L10.1265 48.9049L10.1224 48.9087L10.7675 49.6118ZM15.3677 48.4282L15.1225 49.3504L15.1315 49.3527L15.3677 48.4282ZM23.0679 56.6694L22.4362 57.3845L22.4423 57.3899L22.4484 57.3951L23.0679 56.6694ZM33.0661 58.4771L32.7607 57.5731L32.7483 57.5773L32.736 57.5819L33.0661 58.4771ZM39.3542 51.1674L38.4124 51.0139L38.4104 51.0275L39.3542 51.1674ZM37.2835 42.398L36.6047 43.0687L36.6124 43.0762L37.2835 42.398ZM26.1508 38.2339L25.6266 39.0312L25.6504 39.0469L25.6752 39.0611L26.1508 38.2339ZM23.6409 33.9854L24.5949 33.9698L24.5946 33.9481L24.5933 33.9264L23.6409 33.9854ZM26.0719 29.7006L26.5012 30.5528L26.5105 30.5481L26.5197 30.5432L26.0719 29.7006ZM34.7591 24.8488L35.564 25.3613L35.5699 25.352L35.5757 25.3425L34.7591 24.8488ZM35.6088 16.7974L34.7349 17.1806L34.7462 17.2062L34.7589 17.2311L35.6088 16.7974ZM29.5739 12.2278L29.7329 11.287L29.7179 11.2844L29.7028 11.2824L29.5739 12.2278ZM22.2084 15.2003L22.9235 15.832L22.9366 15.8171L22.9491 15.8017L22.2084 15.2003ZM18.575 19.8759C17.8297 21.7812 15.3426 22.5189 13.1754 21.4847L12.3535 23.2069C15.1873 24.5594 19.08 23.8237 20.3522 20.571L18.575 19.8759ZM13.1754 21.4847C12.2762 21.0555 11.8009 20.2787 11.5726 19.2204C11.3376 18.1313 11.3938 16.8604 11.4977 15.6439L9.59632 15.4814C9.49179 16.7046 9.40638 18.2285 9.70715 19.6228C10.0146 21.0478 10.7522 22.4428 12.3535 23.2069L13.1754 21.4847ZM11.491 15.7019C12.3758 9.70059 16.7187 5.53031 22.5274 3.79891L21.9823 1.97009C15.6129 3.8686 10.6172 8.54497 9.60305 15.4235L11.491 15.7019ZM22.543 3.79411C27.3227 2.27987 34.9209 2.03137 40.1527 6.25649L41.3517 4.77183C35.42 -0.0184976 27.0594 0.361466 21.9666 1.97489L22.543 3.79411ZM40.1559 6.25905C44.9721 10.1146 46.616 16.0486 46.129 20.4768L48.0259 20.6855C48.5739 15.7026 46.7449 9.08928 41.3485 4.76927L40.1559 6.25905ZM46.1301 20.4671C45.6178 24.7222 44.1534 28.4244 40.2009 31.5457L41.3836 33.0433C45.8284 29.5333 47.4687 25.314 48.0247 20.6952L46.1301 20.4671ZM40.2358 33.0696C44.305 35.9909 46.7481 38.2366 48.2292 40.6133C49.6911 42.9593 50.27 45.5222 50.41 49.202L52.317 49.1295C52.1704 45.2775 51.5551 42.3421 49.8488 39.604C48.1617 36.8967 45.4624 34.4726 41.3487 31.5194L40.2358 33.0696ZM50.4103 49.2093C50.6489 54.427 48.2419 60.4707 41.7844 64.7487L42.8384 66.3396C49.849 61.6951 52.5863 55.0176 52.3167 49.1222L50.4103 49.2093ZM41.7761 64.7543C39.0959 66.5704 35.3591 67.7416 31.4736 68.1132C27.589 68.4846 23.6625 68.0465 20.6145 66.7513L19.8681 68.5076C23.2814 69.958 27.5434 70.406 31.6553 70.0129C35.7663 69.6197 39.8339 68.3755 42.8466 66.3341L41.7761 64.7543ZM20.6348 66.7602C18.4418 65.7675 15.9895 63.7602 13.977 61.4572C11.9502 59.1378 10.5032 56.6717 10.1515 54.8315L8.27711 55.1896C8.72317 57.5241 10.4317 60.3002 12.54 62.7129C14.6626 65.1419 17.325 67.3567 19.8478 68.4987L20.6348 66.7602ZM10.1561 54.8571C9.88731 53.2074 9.97566 51.6331 11.4125 50.3149L10.1224 48.9087C7.98741 50.8673 7.96151 53.2546 8.27257 55.164L10.1561 54.8571ZM11.4085 50.3186C12.465 49.3605 13.8155 49.0028 15.1225 49.3503L15.613 47.5061C13.6303 46.9788 11.6229 47.548 10.1265 48.9049L11.4085 50.3186ZM15.1315 49.3527C15.6151 49.4763 16.1242 49.7969 16.6878 50.3413C17.2501 50.8845 17.808 51.5922 18.404 52.4071C19.5539 53.9791 20.8611 55.993 22.4362 57.3845L23.6997 55.9543C22.3275 54.7422 21.2 52.9972 19.9443 51.2805C19.3376 50.4509 18.7 49.6318 18.0137 48.9687C17.3285 48.3069 16.5358 47.7419 15.604 47.5038L15.1315 49.3527ZM22.4484 57.3951C24.0395 58.7534 26.0606 59.5038 28.0057 59.7929C29.9452 60.0812 31.8994 59.9243 33.3962 59.3724L32.736 57.5819C31.5968 58.002 29.9753 58.1564 28.2863 57.9053C26.603 57.6551 24.9431 57.0156 23.6874 55.9437L22.4484 57.3951ZM33.3715 59.3811C36.9618 58.1682 39.8008 54.6616 40.2981 51.3074L38.4104 51.0275C38.0201 53.66 35.6849 56.5853 32.7607 57.5731L33.3715 59.3811ZM40.296 51.321C40.4734 50.2333 40.5577 48.5305 40.2811 46.7734C40.0064 45.028 39.3554 43.1058 37.9546 41.7197L36.6124 43.0762C37.605 44.0585 38.1523 45.5224 38.396 47.0702C38.6378 48.6064 38.5609 50.1042 38.4125 51.0139L40.296 51.321ZM37.9622 41.7274C36.7532 40.5036 35.695 39.7571 34.6833 39.3091C33.6643 38.8578 32.7536 38.7372 31.9056 38.6819C30.2625 38.5747 28.8685 38.6959 26.6264 37.4067L25.6752 39.0611C28.3723 40.6118 30.2435 40.4859 31.7813 40.5862C32.5237 40.6346 33.1825 40.7315 33.9106 41.054C34.646 41.3797 35.5126 41.9632 36.6047 43.0686L37.9622 41.7274ZM26.675 37.4367C25.3642 36.5747 24.6209 35.5487 24.5949 33.9698L22.6869 34.0011C22.7258 36.3726 23.9393 37.9217 25.6266 39.0312L26.675 37.4367ZM24.5933 33.9264C24.5129 32.6291 25.0678 31.275 26.5012 30.5528L25.6426 28.8485C23.4154 29.9707 22.5693 32.1186 22.6886 34.0444L24.5933 33.9264ZM26.5197 30.5432C28.3026 29.5958 29.2984 29.7494 30.8502 29.3682C31.6022 29.1834 32.3595 28.8748 33.1553 28.2358C33.9337 27.6107 34.7122 26.6991 35.564 25.3613L33.9542 24.3364C33.1677 25.5716 32.5198 26.2986 31.9604 26.7478C31.4184 27.1831 30.9265 27.3843 30.3949 27.5149C29.3794 27.7644 27.6698 27.771 25.6242 28.8581L26.5197 30.5432ZM35.5757 25.3425C36.3913 23.9931 36.8969 22.3435 37.0665 20.7662C37.2342 19.2056 37.0856 17.5918 36.4586 16.3636L34.7589 17.2311C35.1548 18.0067 35.315 19.2048 35.1691 20.5622C35.025 21.9027 34.5943 23.277 33.9425 24.3552L35.5757 25.3425ZM36.4826 16.4141C35.1875 13.4609 32.7364 11.7945 29.7329 11.287L29.4149 13.1686C31.8608 13.582 33.7277 14.8838 34.7349 17.1806L36.4826 16.4141ZM29.7028 11.2824C27.1412 10.933 23.6193 11.9485 21.4676 14.5989L22.9491 15.8017C24.6388 13.7205 27.4745 12.9045 29.4449 13.1732L29.7028 11.2824ZM21.4933 14.5686C20.4537 15.7454 19.5225 17.6451 18.5854 19.8503L20.3417 20.5966C21.2874 18.3713 22.1153 16.7468 22.9235 15.832L21.4933 14.5686Z" fill="#0E67B4" mask="url(#path-1-outside-1_10048_107)"/>
</g>
<defs>
<filter id="filter0_d_10048_107" x="0.789527" y="0.882812" width="51.5445" height="76.6052" filterUnits="userSpaceOnUse" color-interpolation-filters="sRGB">
<feFlood flood-opacity="0" result="BackgroundImageFix"/>
<feColorMatrix in="SourceAlpha" type="matrix" values="0 0 0 0 0 0 0 0 0 0 0 0 0 0 0 0 0 0 127 0" result="hardAlpha"/>
<feOffset dx="-4.07743" dy="4.07743"/>
<feGaussianBlur stdDeviation="1.63097"/>
<feComposite in2="hardAlpha" operator="out"/>
<feColorMatrix type="matrix" values="0 0 0 0 0 0 0 0 0 0 0 0 0 0 0 0 0 0 0.15 0"/>
<feBlend mode="normal" in2="BackgroundImageFix" result="effect1_dropShadow_10048_107"/>
<feBlend mode="normal" in="SourceGraphic" in2="effect1_dropShadow_10048_107" result="shape"/>
</filter>
</defs>
</svg>
