<svg width="61" height="76" viewBox="0 0 61 76" fill="none" xmlns="http://www.w3.org/2000/svg">
<g filter="url(#filter0_d_9429_2160)">
<mask id="path-1-outside-1_9429_2160" maskUnits="userSpaceOnUse" x="11.9217" y="4.43574" width="47.5614" height="61.6059" fill="black">
<rect fill="white" x="11.9217" y="4.43574" width="47.5614" height="61.6059"/>
<path d="M51.4128 34.808C51.9741 36.373 52.3121 38.0809 52.4266 39.9315C52.4648 40.5484 52.4707 41.477 52.4443 42.7171C52.2531 45.464 51.5913 48.111 50.4588 50.6582C48.9692 54.1047 46.6913 56.9034 43.6249 59.0542C40.5554 61.1536 37.0414 62.3258 33.083 62.5709C29.176 62.8127 25.774 62.0428 22.8771 60.2612C20.0283 58.425 18.0363 55.839 16.9009 52.5034C16.3364 50.887 15.9984 49.1791 15.8871 47.3799L15.8639 45.7557C15.8962 45.4441 15.9847 45.2064 16.1294 45.0426C16.3255 44.8757 16.5521 44.7843 16.8091 44.7683L27.6047 44.1C28.1702 44.065 28.4721 44.356 28.5103 44.9729C28.4965 46.4186 28.7271 47.6429 29.2021 48.6456C29.5227 49.6578 30.0604 50.4244 30.8152 50.9453C31.6181 51.4117 32.5594 51.6114 33.6389 51.5446C35.7466 51.4141 37.3826 50.3324 38.5469 48.2993C39.3895 46.9054 39.8243 45.1755 39.8512 43.1097C39.8967 42.178 39.9068 41.5065 39.8813 41.0952C39.7954 39.7072 39.5454 38.5874 39.1315 37.7357C38.294 35.8782 36.77 35.0178 34.5595 35.1547C33.994 35.1897 33.3641 35.4351 32.6699 35.8909C31.9724 36.2953 31.0821 36.9181 29.9989 37.7592C29.8028 37.9262 29.6019 38.016 29.3963 38.0288C29.1393 38.0447 28.9241 37.9032 28.7508 37.6043L23.878 30.1652C23.7625 29.9659 23.6999 29.7892 23.6904 29.635C23.6713 29.3265 23.8096 29.0599 24.1053 28.8352L36.1931 19.0302C36.2896 18.9211 36.3346 18.8151 36.3282 18.7122C36.3219 18.6094 36.2416 18.5628 36.0874 18.5723L19.6626 19.5891C19.4055 19.6051 19.1951 19.5407 19.0313 19.396C18.8644 19.1999 18.7987 18.9718 18.8342 18.7115L19.4275 9.54074C19.463 9.28052 19.5531 9.06852 19.6978 8.90475C19.8907 8.68639 20.1157 8.56925 20.3727 8.55334L52.991 6.53407C53.248 6.51816 53.46 6.60824 53.627 6.80433C53.7907 6.949 53.8549 7.15145 53.8194 7.41168L53.2205 17.7439C53.1977 18.2098 52.9903 18.6097 52.5981 18.9436L43.1042 26.885C42.863 27.1579 42.8999 27.3363 43.2147 27.42C47.1885 28.2577 49.9212 30.7204 51.4128 34.808Z"/>
</mask>
<path d="M51.4128 34.808L52.7351 34.3338L52.7324 34.3265L51.4128 34.808ZM52.4443 42.7171L53.8456 42.8146L53.8479 42.7809L53.8487 42.7471L52.4443 42.7171ZM50.4588 50.6582L49.1753 50.0875L49.1723 50.0942L49.1694 50.1009L50.4588 50.6582ZM43.6249 59.0542L44.4179 60.2136L44.4248 60.209L44.4316 60.2042L43.6249 59.0542ZM22.8771 60.2612L22.116 61.4419L22.1285 61.4499L22.1412 61.4577L22.8771 60.2612ZM16.9009 52.5034L18.2307 52.0507L18.2271 52.0402L16.9009 52.5034ZM15.8871 47.3799L14.4825 47.3999L14.483 47.4333L14.485 47.4667L15.8871 47.3799ZM15.8639 45.7557L14.4667 45.6109L14.4582 45.6931L14.4593 45.7757L15.8639 45.7557ZM16.1294 45.0426L15.2187 43.9731L15.1427 44.0378L15.0766 44.1126L16.1294 45.0426ZM28.5103 44.9729L29.9149 44.9862L29.9154 44.9361L29.9123 44.8861L28.5103 44.9729ZM29.2021 48.6456L30.5412 48.2213L30.5124 48.1304L30.4716 48.0443L29.2021 48.6456ZM30.8152 50.9453L30.0172 52.1014L30.0623 52.1325L30.1097 52.16L30.8152 50.9453ZM38.5469 48.2993L37.3448 47.5726L37.3362 47.5868L37.3279 47.6012L38.5469 48.2993ZM39.8512 43.1097L38.4481 43.0411L38.4469 43.0662L38.4466 43.0914L39.8512 43.1097ZM39.1315 37.7357L37.8509 38.3131L37.8592 38.3316L37.8681 38.3498L39.1315 37.7357ZM32.6699 35.8909L33.3745 37.1061L33.4082 37.0866L33.4408 37.0652L32.6699 35.8909ZM29.9989 37.7592L29.1373 36.6497L29.1123 36.6691L29.0882 36.6897L29.9989 37.7592ZM28.7508 37.6043L29.966 36.8996L29.9468 36.8666L29.9258 36.8346L28.7508 37.6043ZM23.878 30.1652L22.6628 30.8698L22.682 30.9029L22.7029 30.9349L23.878 30.1652ZM24.1053 28.8352L24.9552 29.9536L24.9729 29.9402L24.9902 29.9261L24.1053 28.8352ZM36.1931 19.0302L37.078 20.1212L37.1686 20.0477L37.2459 19.9603L36.1931 19.0302ZM19.0313 19.396L17.9618 20.3067L18.0265 20.3827L18.1013 20.4487L19.0313 19.396ZM18.8342 18.7115L20.226 18.9014L20.2327 18.852L20.2359 18.8022L18.8342 18.7115ZM19.4275 9.54074L18.0357 9.35089L18.029 9.40029L18.0258 9.45004L19.4275 9.54074ZM19.6978 8.90475L18.645 7.97474L18.645 7.97474L19.6978 8.90475ZM53.627 6.80433L52.5574 7.71498L52.6221 7.79099L52.6969 7.85708L53.627 6.80433ZM53.8194 7.41168L52.4276 7.22183L52.4202 7.2759L52.417 7.33039L53.8194 7.41168ZM53.2205 17.7439L51.8181 17.6626L51.8175 17.6753L53.2205 17.7439ZM52.5981 18.9436L53.4994 20.0211L53.5088 20.0131L52.5981 18.9436ZM43.1042 26.885L42.2029 25.8075L42.1216 25.8755L42.0514 25.955L43.1042 26.885ZM43.2147 27.42L42.8537 28.7775L42.8891 28.7869L42.925 28.7945L43.2147 27.42ZM50.0906 35.2823C50.6023 36.7091 50.9173 38.2849 51.0246 40.0183L53.8287 39.8447C53.7069 37.8768 53.3459 36.0369 52.735 34.3338L50.0906 35.2823ZM51.0246 40.0183C51.0591 40.5747 51.0661 41.4555 51.0399 42.6872L53.8487 42.7471C53.8753 41.4984 53.8706 40.5222 53.8287 39.8447L51.0246 40.0183ZM51.0429 42.6196C50.8633 45.2011 50.242 47.6881 49.1753 50.0875L51.7424 51.2288C52.9405 48.5339 53.6429 45.727 53.8456 42.8146L51.0429 42.6196ZM49.1694 50.1009C47.7826 53.3096 45.6714 55.9029 42.8183 57.9042L44.4316 60.2042C47.7111 57.9039 50.1559 54.8998 51.7483 51.2155L49.1694 50.1009ZM42.8319 57.8947C39.9856 59.8415 36.7191 60.9384 32.9962 61.1688L33.1698 63.9729C37.3637 63.7133 41.1252 62.4657 44.4179 60.2136L42.8319 57.8947ZM32.9962 61.1688C29.333 61.3956 26.2275 60.6726 23.613 59.0646L22.1412 61.4577C25.3205 63.413 29.019 64.2298 33.1698 63.9729L32.9962 61.1688ZM23.6381 59.0805C21.0668 57.4231 19.2684 55.0993 18.2307 52.0507L15.5711 52.956C16.8042 56.5787 18.9899 59.4268 22.116 61.4419L23.6381 59.0805ZM18.2271 52.0402C17.7071 50.5515 17.393 48.9708 17.2891 47.2931L14.485 47.4667C14.6039 49.3875 14.9656 51.2225 15.5747 52.9665L18.2271 52.0402ZM17.2916 47.3599L17.2685 45.7357L14.4593 45.7757L14.4825 47.3999L17.2916 47.3599ZM17.2611 45.9006C17.2678 45.8364 17.2765 45.8191 17.271 45.8338C17.2646 45.851 17.2407 45.9063 17.1822 45.9727L15.0766 44.1126C14.6705 44.5724 14.5166 45.1295 14.4667 45.6109L17.2611 45.9006ZM17.0401 46.1122C17.0294 46.1213 17.0062 46.1377 16.9721 46.1515C16.9379 46.1653 16.9099 46.1695 16.8959 46.1704L16.7223 43.3663C16.1619 43.401 15.6463 43.6091 15.2187 43.9731L17.0401 46.1122ZM16.8959 46.1704L27.6915 45.5021L27.5179 42.698L16.7223 43.3663L16.8959 46.1704ZM27.6915 45.5021C27.7253 45.5 27.5024 45.5173 27.2804 45.3033C27.081 45.1111 27.1007 44.9386 27.1082 45.0596L29.9123 44.8861C29.8816 44.3903 29.7313 43.7638 29.2301 43.2806C28.7062 42.7757 28.0497 42.6651 27.5179 42.698L27.6915 45.5021ZM27.1056 44.9595C27.0905 46.5558 27.3434 48.0031 27.9325 49.2469L30.4716 48.0443C30.1108 47.2827 29.9026 46.2814 29.9149 44.9862L27.1056 44.9595ZM27.8629 49.0698C28.2623 50.3303 28.9666 51.3762 30.0172 52.1014L31.6131 49.7893C31.1543 49.4726 30.7832 48.9853 30.5412 48.2213L27.8629 49.0698ZM30.1097 52.16C31.19 52.7875 32.4161 53.0277 33.7257 52.9466L33.5521 50.1426C32.7026 50.1952 32.0463 50.0359 31.5207 49.7306L30.1097 52.16ZM33.7257 52.9466C36.3631 52.7834 38.397 51.3877 39.7659 48.9974L37.3279 47.6012C36.3682 49.277 35.1302 50.0449 33.5521 50.1426L33.7257 52.9466ZM39.749 49.026C40.7513 47.368 41.2265 45.3777 41.2558 43.128L38.4466 43.0914C38.4221 44.9734 38.0277 46.4429 37.3448 47.5726L39.749 49.026ZM41.2542 43.1782C41.2999 42.2427 41.314 41.5038 41.2833 41.0084L38.4793 41.182C38.4995 41.5092 38.4935 42.1132 38.4481 43.0411L41.2542 43.1782ZM41.2833 41.0084C41.1909 39.5156 40.9174 38.1966 40.3948 37.1216L37.8681 38.3498C38.1735 38.9781 38.3998 39.8988 38.4793 41.182L41.2833 41.0084ZM40.4121 37.1584C39.8913 36.0034 39.1144 35.0744 38.0509 34.474C36.997 33.8791 35.7773 33.6719 34.4727 33.7526L34.6463 36.5567C35.5522 36.5006 36.1998 36.6552 36.6698 36.9206C37.1303 37.1805 37.5342 37.6105 37.8509 38.3131L40.4121 37.1584ZM34.4727 33.7526C33.5754 33.8082 32.7087 34.185 31.8989 34.7167L33.4408 37.0652C34.0196 36.6852 34.4125 36.5712 34.6463 36.5567L34.4727 33.7526ZM31.9652 34.6757C31.1884 35.1261 30.2411 35.7927 29.1373 36.6497L30.8604 38.8687C31.9231 38.0435 32.7564 37.4645 33.3745 37.1061L31.9652 34.6757ZM29.0882 36.6897C29.075 36.7009 29.0874 36.6875 29.1276 36.6695C29.1704 36.6504 29.233 36.6315 29.3095 36.6267L29.4831 39.4308C30.061 39.395 30.5407 39.1428 30.9095 38.8288L29.0882 36.6897ZM29.3095 36.6267C29.4843 36.6159 29.6675 36.6646 29.8139 36.7609C29.9398 36.8437 29.9789 36.9219 29.966 36.8996L27.5356 38.3089C27.8694 38.8846 28.512 39.4909 29.4831 39.4308L29.3095 36.6267ZM29.9258 36.8346L25.0531 29.3955L22.7029 30.9349L27.5757 38.374L29.9258 36.8346ZM25.0932 29.4606C25.0696 29.4197 25.0653 29.405 25.0687 29.4146C25.072 29.424 25.0876 29.4708 25.0924 29.5482L22.2883 29.7218C22.3163 30.1741 22.4871 30.5669 22.6628 30.8698L25.0932 29.4606ZM25.0924 29.5482C25.0981 29.6403 25.0783 29.7511 25.0267 29.8506C24.9801 29.9403 24.9347 29.9692 24.9552 29.9536L23.2554 27.7168C22.6724 28.1598 22.2341 28.8454 22.2883 29.7218L25.0924 29.5482ZM24.9902 29.9261L37.078 20.1212L35.3082 17.9393L23.2204 27.7443L24.9902 29.9261ZM37.2459 19.9603C37.4857 19.6888 37.7678 19.2313 37.7303 18.6254L34.9262 18.799C34.9014 18.3989 35.0934 18.1533 35.1404 18.1002L37.2459 19.9603ZM37.7303 18.6254C37.7018 18.1656 37.4647 17.6735 36.9687 17.3854C36.5773 17.1581 36.1892 17.1586 36.0006 17.1703L36.1742 19.9744C36.1398 19.9765 35.8689 19.9956 35.5578 19.8149C35.3828 19.7133 35.2154 19.5589 35.0944 19.3503C34.9767 19.1473 34.9355 18.9494 34.9262 18.799L37.7303 18.6254ZM36.0006 17.1703L19.5758 18.1871L19.7494 20.9912L36.1742 19.9744L36.0006 17.1703ZM19.5758 18.1871C19.5873 18.1864 19.6422 18.1848 19.723 18.2095C19.8082 18.2356 19.8919 18.2819 19.9614 18.3432L18.1013 20.4487C18.5937 20.8837 19.1919 21.0257 19.7494 20.9912L19.5758 18.1871ZM20.1009 18.4853C20.1358 18.5263 20.1797 18.5954 20.2066 18.6889C20.2334 18.7818 20.2318 18.8584 20.226 18.9014L17.4423 18.5217C17.354 19.1689 17.53 19.7995 17.9618 20.3067L20.1009 18.4853ZM20.2359 18.8022L20.8293 9.63144L18.0258 9.45004L17.4324 18.6208L20.2359 18.8022ZM20.8194 9.7306C20.8225 9.70723 20.8246 9.71229 20.8146 9.73596C20.8038 9.76135 20.7835 9.7975 20.7506 9.83476L18.645 7.97474C18.2824 8.38518 18.101 8.87215 18.0357 9.35089L20.8194 9.7306ZM20.7506 9.83477C20.7496 9.83581 20.7213 9.8671 20.6599 9.89907C20.5954 9.9327 20.524 9.95138 20.4595 9.95537L20.2859 7.15131C19.607 7.19334 19.0493 7.51714 18.645 7.97474L20.7506 9.83477ZM20.4595 9.95537L53.0778 7.9361L52.9042 5.13204L20.2859 7.15131L20.4595 9.95537ZM53.0778 7.9361C53.0146 7.94001 52.9107 7.9324 52.7934 7.88253C52.676 7.83266 52.5985 7.76317 52.5574 7.71498L54.6965 5.89367C54.2429 5.36094 53.6025 5.08881 52.9042 5.13204L53.0778 7.9361ZM52.6969 7.85708C52.5938 7.76598 52.5059 7.63767 52.4588 7.48891C52.415 7.35064 52.4237 7.25015 52.4276 7.22183L55.2112 7.60152C55.2955 6.98381 55.1472 6.27297 54.557 5.75158L52.6969 7.85708ZM52.417 7.33039L51.8181 17.6626L54.6229 17.8252L55.2217 7.49296L52.417 7.33039ZM51.8175 17.6753C51.8157 17.7113 51.8185 17.7624 51.6874 17.874L53.5088 20.0131C54.162 19.4569 54.5798 18.7083 54.6235 17.8125L51.8175 17.6753ZM51.6968 17.8661L42.2029 25.8075L44.0055 27.9624L53.4994 20.021L51.6968 17.8661ZM42.0514 25.955C41.9377 26.0837 41.7993 26.264 41.6957 26.4927C41.5911 26.7238 41.4878 27.084 41.5753 27.5076C41.7673 28.4371 42.5999 28.71 42.8537 28.7775L43.5757 26.0625C43.5937 26.0672 43.7189 26.1004 43.8701 26.2131C44.0428 26.3418 44.2526 26.581 44.3266 26.9392C44.3957 27.2737 44.3087 27.5329 44.2552 27.6512C44.227 27.7135 44.1996 27.7565 44.1838 27.7795C44.1676 27.8031 44.157 27.815 44.1569 27.815L42.0514 25.955ZM42.925 28.7945C46.385 29.5239 48.7535 31.6182 50.0932 35.2895L52.7324 34.3265C51.0889 29.8226 47.9921 26.9915 43.5045 26.0455L42.925 28.7945Z" fill="#16CCFF" mask="url(#path-1-outside-1_9429_2160)"/>
<g filter="url(#filter1_d_9429_2160)">
<path d="M45.091 40.4281C45.6523 41.9931 45.9903 43.701 46.1049 45.5517C46.1431 46.1686 46.1489 47.0971 46.1225 48.3372C45.9313 51.0841 45.2695 53.7311 44.1371 56.2783C42.6475 59.7248 40.3695 62.5235 37.3031 64.6743C34.2336 66.7737 30.7196 67.9459 26.7612 68.191C22.8542 68.4328 19.4523 67.6629 16.5553 65.8813C13.7066 64.0451 11.7145 61.4591 10.5791 58.1235C10.0146 56.5071 9.67667 54.7993 9.56528 53L9.54214 51.3759C9.57446 51.0642 9.66295 50.8265 9.80763 50.6628C10.0037 50.4958 10.2303 50.4044 10.4873 50.3885L21.283 49.7201C21.8484 49.6851 22.1503 49.9761 22.1885 50.593C22.1748 52.0388 22.4054 53.263 22.8803 54.2657C23.201 55.2779 23.7387 56.0445 24.4934 56.5655C25.2963 57.0318 26.2376 57.2316 27.3171 57.1647C29.4249 57.0342 31.0609 55.9525 32.2251 53.9194C33.0677 52.5255 33.5025 50.7956 33.5294 48.7298C33.5749 47.7981 33.585 47.1266 33.5595 46.7153C33.4736 45.3273 33.2236 44.2075 32.8097 43.3558C31.9722 41.4983 30.4482 40.638 28.2377 40.7748C27.6722 40.8098 27.0423 41.0552 26.3481 41.511C25.6507 41.9154 24.7603 42.5382 23.6771 43.3793C23.481 43.5463 23.2801 43.6361 23.0745 43.6489C22.8175 43.6648 22.6023 43.5233 22.429 43.2244L17.5562 35.7853C17.4407 35.586 17.3781 35.4093 17.3686 35.2551C17.3495 34.9466 17.4878 34.68 17.7835 34.4553L29.8713 24.6504C29.9678 24.5412 30.0128 24.4352 30.0065 24.3324C30.0001 24.2295 29.9198 24.1829 29.7656 24.1925L13.3408 25.2093C13.0837 25.2252 12.8733 25.1608 12.7096 25.0161C12.5426 24.82 12.4769 24.5919 12.5124 24.3317L13.1058 15.1609C13.1413 14.9006 13.2313 14.6886 13.376 14.5249C13.5689 14.3065 13.7939 14.1894 14.0509 14.1735L46.6692 12.1542C46.9262 12.1383 47.1382 12.2284 47.3052 12.4244C47.469 12.5691 47.5331 12.7716 47.4976 13.0318L46.8987 23.364C46.876 23.8299 46.6685 24.2298 46.2763 24.5637L36.7824 32.5051C36.5413 32.7781 36.5781 32.9564 36.8929 33.0401C40.8668 33.8778 43.5995 36.3405 45.091 40.4281Z" fill="white"/>
</g>
</g>
<defs>
<filter id="filter0_d_9429_2160" x="1.8366" y="0.846578" width="58.7477" height="74.7684" filterUnits="userSpaceOnUse" color-interpolation-filters="sRGB">
<feFlood flood-opacity="0" result="BackgroundImageFix"/>
<feColorMatrix in="SourceAlpha" type="matrix" values="0 0 0 0 0 0 0 0 0 0 0 0 0 0 0 0 0 0 127 0" result="hardAlpha"/>
<feOffset dy="1.07028"/>
<feGaussianBlur stdDeviation="2.67569"/>
<feComposite in2="hardAlpha" operator="out"/>
<feColorMatrix type="matrix" values="0 0 0 0 0 0 0 0 0 0 0 0 0 0 0 0 0 0 0.25 0"/>
<feBlend mode="normal" in2="BackgroundImageFix" result="effect1_dropShadow_9429_2160"/>
<feBlend mode="normal" in="SourceGraphic" in2="effect1_dropShadow_9429_2160" result="shape"/>
</filter>
<filter id="filter1_d_9429_2160" x="0.866766" y="12.1016" width="50.0302" height="63.413" filterUnits="userSpaceOnUse" color-interpolation-filters="sRGB">
<feFlood flood-opacity="0" result="BackgroundImageFix"/>
<feColorMatrix in="SourceAlpha" type="matrix" values="0 0 0 0 0 0 0 0 0 0 0 0 0 0 0 0 0 0 127 0" result="hardAlpha"/>
<feOffset dx="-3.51179" dy="3.51179"/>
<feGaussianBlur stdDeviation="1.40472"/>
<feComposite in2="hardAlpha" operator="out"/>
<feColorMatrix type="matrix" values="0 0 0 0 0 0 0 0 0 0 0 0 0 0 0 0 0 0 0.15 0"/>
<feBlend mode="normal" in2="BackgroundImageFix" result="effect1_dropShadow_9429_2160"/>
<feBlend mode="normal" in="SourceGraphic" in2="effect1_dropShadow_9429_2160" result="shape"/>
</filter>
</defs>
</svg>
