<svg width="474" height="35" viewBox="0 0 474 35" fill="none" xmlns="http://www.w3.org/2000/svg">
<path d="M5.15691 34L0.291914 8.45H6.38191L9.32191 25.74L18.4569 8.45H25.0719L11.0369 34H5.15691ZM35.1377 34.35C33.131 34.35 31.3227 33.965 29.7127 33.195C28.1027 32.4017 26.761 31.3517 25.6877 30.045C24.6377 28.715 23.8794 27.1867 23.4127 25.46C22.9694 23.7333 22.911 21.9133 23.2377 20C23.5177 18.32 24.0777 16.7567 24.9177 15.31C25.781 13.84 26.831 12.58 28.0677 11.53C29.3277 10.4567 30.751 9.61667 32.3377 9.01C33.9244 8.40333 35.5927 8.1 37.3427 8.1C39.326 8.1 41.111 8.49667 42.6977 9.29C44.3077 10.06 45.6494 11.11 46.7227 12.44C47.796 13.7467 48.5544 15.2633 48.9977 16.99C49.4644 18.7167 49.5344 20.5367 49.2077 22.45C48.9277 24.13 48.3677 25.705 47.5277 27.175C46.711 28.6217 45.6844 29.8817 44.4477 30.955C43.2344 32.005 41.8344 32.8333 40.2477 33.44C38.661 34.0467 36.9577 34.35 35.1377 34.35ZM35.6277 28.33C36.6077 28.33 37.506 28.1667 38.3227 27.84C39.1627 27.5133 39.9094 27.0583 40.5627 26.475C41.216 25.8917 41.7527 25.215 42.1727 24.445C42.5927 23.6517 42.8844 22.8 43.0477 21.89C43.2344 20.8633 43.211 19.8833 42.9777 18.95C42.7677 17.9933 42.3827 17.165 41.8227 16.465C41.2627 15.7417 40.551 15.17 39.6877 14.75C38.8477 14.3067 37.8794 14.085 36.7827 14.085C35.8027 14.085 34.8927 14.26 34.0527 14.61C33.236 14.9367 32.501 15.3917 31.8477 15.975C31.2177 16.535 30.681 17.2117 30.2377 18.005C29.8177 18.7983 29.526 19.65 29.3627 20.56C29.176 21.5867 29.1877 22.5667 29.3977 23.5C29.631 24.4333 30.0277 25.2617 30.5877 25.985C31.1477 26.685 31.8477 27.2567 32.6877 27.7C33.551 28.12 34.531 28.33 35.6277 28.33ZM54.9863 8.45H61.0763L56.5963 34H50.4713L54.9863 8.45ZM74.4143 34.35C72.2443 34.3733 70.3309 33.9883 68.6743 33.195C67.0409 32.4017 65.6993 31.34 64.6493 30.01C63.5993 28.6567 62.8759 27.105 62.4793 25.355C62.0826 23.605 62.0476 21.7617 62.3743 19.825C62.6543 18.145 63.2026 16.5933 64.0193 15.17C64.8593 13.7467 65.8976 12.51 67.1343 11.46C68.3943 10.41 69.8176 9.59333 71.4043 9.01C72.9909 8.40333 74.6826 8.1 76.4793 8.1C77.8326 8.1 79.1043 8.28667 80.2943 8.66C81.4843 9.01 82.5576 9.51166 83.5143 10.165C84.4709 10.795 85.3109 11.5533 86.0343 12.44C86.7576 13.3033 87.3409 14.26 87.7843 15.31L81.8343 18.18C81.4143 16.99 80.7143 16.01 79.7343 15.24C78.7776 14.47 77.5293 14.085 75.9893 14.085C75.0326 14.085 74.1343 14.2483 73.2943 14.575C72.4776 14.8783 71.7426 15.3217 71.0893 15.905C70.4359 16.465 69.8876 17.1417 69.4443 17.935C69.0009 18.7283 68.6976 19.5917 68.5343 20.525C68.3476 21.5517 68.3593 22.5433 68.5693 23.5C68.7793 24.4333 69.1643 25.2617 69.7243 25.985C70.2843 26.685 70.9843 27.2567 71.8243 27.7C72.6876 28.12 73.6793 28.33 74.7993 28.33C76.0126 28.33 77.1093 28.015 78.0893 27.385C79.0926 26.7317 79.9559 25.8217 80.6793 24.655L86.1043 28.05C85.4743 28.9833 84.7743 29.835 84.0043 30.605C83.2343 31.375 82.3709 32.04 81.4143 32.6C80.4576 33.1367 79.3959 33.5683 78.2293 33.895C77.0859 34.1983 75.8143 34.35 74.4143 34.35ZM92.0029 8.45H98.0929L93.6129 34H87.4879L92.0029 8.45ZM109.911 8.45H115.091L120.656 17.69L129.756 8.45H135.251L130.771 34H124.786L127.551 18.215L119.431 26.475L114.251 17.9L111.416 34H105.431L109.911 8.45ZM139.134 8.45H157.124L156.109 14.085H144.244L143.509 18.39H155.374L154.359 24.06H142.494L141.759 28.365H153.624L152.644 34H134.654L139.134 8.45ZM166.404 34.385C165.097 34.385 163.884 34.245 162.764 33.965C161.644 33.685 160.629 33.3 159.719 32.81C158.809 32.32 157.992 31.76 157.269 31.13C156.569 30.4767 155.974 29.7767 155.484 29.03L161.119 24.935C161.702 26.125 162.484 27.035 163.464 27.665C164.444 28.295 165.622 28.61 166.999 28.61C167.932 28.61 168.714 28.4117 169.344 28.015C169.997 27.595 170.382 27.07 170.499 26.44C170.569 25.9733 170.487 25.5767 170.254 25.25C170.021 24.9233 169.671 24.6433 169.204 24.41C168.761 24.1533 168.236 23.92 167.629 23.71C167.022 23.5 166.381 23.29 165.704 23.08C164.817 22.8 163.919 22.4733 163.009 22.1C162.122 21.7267 161.341 21.2367 160.664 20.63C159.987 20.0233 159.486 19.265 159.159 18.355C158.832 17.445 158.786 16.3017 159.019 14.925C159.206 13.875 159.591 12.93 160.174 12.09C160.781 11.25 161.527 10.5383 162.414 9.955C163.301 9.34833 164.292 8.88166 165.389 8.555C166.509 8.22833 167.664 8.065 168.854 8.065C170.114 8.065 171.246 8.17 172.249 8.38C173.252 8.59 174.151 8.89333 174.944 9.29C175.761 9.68667 176.496 10.1767 177.149 10.76C177.802 11.32 178.409 11.9617 178.969 12.685L173.614 16.29C173.217 15.5433 172.587 14.8783 171.724 14.295C170.861 13.6883 169.764 13.385 168.434 13.385C167.431 13.385 166.649 13.5717 166.089 13.945C165.529 14.3183 165.191 14.8083 165.074 15.415C165.004 15.8117 165.074 16.15 165.284 16.43C165.517 16.6867 165.844 16.9317 166.264 17.165C166.707 17.375 167.221 17.5733 167.804 17.76C168.387 17.9467 169.006 18.145 169.659 18.355C170.569 18.635 171.491 18.9733 172.424 19.37C173.357 19.7667 174.174 20.3033 174.874 20.98C175.597 21.6333 176.134 22.4617 176.484 23.465C176.834 24.445 176.881 25.6817 176.624 27.175C176.437 28.155 176.064 29.0883 175.504 29.975C174.967 30.8383 174.256 31.5967 173.369 32.25C172.506 32.9033 171.479 33.4283 170.289 33.825C169.122 34.1983 167.827 34.385 166.404 34.385ZM190.677 8.45H199.567C201.457 8.45 203.16 8.81167 204.677 9.535C206.217 10.235 207.489 11.2033 208.492 12.44C209.519 13.6533 210.242 15.065 210.662 16.675C211.082 18.285 211.14 19.9883 210.837 21.785C210.557 23.395 210.032 24.9467 209.262 26.44C208.492 27.91 207.512 29.205 206.322 30.325C205.132 31.445 203.744 32.3433 202.157 33.02C200.57 33.6733 198.809 34 196.872 34H186.197L190.677 8.45ZM195.752 14.015L193.267 28.365H197.117C198.05 28.365 198.937 28.1667 199.777 27.77C200.617 27.3733 201.364 26.86 202.017 26.23C202.694 25.5767 203.254 24.8417 203.697 24.025C204.14 23.185 204.432 22.3217 204.572 21.435C204.735 20.4083 204.724 19.4517 204.537 18.565C204.374 17.655 204.035 16.8617 203.522 16.185C203.032 15.5083 202.379 14.9833 201.562 14.61C200.769 14.2133 199.824 14.015 198.727 14.015H195.752ZM222.511 34.35C221.064 34.35 219.723 34.1283 218.486 33.685C217.249 33.2417 216.188 32.5883 215.301 31.725C214.438 30.8617 213.808 29.8 213.411 28.54C213.038 27.28 212.991 25.845 213.271 24.235L216.071 8.45H222.266L219.396 23.955C219.116 25.425 219.303 26.615 219.956 27.525C220.633 28.4117 221.613 28.855 222.896 28.855C224.343 28.855 225.498 28.435 226.361 27.595C227.248 26.7317 227.808 25.6817 228.041 24.445L230.876 8.45H237.071L234.236 24.305C233.956 25.845 233.501 27.245 232.871 28.505C232.264 29.7417 231.471 30.7917 230.491 31.655C229.534 32.5183 228.391 33.1833 227.061 33.65C225.731 34.1167 224.214 34.35 222.511 34.35ZM249.923 34.35C247.916 34.35 246.108 33.965 244.498 33.195C242.888 32.4017 241.546 31.3517 240.473 30.045C239.423 28.715 238.665 27.1867 238.198 25.46C237.755 23.7333 237.696 21.9133 238.023 20C238.303 18.32 238.863 16.7567 239.703 15.31C240.566 13.84 241.616 12.58 242.853 11.53C244.113 10.4567 245.536 9.61667 247.123 9.01C248.71 8.40333 250.378 8.1 252.128 8.1C254.111 8.1 255.896 8.49667 257.483 9.29C259.093 10.06 260.435 11.11 261.508 12.44C262.581 13.7467 263.34 15.2633 263.783 16.99C264.25 18.7167 264.32 20.5367 263.993 22.45C263.713 24.13 263.153 25.705 262.313 27.175C261.496 28.6217 260.47 29.8817 259.233 30.955C258.02 32.005 256.62 32.8333 255.033 33.44C253.446 34.0467 251.743 34.35 249.923 34.35ZM250.413 28.33C251.393 28.33 252.291 28.1667 253.108 27.84C253.948 27.5133 254.695 27.0583 255.348 26.475C256.001 25.8917 256.538 25.215 256.958 24.445C257.378 23.6517 257.67 22.8 257.833 21.89C258.02 20.8633 257.996 19.8833 257.763 18.95C257.553 17.9933 257.168 17.165 256.608 16.465C256.048 15.7417 255.336 15.17 254.473 14.75C253.633 14.3067 252.665 14.085 251.568 14.085C250.588 14.085 249.678 14.26 248.838 14.61C248.021 14.9367 247.286 15.3917 246.633 15.975C246.003 16.535 245.466 17.2117 245.023 18.005C244.603 18.7983 244.311 19.65 244.148 20.56C243.961 21.5867 243.973 22.5667 244.183 23.5C244.416 24.4333 244.813 25.2617 245.373 25.985C245.933 26.685 246.633 27.2567 247.473 27.7C248.336 28.12 249.316 28.33 250.413 28.33ZM275.027 34.385C273.72 34.385 272.507 34.245 271.387 33.965C270.267 33.685 269.252 33.3 268.342 32.81C267.432 32.32 266.615 31.76 265.892 31.13C265.192 30.4767 264.597 29.7767 264.107 29.03L269.742 24.935C270.325 26.125 271.107 27.035 272.087 27.665C273.067 28.295 274.245 28.61 275.622 28.61C276.555 28.61 277.337 28.4117 277.967 28.015C278.62 27.595 279.005 27.07 279.122 26.44C279.192 25.9733 279.11 25.5767 278.877 25.25C278.644 24.9233 278.294 24.6433 277.827 24.41C277.384 24.1533 276.859 23.92 276.252 23.71C275.645 23.5 275.004 23.29 274.327 23.08C273.44 22.8 272.542 22.4733 271.632 22.1C270.745 21.7267 269.964 21.2367 269.287 20.63C268.61 20.0233 268.109 19.265 267.782 18.355C267.455 17.445 267.409 16.3017 267.642 14.925C267.829 13.875 268.214 12.93 268.797 12.09C269.404 11.25 270.15 10.5383 271.037 9.955C271.924 9.34833 272.915 8.88166 274.012 8.555C275.132 8.22833 276.287 8.065 277.477 8.065C278.737 8.065 279.869 8.17 280.872 8.38C281.875 8.59 282.774 8.89333 283.567 9.29C284.384 9.68667 285.119 10.1767 285.772 10.76C286.425 11.32 287.032 11.9617 287.592 12.685L282.237 16.29C281.84 15.5433 281.21 14.8783 280.347 14.295C279.484 13.6883 278.387 13.385 277.057 13.385C276.054 13.385 275.272 13.5717 274.712 13.945C274.152 14.3183 273.814 14.8083 273.697 15.415C273.627 15.8117 273.697 16.15 273.907 16.43C274.14 16.6867 274.467 16.9317 274.887 17.165C275.33 17.375 275.844 17.5733 276.427 17.76C277.01 17.9467 277.629 18.145 278.282 18.355C279.192 18.635 280.114 18.9733 281.047 19.37C281.98 19.7667 282.797 20.3033 283.497 20.98C284.22 21.6333 284.757 22.4617 285.107 23.465C285.457 24.445 285.504 25.6817 285.247 27.175C285.06 28.155 284.687 29.0883 284.127 29.975C283.59 30.8383 282.879 31.5967 281.992 32.25C281.129 32.9033 280.102 33.4283 278.912 33.825C277.745 34.1983 276.45 34.385 275.027 34.385ZM299.3 8.45H309.485C310.699 8.45 311.877 8.70667 313.02 9.22C314.164 9.71 315.144 10.41 315.96 11.32C316.777 12.23 317.384 13.3267 317.78 14.61C318.177 15.8933 318.235 17.3167 317.955 18.88C317.745 20.21 317.349 21.435 316.765 22.555C316.182 23.6517 315.424 24.6083 314.49 25.425C313.58 26.2417 312.507 26.8833 311.27 27.35C310.034 27.7933 308.645 28.015 307.105 28.015H301.995L300.945 34H294.82L299.3 8.45ZM304.445 13.98L302.975 22.31H307.35C308.657 22.31 309.695 21.9367 310.465 21.19C311.235 20.4433 311.737 19.4517 311.97 18.215C312.064 17.6317 312.04 17.0833 311.9 16.57C311.784 16.0567 311.562 15.6133 311.235 15.24C310.932 14.8433 310.547 14.54 310.08 14.33C309.614 14.0967 309.089 13.98 308.505 13.98H304.445ZM322.782 8.45H333.317C334.717 8.45 336 8.695 337.167 9.185C338.333 9.65167 339.313 10.3283 340.107 11.215C340.9 12.0783 341.46 13.1167 341.787 14.33C342.137 15.52 342.183 16.8383 341.927 18.285C341.67 19.755 341.005 21.12 339.932 22.38C338.858 23.6167 337.435 24.5733 335.662 25.25L340.177 34H333.352L329.642 26.16H325.792L324.427 34H318.302L322.782 8.45ZM327.927 13.91L326.737 20.735H330.902C332.162 20.735 333.2 20.4783 334.017 19.965C334.857 19.4283 335.37 18.635 335.557 17.585C335.65 17.0717 335.65 16.5933 335.557 16.15C335.463 15.7067 335.265 15.3217 334.962 14.995C334.682 14.6683 334.285 14.4117 333.772 14.225C333.282 14.015 332.675 13.91 331.952 13.91H327.927ZM346.605 8.45H364.595L363.58 14.085H351.715L350.98 18.39H362.845L361.83 24.06H349.965L349.23 28.365H361.095L360.115 34H342.125L346.605 8.45ZM358.47 0.224999H364.42L357.875 6.42H353.465L358.47 0.224999ZM368.172 8.45H385.182L384.167 14.12H373.247L372.442 18.705H383.362L382.347 24.375H371.462L369.782 34H363.692L368.172 8.45ZM388.509 8.45H406.499L405.484 14.085H393.619L392.884 18.39H404.749L403.734 24.06H391.869L391.134 28.365H402.999L402.019 34H384.029L388.509 8.45ZM400.374 0.224999H406.324L399.779 6.42H395.369L400.374 0.224999ZM410.077 8.45H420.612C422.012 8.45 423.295 8.695 424.462 9.185C425.628 9.65167 426.608 10.3283 427.402 11.215C428.195 12.0783 428.755 13.1167 429.082 14.33C429.432 15.52 429.478 16.8383 429.222 18.285C428.965 19.755 428.3 21.12 427.227 22.38C426.153 23.6167 424.73 24.5733 422.957 25.25L427.472 34H420.647L416.937 26.16H413.087L411.722 34H405.597L410.077 8.45ZM415.222 13.91L414.032 20.735H418.197C419.457 20.735 420.495 20.4783 421.312 19.965C422.152 19.4283 422.665 18.635 422.852 17.585C422.945 17.0717 422.945 16.5933 422.852 16.15C422.758 15.7067 422.56 15.3217 422.257 14.995C421.977 14.6683 421.58 14.4117 421.067 14.225C420.577 14.015 419.97 13.91 419.247 13.91H415.222ZM433.9 8.45H451.89L450.875 14.085H439.01L438.275 18.39H450.14L449.125 24.06H437.26L436.525 28.365H448.39L447.41 34H429.42L433.9 8.45ZM445.765 0.224999H451.715L445.17 6.42H440.76L445.765 0.224999ZM461.17 34.385C459.863 34.385 458.65 34.245 457.53 33.965C456.41 33.685 455.395 33.3 454.485 32.81C453.575 32.32 452.758 31.76 452.035 31.13C451.335 30.4767 450.74 29.7767 450.25 29.03L455.885 24.935C456.468 26.125 457.25 27.035 458.23 27.665C459.21 28.295 460.388 28.61 461.765 28.61C462.698 28.61 463.48 28.4117 464.11 28.015C464.763 27.595 465.148 27.07 465.265 26.44C465.335 25.9733 465.253 25.5767 465.02 25.25C464.786 24.9233 464.436 24.6433 463.97 24.41C463.526 24.1533 463.001 23.92 462.395 23.71C461.788 23.5 461.146 23.29 460.47 23.08C459.583 22.8 458.685 22.4733 457.775 22.1C456.888 21.7267 456.106 21.2367 455.43 20.63C454.753 20.0233 454.251 19.265 453.925 18.355C453.598 17.445 453.551 16.3017 453.785 14.925C453.971 13.875 454.356 12.93 454.94 12.09C455.546 11.25 456.293 10.5383 457.18 9.955C458.066 9.34833 459.058 8.88166 460.155 8.555C461.275 8.22833 462.43 8.065 463.62 8.065C464.88 8.065 466.011 8.17 467.015 8.38C468.018 8.59 468.916 8.89333 469.71 9.29C470.526 9.68667 471.261 10.1767 471.915 10.76C472.568 11.32 473.175 11.9617 473.735 12.685L468.38 16.29C467.983 15.5433 467.353 14.8783 466.49 14.295C465.626 13.6883 464.53 13.385 463.2 13.385C462.196 13.385 461.415 13.5717 460.855 13.945C460.295 14.3183 459.956 14.8083 459.84 15.415C459.77 15.8117 459.84 16.15 460.05 16.43C460.283 16.6867 460.61 16.9317 461.03 17.165C461.473 17.375 461.986 17.5733 462.57 17.76C463.153 17.9467 463.771 18.145 464.425 18.355C465.335 18.635 466.256 18.9733 467.19 19.37C468.123 19.7667 468.94 20.3033 469.64 20.98C470.363 21.6333 470.9 22.4617 471.25 23.465C471.6 24.445 471.646 25.6817 471.39 27.175C471.203 28.155 470.83 29.0883 470.27 29.975C469.733 30.8383 469.021 31.5967 468.135 32.25C467.271 32.9033 466.245 33.4283 465.055 33.825C463.888 34.1983 462.593 34.385 461.17 34.385Z" fill="black"/>
</svg>
