<svg width="747" height="133" viewBox="0 0 747 133" fill="none" xmlns="http://www.w3.org/2000/svg">
<path fill-rule="evenodd" clip-rule="evenodd" d="M321.372 94.0403C288.478 95.357 255.969 96.976 224.269 98.7459C179.392 101.25 134.534 103.84 89.9454 107.941C75.9099 109.236 61.6568 110.056 47.7091 111.675C38.9537 112.689 27.3441 114.135 25.8205 114.438C25.0236 114.61 24.6759 114.87 24.5636 114.956C23.7737 115.56 23.9178 116.143 24.3637 116.596C24.5427 116.79 24.9955 117.265 26.2523 117.33C110.303 121.755 196.25 113.121 280.403 112.215C426.339 110.661 576.699 116.834 721.477 130.302C722.74 130.41 723.969 129.871 724.145 129.072C724.355 128.295 723.443 127.539 722.179 127.432C577.156 113.941 426.55 107.746 280.333 109.322C201.906 110.164 121.931 117.74 43.3946 115.15C45.199 114.934 46.9685 114.718 48.5834 114.524C62.4749 112.905 76.6683 112.107 90.6475 110.812C135.141 106.71 179.908 104.12 224.725 101.638C280.333 98.53 338.363 95.8535 396.85 94.6016C417.773 94.7958 438.626 94.9902 459.479 95.2276C504.591 95.7456 549.913 97.2566 594.919 99.2855C608.47 99.9114 622.021 100.559 635.572 101.12C640.066 101.314 651.651 101.875 653.266 101.832C655.267 101.789 655.653 100.753 655.688 100.581C655.793 100.192 655.723 99.6523 654.74 99.1991C654.634 99.1343 654.003 98.9183 652.598 98.7888C570.766 91.1479 483.387 89.8746 396.921 91.7093C305.715 90.9107 214.158 90.5652 123.184 90.1982C121.881 90.1982 120.818 90.8459 120.807 91.6445C120.8 92.4431 121.85 93.0908 123.152 93.1124C189.025 93.3714 255.232 93.6302 321.372 94.0403Z" fill="#FEEB06"/>
<path d="M43.746 78.2322L36.0483 58.9346C35.8355 58.438 35.729 57.8349 35.729 57.3028C35.729 55.6356 37.0061 54.4295 38.7088 54.4295C39.9858 54.4295 40.6953 55.1744 41.3338 56.9126L46.6549 71.2439L51.5857 57.1255C52.2242 55.2454 52.9337 54.4295 54.4235 54.4295C56.1617 54.4295 57.2259 55.4582 57.2259 57.09C57.2259 57.6576 57.1195 58.367 56.8357 59.0765L49.3863 78.0193C48.7123 79.722 47.8964 80.396 46.4775 80.396C45.094 80.396 44.3491 79.722 43.746 78.2322ZM57.6222 67.3063C57.6222 59.2893 62.6595 53.9683 70.0025 53.9683C77.3455 53.9683 82.4182 59.2893 82.4182 67.3063C82.4182 75.2879 77.4519 80.6444 70.0025 80.6444C62.553 80.6444 57.6222 75.2879 57.6222 67.3063ZM63.8656 67.3773C63.8656 72.1662 66.3842 75.146 70.0025 75.146C73.6208 75.146 76.1394 72.1662 76.1394 67.3773C76.1394 62.3755 73.6562 59.4312 70.0025 59.4312C66.3487 59.4312 63.8656 62.3755 63.8656 67.3773ZM91.5307 76.1392C91.5307 78.8707 90.6084 80.2187 88.6573 80.2187C86.7063 80.2187 85.784 78.8707 85.784 76.1392V58.438C85.784 55.7065 86.7063 54.3585 88.6573 54.3585C90.6084 54.3585 91.5307 55.7065 91.5307 58.438V76.1392ZM107.242 80.6444C99.9343 80.6444 94.8971 75.4298 94.8971 67.3063C94.8971 59.2184 100.36 53.9683 107.313 53.9683C111.782 53.9683 114.869 55.9903 114.869 58.0123C114.869 59.3603 113.769 60.6019 112.421 60.6019C111.108 60.6019 109.441 59.6086 107.348 59.6086C103.659 59.6086 101.14 62.5884 101.14 67.4482C101.14 72.1662 103.659 75.075 107.526 75.075C109.938 75.075 111.534 73.7625 112.882 73.7625C114.053 73.7625 115.188 74.9331 115.188 76.2811C115.188 78.5159 111.995 80.6444 107.242 80.6444ZM123.367 76.1392C123.367 78.8707 122.444 80.2187 120.493 80.2187C118.542 80.2187 117.62 78.8707 117.62 76.1392V58.438C117.62 55.7065 118.542 54.3585 120.493 54.3585C122.444 54.3585 123.367 55.7065 123.367 58.438V76.1392ZM137.986 75.5007L141.072 58.2961C141.533 55.6711 142.527 54.3585 144.974 54.3585C147.103 54.3585 148.415 55.4582 148.983 57.764L152.814 72.8402L156.397 57.7285C156.929 55.4937 158.241 54.3585 160.334 54.3585C162.853 54.3585 163.917 55.7065 164.378 58.5089L167.181 75.8554C167.287 76.4585 167.322 76.9196 167.322 77.2389C167.322 79.119 166.116 80.2541 164.414 80.2541C162.782 80.2541 161.86 79.119 161.576 76.8842L159.767 61.808C157.39 72.0598 155.936 77.8774 155.084 79.2254C154.588 80.0058 153.843 80.2541 152.672 80.2541C150.792 80.2541 149.834 79.5092 149.302 77.3453L145.577 61.808L143.591 76.5294C143.236 79.0481 142.349 80.2187 140.576 80.2187C138.944 80.2187 137.773 79.119 137.773 77.2389C137.773 76.8132 137.844 76.2102 137.986 75.5007ZM180.529 54.6778C183.26 54.6778 184.608 55.5646 184.608 57.3738C184.608 59.1829 183.26 60.0343 180.529 60.0343H175.846V64.5394H179.89C182.621 64.5394 183.969 65.3908 183.969 67.1999C183.969 69.0091 182.621 69.8604 179.89 69.8604H175.846V74.5784H180.706C183.437 74.5784 184.785 75.4298 184.785 77.2389C184.785 79.0481 183.437 79.8994 180.706 79.8994H174.001C170.951 79.8994 170.099 79.0126 170.099 76.2811V58.7218C170.099 55.9194 170.88 54.6778 174.072 54.6778H180.529ZM204.611 72.0953C204.611 76.9906 200.851 80.5734 194.82 80.5734C190.102 80.5734 186.661 78.5869 186.661 76.5294C186.661 75.0041 187.726 73.9399 189.499 73.9399C191.025 73.9399 193.082 75.2169 195.636 75.2169C197.232 75.2169 198.474 74.1172 198.474 72.6274C198.474 70.6054 196.807 69.9669 194.075 69.151C189.215 67.6965 186.945 65.9229 186.945 61.9853C186.945 57.4447 190.528 54.0038 196.097 54.0038C200.283 54.0038 202.979 55.7065 202.979 57.7285C202.979 59.2184 202.057 60.1762 200.39 60.1762C199.006 60.1762 197.41 59.2893 195.884 59.2893C194.111 59.2893 193.082 60.2117 193.082 61.4532C193.082 63.2624 194.785 63.4752 197.658 64.433C202.341 65.9938 204.611 68.2996 204.611 72.0953ZM222.951 79.8994C219.9 79.8994 219.049 79.0126 219.049 76.2811V58.7218C219.049 55.9194 219.829 54.6778 223.022 54.6778H227.74C232.919 54.6778 235.615 57.1609 235.615 60.9566C235.615 63.4043 234.621 65.0006 232.493 65.9229C235.792 66.7388 237.601 69.0091 237.601 72.3081C237.601 76.9196 234.48 79.8994 228.626 79.8994H222.951ZM224.795 74.9686H227.669C230.258 74.9686 231.571 73.9399 231.571 72.1307C231.571 70.1442 230.223 69.2929 227.562 69.2929H224.795V74.9686ZM224.795 64.5039H227.207C228.946 64.5039 230.045 63.4752 230.045 62.0563C230.045 60.5309 228.91 59.5731 227.137 59.5731H224.795V64.5039ZM239.666 67.3063C239.666 59.2893 244.703 53.9683 252.046 53.9683C259.389 53.9683 264.462 59.2893 264.462 67.3063C264.462 75.2879 259.496 80.6444 252.046 80.6444C244.597 80.6444 239.666 75.2879 239.666 67.3063ZM245.909 67.3773C245.909 72.1662 248.428 75.146 252.046 75.146C255.665 75.146 258.183 72.1662 258.183 67.3773C258.183 62.3755 255.7 59.4312 252.046 59.4312C248.393 59.4312 245.909 62.3755 245.909 67.3773ZM273.433 76.1392C273.433 78.8707 272.51 80.2187 270.559 80.2187C268.608 80.2187 267.686 78.8707 267.686 76.1392V58.2251C267.686 55.7065 268.502 54.394 270.347 54.394C271.624 54.394 272.475 55.0325 273.397 56.2386L284.004 70.2506V58.438C284.004 55.7065 284.926 54.3585 286.877 54.3585C288.828 54.3585 289.75 55.7065 289.75 58.438V76.7778C289.75 79.1545 288.97 80.3606 287.125 80.3606C285.919 80.3606 284.926 79.722 283.826 78.2676L273.433 64.5394V76.1392ZM298.124 79.8994C295.073 79.8994 294.222 79.0126 294.222 76.2811V58.7218C294.222 55.9194 295.002 54.6778 298.195 54.6778H302.913C308.092 54.6778 310.788 57.1609 310.788 60.9566C310.788 63.4043 309.795 65.0006 307.666 65.9229C310.965 66.7388 312.774 69.0091 312.774 72.3081C312.774 76.9196 309.653 79.8994 303.8 79.8994H298.124ZM299.968 74.9686H302.842C305.431 74.9686 306.744 73.9399 306.744 72.1307C306.744 70.1442 305.396 69.2929 302.735 69.2929H299.968V74.9686ZM299.968 64.5039H302.381C304.119 64.5039 305.219 63.4752 305.219 62.0563C305.219 60.5309 304.083 59.5731 302.31 59.5731H299.968V64.5039ZM314.839 67.3063C314.839 59.2893 319.877 53.9683 327.22 53.9683C334.563 53.9683 339.635 59.2893 339.635 67.3063C339.635 75.2879 334.669 80.6444 327.22 80.6444C319.77 80.6444 314.839 75.2879 314.839 67.3063ZM321.083 67.3773C321.083 72.1662 323.601 75.146 327.22 75.146C330.838 75.146 333.356 72.1662 333.356 67.3773C333.356 62.3755 330.873 59.4312 327.22 59.4312C323.566 59.4312 321.083 62.3755 321.083 67.3773ZM348.606 76.1392C348.606 78.8707 347.684 80.2187 345.733 80.2187C343.782 80.2187 342.859 78.8707 342.859 76.1392V58.2251C342.859 55.7065 343.675 54.394 345.52 54.394C346.797 54.394 347.648 55.0325 348.57 56.2386L359.177 70.2506V58.438C359.177 55.7065 360.099 54.3585 362.05 54.3585C364.001 54.3585 364.924 55.7065 364.924 58.438V76.7778C364.924 79.1545 364.143 80.3606 362.299 80.3606C361.093 80.3606 360.099 79.722 359 78.2676L348.606 64.5394V76.1392ZM385.997 72.0953C385.997 76.9906 382.236 80.5734 376.206 80.5734C371.488 80.5734 368.047 78.5869 368.047 76.5294C368.047 75.0041 369.111 73.9399 370.885 73.9399C372.41 73.9399 374.468 75.2169 377.022 75.2169C378.618 75.2169 379.86 74.1172 379.86 72.6274C379.86 70.6054 378.192 69.9669 375.461 69.151C370.601 67.6965 368.331 65.9229 368.331 61.9853C368.331 57.4447 371.914 54.0038 377.483 54.0038C381.669 54.0038 384.365 55.7065 384.365 57.7285C384.365 59.2184 383.442 60.1762 381.775 60.1762C380.392 60.1762 378.795 59.2893 377.27 59.2893C375.496 59.2893 374.468 60.2117 374.468 61.4532C374.468 63.2624 376.17 63.4752 379.044 64.433C383.726 65.9938 385.997 68.2996 385.997 72.0953ZM406.181 69.7185V76.1392C406.181 78.8707 405.259 80.2187 403.308 80.2187C401.357 80.2187 400.434 78.8707 400.434 76.1392V58.438C400.434 55.7065 401.357 54.3585 403.308 54.3585C405.259 54.3585 406.181 55.7065 406.181 58.438V64.3975H416.752V58.438C416.752 55.7065 417.674 54.3585 419.625 54.3585C421.576 54.3585 422.499 55.7065 422.499 58.438V76.1392C422.499 78.8707 421.576 80.2187 419.625 80.2187C417.674 80.2187 416.752 78.8707 416.752 76.1392V69.7185H406.181ZM432.717 69.8604H438.747L435.838 60.4954L432.717 69.8604ZM431.085 75.146L430.234 77.7001C429.666 79.4028 428.708 80.2541 427.467 80.2541C425.87 80.2541 424.735 79.119 424.735 77.5227C424.735 76.9551 424.806 76.3875 425.019 75.8554L431.582 58.0478C432.504 55.5292 433.852 54.3231 435.98 54.3231C437.931 54.3231 439.421 55.4937 440.202 57.6576L446.587 75.7845C446.835 76.494 446.977 77.097 446.977 77.5936C446.977 79.2254 445.736 80.2896 444.139 80.2896C442.649 80.2896 441.692 79.3673 441.124 77.4872L440.414 75.146H431.085ZM454.888 66.1002H457.548C459.889 66.1002 461.202 64.9296 461.202 62.9786C461.202 61.0985 459.925 59.9633 457.619 59.9633H454.888V66.1002ZM454.888 69.9314V76.1392C454.888 78.8707 453.965 80.2187 452.014 80.2187C450.063 80.2187 449.141 78.8707 449.141 76.1392V58.7218C449.141 55.9194 449.921 54.6778 453.114 54.6778H457.584C463.791 54.6778 467.197 57.9059 467.197 62.5529C467.197 66.1357 464.962 68.7253 461.166 69.3638L465.707 74.401C466.842 75.6781 467.41 76.7778 467.41 77.7001C467.41 79.1899 466.275 80.396 464.678 80.396C463.543 80.396 462.656 79.6511 461.592 78.3386L454.888 69.9314ZM476.196 76.1392C476.196 78.8707 475.274 80.2187 473.322 80.2187C471.371 80.2187 470.449 78.8707 470.449 76.1392V58.438C470.449 55.7065 471.371 54.3585 473.322 54.3585C475.274 54.3585 476.196 55.7065 476.196 58.438V76.1392ZM484.706 79.8994C481.655 79.8994 480.804 79.0126 480.804 76.2811V58.7218C480.804 55.9194 481.584 54.6778 484.777 54.6778H489.495C494.674 54.6778 497.37 57.1609 497.37 60.9566C497.37 63.4043 496.377 65.0006 494.248 65.9229C497.547 66.7388 499.356 69.0091 499.356 72.3081C499.356 76.9196 496.235 79.8994 490.382 79.8994H484.706ZM486.55 74.9686H489.424C492.013 74.9686 493.326 73.9399 493.326 72.1307C493.326 70.1442 491.978 69.2929 489.317 69.2929H486.55V74.9686ZM486.55 64.5039H488.963C490.701 64.5039 491.801 63.4752 491.801 62.0563C491.801 60.5309 490.665 59.5731 488.892 59.5731H486.55V64.5039ZM501.421 67.3063C501.421 59.2893 506.459 53.9683 513.802 53.9683C521.145 53.9683 526.217 59.2893 526.217 67.3063C526.217 75.2879 521.251 80.6444 513.802 80.6444C506.352 80.6444 501.421 75.2879 501.421 67.3063ZM507.665 67.3773C507.665 72.1662 510.183 75.146 513.802 75.146C517.42 75.146 519.938 72.1662 519.938 67.3773C519.938 62.3755 517.455 59.4312 513.802 59.4312C510.148 59.4312 507.665 62.3755 507.665 67.3773ZM546.689 66.5969H549.172C551.797 66.5969 553.11 65.4617 553.11 63.2624C553.11 60.9921 551.833 59.9633 549.172 59.9633H546.689V66.5969ZM546.689 76.1392C546.689 78.8707 545.767 80.2187 543.816 80.2187C541.865 80.2187 540.942 78.8707 540.942 76.1392V58.7218C540.942 55.9194 541.723 54.6778 544.915 54.6778H550.094C555.877 54.6778 559.318 58.0478 559.318 63.2624C559.318 68.5479 556.125 71.8115 550.556 71.8115H546.689V76.1392ZM568.202 66.1002H570.862C573.203 66.1002 574.516 64.9296 574.516 62.9786C574.516 61.0985 573.239 59.9633 570.933 59.9633H568.202V66.1002ZM568.202 69.9314V76.1392C568.202 78.8707 567.279 80.2187 565.328 80.2187C563.377 80.2187 562.455 78.8707 562.455 76.1392V58.7218C562.455 55.9194 563.235 54.6778 566.428 54.6778H570.898C577.106 54.6778 580.511 57.9059 580.511 62.5529C580.511 66.1357 578.276 68.7253 574.481 69.3638L579.021 74.401C580.156 75.6781 580.724 76.7778 580.724 77.7001C580.724 79.1899 579.589 80.396 577.992 80.396C576.857 80.396 575.97 79.6511 574.906 78.3386L568.202 69.9314ZM594.051 54.6778C596.782 54.6778 598.13 55.5646 598.13 57.3738C598.13 59.1829 596.782 60.0343 594.051 60.0343H589.368V64.5394H593.412C596.143 64.5394 597.491 65.3908 597.491 67.1999C597.491 69.0091 596.143 69.8604 593.412 69.8604H589.368V74.5784H594.228C596.959 74.5784 598.307 75.4298 598.307 77.2389C598.307 79.0481 596.959 79.8994 594.228 79.8994H587.523C584.473 79.8994 583.621 79.0126 583.621 76.2811V58.7218C583.621 55.9194 584.402 54.6778 587.594 54.6778H594.051ZM591.319 51.9109C590.645 52.6558 590.042 53.0105 589.404 53.0105C588.233 53.0105 587.488 52.1947 587.488 51.0595C587.488 50.5983 587.665 50.0662 588.091 49.4987L590.681 45.9513C591.213 45.2064 591.922 44.8162 592.703 44.8162C593.98 44.8162 594.937 45.774 594.937 46.9446C594.937 47.6186 594.618 48.2571 594.015 48.9311L591.319 51.9109ZM611.96 54.6778C614.692 54.6778 616.04 55.5646 616.04 57.3738C616.04 59.1829 614.692 60.0343 611.96 60.0343H607.278V64.5394H611.322C614.053 64.5394 615.401 65.3908 615.401 67.1999C615.401 69.0091 614.053 69.8604 611.322 69.8604H607.278V76.1392C607.278 78.8707 606.356 80.2187 604.405 80.2187C602.454 80.2187 601.531 78.8707 601.531 76.1392V58.7218C601.531 55.9194 602.312 54.6778 605.504 54.6778H611.96ZM629.281 54.6778C632.013 54.6778 633.361 55.5646 633.361 57.3738C633.361 59.1829 632.013 60.0343 629.281 60.0343H624.599V64.5394H628.643C631.374 64.5394 632.722 65.3908 632.722 67.1999C632.722 69.0091 631.374 69.8604 628.643 69.8604H624.599V74.5784H629.459C632.19 74.5784 633.538 75.4298 633.538 77.2389C633.538 79.0481 632.19 79.8994 629.459 79.8994H622.754C619.704 79.8994 618.852 79.0126 618.852 76.2811V58.7218C618.852 55.9194 619.633 54.6778 622.825 54.6778H629.281ZM626.55 51.9109C625.876 52.6558 625.273 53.0105 624.634 53.0105C623.464 53.0105 622.719 52.1947 622.719 51.0595C622.719 50.5983 622.896 50.0662 623.322 49.4987L625.911 45.9513C626.444 45.2064 627.153 44.8162 627.933 44.8162C629.211 44.8162 630.168 45.774 630.168 46.9446C630.168 47.6186 629.849 48.2571 629.246 48.9311L626.55 51.9109ZM642.509 66.1002H645.169C647.511 66.1002 648.823 64.9296 648.823 62.9786C648.823 61.0985 647.546 59.9633 645.24 59.9633H642.509V66.1002ZM642.509 69.9314V76.1392C642.509 78.8707 641.587 80.2187 639.636 80.2187C637.685 80.2187 636.762 78.8707 636.762 76.1392V58.7218C636.762 55.9194 637.543 54.6778 640.735 54.6778H645.205C651.413 54.6778 654.818 57.9059 654.818 62.5529C654.818 66.1357 652.583 68.7253 648.788 69.3638L653.328 74.401C654.463 75.6781 655.031 76.7778 655.031 77.7001C655.031 79.1899 653.896 80.396 652.3 80.396C651.164 80.396 650.278 79.6511 649.213 78.3386L642.509 69.9314ZM668.358 54.6778C671.089 54.6778 672.437 55.5646 672.437 57.3738C672.437 59.1829 671.089 60.0343 668.358 60.0343H663.675V64.5394H667.719C670.451 64.5394 671.799 65.3908 671.799 67.1999C671.799 69.0091 670.451 69.8604 667.719 69.8604H663.675V74.5784H668.535C671.267 74.5784 672.614 75.4298 672.614 77.2389C672.614 79.0481 671.267 79.8994 668.535 79.8994H661.831C658.78 79.8994 657.928 79.0126 657.928 76.2811V58.7218C657.928 55.9194 658.709 54.6778 661.902 54.6778H668.358ZM665.626 51.9109C664.952 52.6558 664.349 53.0105 663.711 53.0105C662.54 53.0105 661.795 52.1947 661.795 51.0595C661.795 50.5983 661.972 50.0662 662.398 49.4987L664.988 45.9513C665.52 45.2064 666.229 44.8162 667.01 44.8162C668.287 44.8162 669.245 45.774 669.245 46.9446C669.245 47.6186 668.925 48.2571 668.322 48.9311L665.626 51.9109ZM686.268 54.6778C688.999 54.6778 690.347 55.5646 690.347 57.3738C690.347 59.1829 688.999 60.0343 686.268 60.0343H681.585V64.5394H685.629C688.361 64.5394 689.709 65.3908 689.709 67.1999C689.709 69.0091 688.361 69.8604 685.629 69.8604H681.585V74.5784H686.445C689.176 74.5784 690.524 75.4298 690.524 77.2389C690.524 79.0481 689.176 79.8994 686.445 79.8994H679.74C676.69 79.8994 675.838 79.0126 675.838 76.2811V58.7218C675.838 55.9194 676.619 54.6778 679.811 54.6778H686.268ZM710.35 72.0953C710.35 76.9906 706.59 80.5734 700.559 80.5734C695.841 80.5734 692.4 78.5869 692.4 76.5294C692.4 75.0041 693.465 73.9399 695.238 73.9399C696.764 73.9399 698.821 75.2169 701.375 75.2169C702.971 75.2169 704.213 74.1172 704.213 72.6274C704.213 70.6054 702.546 69.9669 699.814 69.151C694.954 67.6965 692.684 65.9229 692.684 61.9853C692.684 57.4447 696.267 54.0038 701.836 54.0038C706.022 54.0038 708.718 55.7065 708.718 57.7285C708.718 59.2184 707.796 60.1762 706.129 60.1762C704.745 60.1762 703.149 59.2893 701.623 59.2893C699.85 59.2893 698.821 60.2117 698.821 61.4532C698.821 63.2624 700.524 63.4752 703.397 64.433C708.08 65.9938 710.35 68.2996 710.35 72.0953Z" fill="white"/>
</svg>
