<svg width="551" height="26" viewBox="0 0 551 26" fill="none" xmlns="http://www.w3.org/2000/svg">
<path d="M4.78402 25L0.528016 6.044H5.79202L8.28402 20.072H9.18002L11.588 6.044H16.852L12.708 25H4.78402ZM26.3377 25.336C24.303 25.336 22.6603 24.9907 21.4097 24.3C20.1777 23.5907 19.2723 22.5173 18.6937 21.08C18.1337 19.624 17.8537 17.7853 17.8537 15.564C17.8537 13.324 18.1337 11.476 18.6937 10.02C19.2537 8.564 20.159 7.48133 21.4097 6.772C22.6603 6.044 24.303 5.68 26.3377 5.68C28.391 5.68 30.0337 6.044 31.2657 6.772C32.5163 7.48133 33.4217 8.564 33.9817 10.02C34.5417 11.476 34.8217 13.324 34.8217 15.564C34.8217 17.804 34.5417 19.652 33.9817 21.108C33.4217 22.5453 32.5257 23.6093 31.2937 24.3C30.0617 24.9907 28.4097 25.336 26.3377 25.336ZM26.3377 21.22C27.327 21.22 28.0643 21.0147 28.5497 20.604C29.035 20.1747 29.3617 19.54 29.5297 18.7C29.6977 17.8413 29.7817 16.796 29.7817 15.564C29.7817 14.3133 29.6977 13.2587 29.5297 12.4C29.3617 11.5413 29.035 10.8973 28.5497 10.468C28.0643 10.02 27.327 9.796 26.3377 9.796C25.3857 9.796 24.6577 10.02 24.1537 10.468C23.6683 10.8973 23.3417 11.5413 23.1737 12.4C23.0057 13.2587 22.9217 14.3133 22.9217 15.564C22.9217 16.7773 23.0057 17.8133 23.1737 18.672C23.3417 19.512 23.6683 20.1467 24.1537 20.576C24.639 21.0053 25.367 21.22 26.3377 21.22ZM37.0341 25V6.044H42.0181V25H37.0341ZM51.9964 25.336C50.4844 25.336 49.2337 25.1587 48.2444 24.804C47.2551 24.4493 46.4711 23.8893 45.8924 23.124C45.3137 22.34 44.9031 21.3227 44.6604 20.072C44.4177 18.8213 44.2964 17.3 44.2964 15.508C44.2964 13.716 44.4177 12.204 44.6604 10.972C44.9031 9.72133 45.3137 8.71333 45.8924 7.948C46.4711 7.164 47.2644 6.59467 48.2724 6.24C49.2991 5.86667 50.5964 5.68 52.1644 5.68C52.7431 5.68 53.3684 5.71733 54.0404 5.792C54.7311 5.86667 55.4031 5.96 56.0564 6.072C56.7097 6.184 57.2791 6.296 57.7644 6.408L57.6244 10.3C57.2884 10.244 56.8497 10.188 56.3084 10.132C55.7857 10.076 55.2444 10.0293 54.6844 9.992C54.1244 9.95467 53.5924 9.936 53.0884 9.936C52.3231 9.936 51.6884 10.0293 51.1844 10.216C50.6991 10.384 50.3164 10.6827 50.0364 11.112C49.7751 11.5227 49.5977 12.0827 49.5044 12.792C49.4111 13.5013 49.3644 14.4067 49.3644 15.508C49.3644 16.5907 49.4111 17.496 49.5044 18.224C49.5977 18.9333 49.7751 19.5027 50.0364 19.932C50.3164 20.3427 50.6991 20.6413 51.1844 20.828C51.6884 20.996 52.3324 21.08 53.1164 21.08C53.8631 21.08 54.6657 21.052 55.5244 20.996C56.4017 20.9213 57.1204 20.856 57.6804 20.8L57.7644 24.664C57.3351 24.7573 56.8031 24.86 56.1684 24.972C55.5337 25.084 54.8524 25.168 54.1244 25.224C53.3964 25.2987 52.6871 25.336 51.9964 25.336ZM59.8115 25V6.044H64.7955V25H59.8115ZM73.62 25V6.044H81.292L84.148 16.432L86.808 6.044H94.676V25H89.692V12.736H89.328L86.332 24.636H81.936L78.968 12.736H78.604V25H73.62ZM97.4091 25V6.044H110.681V10.076H102.393V13.436H109.001V17.44H102.393V20.94H110.681V25H97.4091ZM119.608 25.336C118.786 25.336 117.918 25.2893 117.004 25.196C116.108 25.1027 115.249 24.9907 114.428 24.86C113.606 24.7107 112.916 24.58 112.356 24.468L112.608 20.632C113.205 20.688 113.896 20.7627 114.68 20.856C115.482 20.9493 116.285 21.0333 117.088 21.108C117.89 21.164 118.59 21.192 119.188 21.192C120.046 21.192 120.653 21.052 121.008 20.772C121.381 20.4733 121.568 20.0253 121.568 19.428C121.568 19.092 121.493 18.8307 121.344 18.644C121.194 18.4387 120.905 18.2707 120.476 18.14C120.065 17.9907 119.468 17.8507 118.684 17.72C117.078 17.44 115.8 17.0853 114.848 16.656C113.896 16.2267 113.214 15.6293 112.804 14.864C112.393 14.08 112.188 13.0533 112.188 11.784C112.188 10.1787 112.468 8.93733 113.028 8.06C113.606 7.18267 114.418 6.56667 115.464 6.212C116.509 5.85733 117.75 5.68 119.188 5.68C119.86 5.68 120.616 5.71733 121.456 5.792C122.314 5.86667 123.145 5.95067 123.948 6.044C124.769 6.13733 125.478 6.24 126.076 6.352L125.88 10.272C125.32 10.216 124.657 10.16 123.892 10.104C123.145 10.0293 122.389 9.964 121.624 9.908C120.858 9.852 120.186 9.824 119.608 9.824C118.768 9.824 118.161 9.936 117.788 10.16C117.414 10.384 117.228 10.748 117.228 11.252C117.228 11.6253 117.312 11.924 117.48 12.148C117.648 12.3533 117.937 12.5307 118.348 12.68C118.777 12.8107 119.384 12.9693 120.168 13.156C121.381 13.4173 122.398 13.688 123.22 13.968C124.041 14.248 124.694 14.5933 125.18 15.004C125.684 15.4147 126.048 15.9467 126.272 16.6C126.496 17.2347 126.608 18.056 126.608 19.064C126.608 20.5947 126.337 21.8267 125.796 22.76C125.254 23.6747 124.461 24.3373 123.416 24.748C122.37 25.14 121.101 25.336 119.608 25.336ZM134.706 25V6.044H142.378L145.234 16.432L147.894 6.044H155.762V25H150.778V12.736H150.414L147.418 24.636H143.022L140.054 12.736H139.69V25H134.706ZM157.263 25L161.827 6.044H169.863L174.455 25H169.443L168.603 21.864H162.947L162.163 25H157.263ZM163.647 17.972H168.015L166.335 9.992H165.383L163.647 17.972ZM175.968 25V6.044H180.952V25H175.968ZM183.706 25V6.044H188.69V20.884H195.634V25H183.706ZM197.296 25V6.044H202.28V20.884H209.224V25H197.296ZM218.838 25.336C216.803 25.336 215.16 24.9907 213.91 24.3C212.678 23.5907 211.772 22.5173 211.194 21.08C210.634 19.624 210.354 17.7853 210.354 15.564C210.354 13.324 210.634 11.476 211.194 10.02C211.754 8.564 212.659 7.48133 213.91 6.772C215.16 6.044 216.803 5.68 218.838 5.68C220.891 5.68 222.534 6.044 223.766 6.772C225.016 7.48133 225.922 8.564 226.482 10.02C227.042 11.476 227.322 13.324 227.322 15.564C227.322 17.804 227.042 19.652 226.482 21.108C225.922 22.5453 225.026 23.6093 223.794 24.3C222.562 24.9907 220.91 25.336 218.838 25.336ZM218.838 21.22C219.827 21.22 220.564 21.0147 221.05 20.604C221.535 20.1747 221.862 19.54 222.03 18.7C222.198 17.8413 222.282 16.796 222.282 15.564C222.282 14.3133 222.198 13.2587 222.03 12.4C221.862 11.5413 221.535 10.8973 221.05 10.468C220.564 10.02 219.827 9.796 218.838 9.796C217.886 9.796 217.158 10.02 216.654 10.468C216.168 10.8973 215.842 11.5413 215.674 12.4C215.506 13.2587 215.422 14.3133 215.422 15.564C215.422 16.7773 215.506 17.8133 215.674 18.672C215.842 19.512 216.168 20.1467 216.654 20.576C217.139 21.0053 217.867 21.22 218.838 21.22ZM233.034 25V10.16H228.442V6.044H242.442V10.16H238.018V25H233.034ZM250.94 25.336C250.118 25.336 249.25 25.2893 248.336 25.196C247.44 25.1027 246.581 24.9907 245.76 24.86C244.938 24.7107 244.248 24.58 243.688 24.468L243.94 20.632C244.537 20.688 245.228 20.7627 246.012 20.856C246.814 20.9493 247.617 21.0333 248.42 21.108C249.222 21.164 249.922 21.192 250.52 21.192C251.378 21.192 251.985 21.052 252.34 20.772C252.713 20.4733 252.9 20.0253 252.9 19.428C252.9 19.092 252.825 18.8307 252.676 18.644C252.526 18.4387 252.237 18.2707 251.808 18.14C251.397 17.9907 250.8 17.8507 250.016 17.72C248.41 17.44 247.132 17.0853 246.18 16.656C245.228 16.2267 244.546 15.6293 244.136 14.864C243.725 14.08 243.52 13.0533 243.52 11.784C243.52 10.1787 243.8 8.93733 244.36 8.06C244.938 7.18267 245.75 6.56667 246.796 6.212C247.841 5.85733 249.082 5.68 250.52 5.68C251.192 5.68 251.948 5.71733 252.788 5.792C253.646 5.86667 254.477 5.95067 255.28 6.044C256.101 6.13733 256.81 6.24 257.408 6.352L257.212 10.272C256.652 10.216 255.989 10.16 255.224 10.104C254.477 10.0293 253.721 9.964 252.956 9.908C252.19 9.852 251.518 9.824 250.94 9.824C250.1 9.824 249.493 9.936 249.12 10.16C248.746 10.384 248.56 10.748 248.56 11.252C248.56 11.6253 248.644 11.924 248.812 12.148C248.98 12.3533 249.269 12.5307 249.68 12.68C250.109 12.8107 250.716 12.9693 251.5 13.156C252.713 13.4173 253.73 13.688 254.552 13.968C255.373 14.248 256.026 14.5933 256.512 15.004C257.016 15.4147 257.38 15.9467 257.604 16.6C257.828 17.2347 257.94 18.056 257.94 19.064C257.94 20.5947 257.669 21.8267 257.128 22.76C256.586 23.6747 255.793 24.3373 254.748 24.748C253.702 25.14 252.433 25.336 250.94 25.336ZM266.038 25V6.044H271.022V13.492L272.87 13.464L275.95 6.044H281.018L277.154 15.34L281.326 25H276.174L272.898 17.944L271.022 18V25H266.038ZM289.914 25.336C288.402 25.336 287.152 25.1587 286.162 24.804C285.173 24.4493 284.389 23.8893 283.81 23.124C283.232 22.34 282.821 21.3227 282.578 20.072C282.336 18.8213 282.214 17.3 282.214 15.508C282.214 13.716 282.336 12.204 282.578 10.972C282.821 9.72133 283.232 8.71333 283.81 7.948C284.389 7.164 285.182 6.59467 286.19 6.24C287.217 5.86667 288.514 5.68 290.082 5.68C290.661 5.68 291.286 5.71733 291.958 5.792C292.649 5.86667 293.321 5.96 293.974 6.072C294.628 6.184 295.197 6.296 295.682 6.408L295.542 10.3C295.206 10.244 294.768 10.188 294.226 10.132C293.704 10.076 293.162 10.0293 292.602 9.992C292.042 9.95467 291.51 9.936 291.006 9.936C290.241 9.936 289.606 10.0293 289.102 10.216C288.617 10.384 288.234 10.6827 287.954 11.112C287.693 11.5227 287.516 12.0827 287.422 12.792C287.329 13.5013 287.282 14.4067 287.282 15.508C287.282 16.5907 287.329 17.496 287.422 18.224C287.516 18.9333 287.693 19.5027 287.954 19.932C288.234 20.3427 288.617 20.6413 289.102 20.828C289.606 20.996 290.25 21.08 291.034 21.08C291.781 21.08 292.584 21.052 293.442 20.996C294.32 20.9213 295.038 20.856 295.598 20.8L295.682 24.664C295.253 24.7573 294.721 24.86 294.086 24.972C293.452 25.084 292.77 25.168 292.042 25.224C291.314 25.2987 290.605 25.336 289.914 25.336ZM297.729 25V6.044H305.373C307.035 6.044 308.416 6.24 309.517 6.632C310.619 7.00533 311.44 7.668 311.981 8.62C312.541 9.55333 312.821 10.8693 312.821 12.568C312.821 13.9307 312.597 15.0693 312.149 15.984C311.72 16.8987 311.076 17.608 310.217 18.112L312.709 25H307.585L305.681 19.26H302.713V25H297.729ZM302.713 15.256H305.513C306.055 15.256 306.484 15.144 306.801 14.92C307.137 14.696 307.38 14.388 307.529 13.996C307.679 13.5853 307.753 13.1187 307.753 12.596C307.753 11.7373 307.557 11.0933 307.165 10.664C306.792 10.2347 306.195 10.02 305.373 10.02H302.713V15.256ZM322.963 25.336C320.928 25.336 319.285 24.9907 318.035 24.3C316.803 23.5907 315.897 22.5173 315.319 21.08C314.759 19.624 314.479 17.7853 314.479 15.564C314.479 13.324 314.759 11.476 315.319 10.02C315.879 8.564 316.784 7.48133 318.035 6.772C319.285 6.044 320.928 5.68 322.963 5.68C325.016 5.68 326.659 6.044 327.891 6.772C329.141 7.48133 330.047 8.564 330.607 10.02C331.167 11.476 331.447 13.324 331.447 15.564C331.447 17.804 331.167 19.652 330.607 21.108C330.047 22.5453 329.151 23.6093 327.919 24.3C326.687 24.9907 325.035 25.336 322.963 25.336ZM322.963 21.22C323.952 21.22 324.689 21.0147 325.175 20.604C325.66 20.1747 325.987 19.54 326.155 18.7C326.323 17.8413 326.407 16.796 326.407 15.564C326.407 14.3133 326.323 13.2587 326.155 12.4C325.987 11.5413 325.66 10.8973 325.175 10.468C324.689 10.02 323.952 9.796 322.963 9.796C322.011 9.796 321.283 10.02 320.779 10.468C320.293 10.8973 319.967 11.5413 319.799 12.4C319.631 13.2587 319.547 14.3133 319.547 15.564C319.547 16.7773 319.631 17.8133 319.799 18.672C319.967 19.512 320.293 20.1467 320.779 20.576C321.264 21.0053 321.992 21.22 322.963 21.22ZM333.659 25V6.044H340.939C342.638 6.044 344.056 6.25867 345.195 6.688C346.334 7.09867 347.192 7.808 347.771 8.816C348.35 9.80533 348.639 11.1867 348.639 12.96C348.639 14.7333 348.35 16.1427 347.771 17.188C347.192 18.2333 346.334 18.9893 345.195 19.456C344.056 19.904 342.638 20.128 340.939 20.128H338.643V25H333.659ZM338.643 16.124H340.743C341.751 16.124 342.47 15.872 342.899 15.368C343.347 14.864 343.571 14.0707 343.571 12.988C343.571 11.8867 343.356 11.1213 342.927 10.692C342.498 10.244 341.77 10.02 340.743 10.02H338.643V16.124ZM356.767 25V21.22L360.239 17.72C361.079 16.88 361.788 16.1613 362.367 15.564C362.964 14.948 363.412 14.3787 363.711 13.856C364.028 13.3333 364.187 12.792 364.187 12.232C364.187 11.4667 363.972 10.9627 363.543 10.72C363.113 10.4773 362.385 10.356 361.359 10.356C360.911 10.356 360.416 10.384 359.875 10.44C359.352 10.496 358.839 10.5613 358.335 10.636C357.849 10.7107 357.439 10.7853 357.103 10.86L356.851 7.108C357.28 6.97733 357.803 6.83733 358.419 6.688C359.053 6.53867 359.735 6.41733 360.463 6.324C361.209 6.212 361.947 6.156 362.675 6.156C364.728 6.156 366.315 6.604 367.435 7.5C368.573 8.37733 369.143 9.72133 369.143 11.532C369.143 12.54 369.012 13.4267 368.751 14.192C368.508 14.9573 368.097 15.676 367.519 16.348C366.959 17.0013 366.184 17.7107 365.195 18.476L362.283 21.052H369.227V25H356.767ZM378.542 25.336C377.273 25.336 376.181 25.1587 375.266 24.804C374.37 24.4493 373.633 23.8987 373.054 23.152C372.494 22.3867 372.084 21.4067 371.822 20.212C371.561 18.9987 371.43 17.552 371.43 15.872C371.43 14.1173 371.561 12.6333 371.822 11.42C372.102 10.188 372.522 9.18933 373.082 8.424C373.661 7.65867 374.398 7.09867 375.294 6.744C376.19 6.37067 377.273 6.184 378.542 6.184C379.83 6.184 380.922 6.37067 381.818 6.744C382.733 7.09867 383.47 7.65867 384.03 8.424C384.609 9.18933 385.02 10.188 385.262 11.42C385.524 12.6333 385.654 14.1173 385.654 15.872C385.654 18.112 385.412 19.932 384.926 21.332C384.46 22.732 383.704 23.7493 382.658 24.384C381.632 25.0187 380.26 25.336 378.542 25.336ZM378.542 21.22C378.916 21.22 379.242 21.1547 379.522 21.024C379.802 20.8747 380.026 20.6133 380.194 20.24C380.381 19.848 380.512 19.2973 380.586 18.588C380.68 17.8787 380.726 16.9733 380.726 15.872C380.726 14.7147 380.68 13.772 380.586 13.044C380.512 12.316 380.39 11.756 380.222 11.364C380.054 10.9533 379.83 10.6733 379.55 10.524C379.289 10.3747 378.953 10.3 378.542 10.3C378.15 10.3 377.814 10.3747 377.534 10.524C377.254 10.6733 377.03 10.9533 376.862 11.364C376.694 11.756 376.564 12.316 376.47 13.044C376.396 13.772 376.358 14.7147 376.358 15.872C376.358 16.9733 376.396 17.8787 376.47 18.588C376.564 19.2973 376.704 19.848 376.89 20.24C377.077 20.6133 377.301 20.8747 377.562 21.024C377.842 21.1547 378.169 21.22 378.542 21.22ZM387.774 25V21.22L391.246 17.72C392.086 16.88 392.796 16.1613 393.374 15.564C393.972 14.948 394.42 14.3787 394.718 13.856C395.036 13.3333 395.194 12.792 395.194 12.232C395.194 11.4667 394.98 10.9627 394.55 10.72C394.121 10.4773 393.393 10.356 392.366 10.356C391.918 10.356 391.424 10.384 390.882 10.44C390.36 10.496 389.846 10.5613 389.342 10.636C388.857 10.7107 388.446 10.7853 388.11 10.86L387.858 7.108C388.288 6.97733 388.81 6.83733 389.426 6.688C390.061 6.53867 390.742 6.41733 391.47 6.324C392.217 6.212 392.954 6.156 393.682 6.156C395.736 6.156 397.322 6.604 398.442 7.5C399.581 8.37733 400.15 9.72133 400.15 11.532C400.15 12.54 400.02 13.4267 399.758 14.192C399.516 14.9573 399.105 15.676 398.526 16.348C397.966 17.0013 397.192 17.7107 396.202 18.476L393.29 21.052H400.234V25H387.774ZM410.614 25V22.284H402.55V18.728L406.022 6.548H411.622L407.394 18.196H410.614L410.978 14.108L415.486 13.996V18.196H416.774V22.284H415.486V25H410.614ZM424.768 25V6.044H432.048C433.747 6.044 435.166 6.25867 436.304 6.688C437.443 7.09867 438.302 7.808 438.88 8.816C439.459 9.80533 439.748 11.1867 439.748 12.96C439.748 14.7333 439.459 16.1427 438.88 17.188C438.302 18.2333 437.443 18.9893 436.304 19.456C435.166 19.904 433.747 20.128 432.048 20.128H429.752V25H424.768ZM429.752 16.124H431.852C432.86 16.124 433.579 15.872 434.008 15.368C434.456 14.864 434.68 14.0707 434.68 12.988C434.68 11.8867 434.466 11.1213 434.036 10.692C433.607 10.244 432.879 10.02 431.852 10.02H429.752V16.124ZM441.722 25V6.044H449.366C451.027 6.044 452.408 6.24 453.51 6.632C454.611 7.00533 455.432 7.668 455.974 8.62C456.534 9.55333 456.814 10.8693 456.814 12.568C456.814 13.9307 456.59 15.0693 456.142 15.984C455.712 16.8987 455.068 17.608 454.21 18.112L456.702 25H451.578L449.674 19.26H446.706V25H441.722ZM446.706 15.256H449.506C450.047 15.256 450.476 15.144 450.794 14.92C451.13 14.696 451.372 14.388 451.522 13.996C451.671 13.5853 451.746 13.1187 451.746 12.596C451.746 11.7373 451.55 11.0933 451.158 10.664C450.784 10.2347 450.187 10.02 449.366 10.02H446.706V15.256ZM459.003 25V6.044H472.275V10.076H463.987V13.436H470.595V17.44H463.987V20.94H472.275V25H459.003ZM465.387 4.392L462.055 3.832L464.995 0.415999L469.559 1.116L465.387 4.392ZM474.397 25V6.044H487.249V10.16H479.381V14.752H485.653V18.868H479.381V25H474.397ZM489.054 25V6.044H502.326V10.076H494.038V13.436H500.646V17.44H494.038V20.94H502.326V25H489.054ZM495.438 4.392L492.106 3.832L495.046 0.415999L499.61 1.116L495.438 4.392ZM504.448 25V6.044H512.092C513.754 6.044 515.135 6.24 516.236 6.632C517.338 7.00533 518.159 7.668 518.7 8.62C519.26 9.55333 519.54 10.8693 519.54 12.568C519.54 13.9307 519.316 15.0693 518.868 15.984C518.439 16.8987 517.795 17.608 516.936 18.112L519.428 25H514.304L512.4 19.26H509.432V25H504.448ZM509.432 15.256H512.232C512.774 15.256 513.203 15.144 513.52 14.92C513.856 14.696 514.099 14.388 514.248 13.996C514.398 13.5853 514.472 13.1187 514.472 12.596C514.472 11.7373 514.276 11.0933 513.884 10.664C513.511 10.2347 512.914 10.02 512.092 10.02H509.432V15.256ZM521.729 25V6.044H535.001V10.076H526.713V13.436H533.321V17.44H526.713V20.94H535.001V25H521.729ZM528.113 4.392L524.781 3.832L527.721 0.415999L532.285 1.116L528.113 4.392ZM543.928 25.336C543.107 25.336 542.239 25.2893 541.324 25.196C540.428 25.1027 539.569 24.9907 538.748 24.86C537.927 24.7107 537.236 24.58 536.676 24.468L536.928 20.632C537.525 20.688 538.216 20.7627 539 20.856C539.803 20.9493 540.605 21.0333 541.408 21.108C542.211 21.164 542.911 21.192 543.508 21.192C544.367 21.192 544.973 21.052 545.328 20.772C545.701 20.4733 545.888 20.0253 545.888 19.428C545.888 19.092 545.813 18.8307 545.664 18.644C545.515 18.4387 545.225 18.2707 544.796 18.14C544.385 17.9907 543.788 17.8507 543.004 17.72C541.399 17.44 540.12 17.0853 539.168 16.656C538.216 16.2267 537.535 15.6293 537.124 14.864C536.713 14.08 536.508 13.0533 536.508 11.784C536.508 10.1787 536.788 8.93733 537.348 8.06C537.927 7.18267 538.739 6.56667 539.784 6.212C540.829 5.85733 542.071 5.68 543.508 5.68C544.18 5.68 544.936 5.71733 545.776 5.792C546.635 5.86667 547.465 5.95067 548.268 6.044C549.089 6.13733 549.799 6.24 550.396 6.352L550.2 10.272C549.64 10.216 548.977 10.16 548.212 10.104C547.465 10.0293 546.709 9.964 545.944 9.908C545.179 9.852 544.507 9.824 543.928 9.824C543.088 9.824 542.481 9.936 542.108 10.16C541.735 10.384 541.548 10.748 541.548 11.252C541.548 11.6253 541.632 11.924 541.8 12.148C541.968 12.3533 542.257 12.5307 542.668 12.68C543.097 12.8107 543.704 12.9693 544.488 13.156C545.701 13.4173 546.719 13.688 547.54 13.968C548.361 14.248 549.015 14.5933 549.5 15.004C550.004 15.4147 550.368 15.9467 550.592 16.6C550.816 17.2347 550.928 18.056 550.928 19.064C550.928 20.5947 550.657 21.8267 550.116 22.76C549.575 23.6747 548.781 24.3373 547.736 24.748C546.691 25.14 545.421 25.336 543.928 25.336Z" fill="#16CCFF"/>
</svg>
